<svg width="349" height="236" viewBox="0 0 349 236" fill="none" xmlns="http://www.w3.org/2000/svg">
<rect y="0.969971" width="349" height="234.06" fill="white"/>
<path d="M159.589 156.225C154.935 156.225 151.278 154.922 148.616 152.316C145.954 149.71 144.623 146.17 144.623 141.696C144.623 137.079 146.004 133.464 148.765 130.852C151.527 128.24 155.262 126.937 159.971 126.943C164.608 126.943 168.244 128.246 170.881 130.852C173.517 133.459 174.836 136.909 174.837 141.203C174.837 145.836 173.477 149.5 170.758 152.195C168.039 154.889 164.316 156.233 159.589 156.225V156.225ZM159.828 132.414C157.446 132.414 155.596 133.23 154.279 134.863C152.961 136.506 152.301 138.825 152.299 141.817C152.299 148.085 154.831 151.22 159.895 151.221C164.715 151.221 167.128 148.003 167.133 141.567C167.133 135.461 164.698 132.41 159.828 132.414" fill="#2270B6"/>
<path d="M188.343 118.357H181.125V155.545H188.343V118.357Z" fill="#2270B6"/>
<path d="M221.46 155.545H214.466V154.734H214.358C207.693 157.102 200.356 157.89 196.883 154.458C195.33 152.923 194.574 150.865 194.556 148.306C194.49 138.915 213.14 140.888 213.756 136.294C213.724 132.676 211.839 132.071 208.526 132.071C205.212 132.071 200.935 133.027 198.309 134.292V129.467C201.589 128.25 205.484 127.671 209.517 127.671C217.476 127.671 221.46 129.72 221.46 137.658V155.545ZM214.529 147.458V141.719L205.965 144.73C203.305 145.665 201.834 146.896 201.834 149.062C201.834 150.036 202.169 150.851 202.849 151.472C203.529 152.094 204.459 152.412 205.622 152.412C210.182 152.412 214.529 151.531 214.529 147.457" fill="#2270B6"/>
<path d="M169.92 164.206H167.863V166.319H167.81C167.609 165.919 167.341 165.558 167.017 165.25C166.698 164.948 166.338 164.693 165.947 164.492C165.556 164.295 165.144 164.144 164.718 164.043C164.302 163.943 163.877 163.893 163.45 163.893C162.533 163.882 161.622 164.033 160.759 164.338C159.983 164.617 159.275 165.057 158.682 165.628C158.091 166.203 157.634 166.901 157.343 167.672C157.018 168.542 156.857 169.464 156.867 170.393C156.861 171.259 157.025 172.117 157.347 172.921C157.656 173.673 158.115 174.355 158.696 174.925C159.291 175.503 159.998 175.954 160.774 176.249C161.625 176.575 162.53 176.738 163.442 176.73C163.999 176.73 164.552 176.649 165.085 176.488C165.63 176.323 166.142 176.067 166.601 175.73C167.083 175.38 167.492 174.938 167.803 174.43H167.856V176.016C167.861 176.65 167.789 177.284 167.64 177.901C167.502 178.476 167.251 179.019 166.9 179.495C166.526 179.981 166.03 180.361 165.464 180.596C164.855 180.868 164.094 181.005 163.174 181.01C162.582 181.016 161.993 180.935 161.426 180.767C160.889 180.607 160.381 180.363 159.919 180.045C159.428 179.706 158.977 179.312 158.577 178.87L157.096 180.561C157.636 181.098 158.247 181.56 158.911 181.934C159.541 182.278 160.217 182.53 160.919 182.683C161.66 182.842 162.416 182.919 163.174 182.912C164.623 182.912 165.847 182.646 166.847 182.115C167.833 181.6 168.632 180.786 169.127 179.789C169.647 178.763 169.907 177.509 169.911 176.016L169.92 164.206ZM159.091 170.389C159.089 169.771 159.197 169.158 159.408 168.578C159.607 168.038 159.909 167.541 160.297 167.116C160.685 166.7 161.155 166.369 161.676 166.141C162.238 165.906 162.841 165.786 163.451 165.789C164.258 165.778 165.054 165.979 165.758 166.374C166.412 166.75 166.946 167.303 167.299 167.969C167.683 168.698 167.877 169.511 167.864 170.333C167.867 170.914 167.769 171.491 167.573 172.038C167.383 172.567 167.093 173.054 166.719 173.474C166.332 173.898 165.858 174.234 165.331 174.46C164.735 174.709 164.096 174.833 163.451 174.825C162.59 174.829 161.748 174.575 161.032 174.096C160.316 173.618 159.76 172.936 159.435 172.139C159.206 171.583 159.089 170.988 159.091 170.386V170.389ZM173.73 176.57H175.787V170.545C175.787 169.599 175.911 168.784 176.166 168.097C176.387 167.456 176.804 166.901 177.358 166.511C177.892 166.141 178.574 165.952 179.415 165.948C179.604 165.948 179.792 165.961 179.978 165.988C180.162 166.012 180.343 166.052 180.52 166.106L180.651 164.019C180.511 163.967 180.366 163.93 180.218 163.911C180.08 163.894 179.942 163.885 179.804 163.885C179.171 163.88 178.543 163.995 177.953 164.223C177.435 164.423 176.958 164.717 176.545 165.089C176.182 165.409 175.887 165.8 175.679 166.238H175.626C175.626 165.895 175.613 165.551 175.6 165.212C175.587 164.873 175.574 164.533 175.574 164.204H173.618C173.623 164.613 173.64 165.063 173.671 165.551C173.702 166.04 173.72 166.568 173.724 167.137L173.73 176.57ZM181.842 170.386C181.835 171.291 182.004 172.189 182.339 173.029C182.649 173.804 183.119 174.505 183.718 175.086C184.318 175.668 185.03 176.122 185.81 176.421C187.512 177.049 189.383 177.049 191.086 176.421C191.866 176.123 192.578 175.669 193.177 175.086C193.776 174.505 194.245 173.804 194.555 173.029C195.22 171.33 195.22 169.443 194.555 167.744C194.245 166.97 193.775 166.269 193.177 165.687C192.576 165.107 191.865 164.655 191.086 164.357C189.383 163.729 187.512 163.729 185.81 164.357C185.031 164.656 184.319 165.108 183.718 165.687C183.12 166.269 182.65 166.97 182.339 167.744C182.003 168.584 181.835 169.482 181.842 170.386V170.386ZM184.061 170.386C184.057 169.769 184.161 169.157 184.37 168.576C184.567 168.036 184.868 167.539 185.254 167.114C185.641 166.695 186.113 166.362 186.638 166.139C187.799 165.67 189.097 165.67 190.257 166.139C190.782 166.363 191.253 166.695 191.64 167.114C192.028 167.538 192.329 168.035 192.525 168.576C192.937 169.747 192.937 171.024 192.525 172.196C192.328 172.736 192.028 173.233 191.64 173.658C191.253 174.076 190.782 174.408 190.257 174.633C189.096 175.1 187.799 175.1 186.638 174.633C186.114 174.409 185.642 174.076 185.254 173.658C184.868 173.232 184.567 172.736 184.37 172.196C184.161 171.616 184.056 171.003 184.061 170.386V170.386ZM209.03 164.204H206.972V170.228C206.993 171.076 206.858 171.92 206.573 172.719C206.336 173.389 205.899 173.97 205.322 174.385C204.758 174.78 204.031 174.983 203.141 174.987C202.499 174.987 201.97 174.847 201.552 174.573C201.128 174.296 200.801 173.893 200.618 173.42C200.404 172.849 200.301 172.242 200.314 171.632V164.207H198.257V171.843C198.257 172.847 198.419 173.724 198.754 174.477C199.071 175.213 199.61 175.832 200.296 176.247C200.991 176.67 201.881 176.881 202.96 176.889C203.592 176.891 204.219 176.777 204.81 176.55C205.328 176.35 205.805 176.056 206.217 175.684C206.581 175.364 206.876 174.972 207.084 174.534H207.137C207.137 174.877 207.15 175.222 207.163 175.56C207.176 175.897 207.19 176.238 207.19 176.569H209.146C209.141 176.16 209.123 175.71 209.093 175.222C209.061 174.731 209.044 174.204 209.038 173.636L209.03 164.204ZM212.835 182.594H214.893V174.377H214.945C215.221 174.866 215.589 175.298 216.028 175.648C216.512 176.041 217.062 176.345 217.652 176.547C218.311 176.774 219.003 176.889 219.7 176.886C220.535 176.889 221.361 176.719 222.128 176.388C222.868 176.071 223.536 175.607 224.091 175.024C224.658 174.429 225.103 173.73 225.404 172.966C225.726 172.146 225.889 171.271 225.884 170.39C225.891 169.501 225.731 168.62 225.412 167.791C225.115 167.023 224.666 166.323 224.091 165.733C223.505 165.146 222.805 164.686 222.033 164.382C221.188 164.051 220.286 163.886 219.378 163.893C218.524 163.889 217.681 164.08 216.912 164.452C216.156 164.831 215.484 165.36 214.938 166.007H214.886V164.211H212.829L212.835 182.594ZM214.893 170.386C214.888 169.769 214.993 169.157 215.201 168.576C215.398 168.035 215.698 167.539 216.086 167.114C216.473 166.695 216.944 166.363 217.469 166.139C218.63 165.67 219.928 165.67 221.089 166.139C221.614 166.363 222.085 166.695 222.472 167.114C222.86 167.539 223.16 168.035 223.357 168.576C223.768 169.747 223.768 171.024 223.357 172.196C223.16 172.736 222.859 173.233 222.472 173.658C222.085 174.076 221.613 174.408 221.089 174.633C219.928 175.1 218.63 175.1 217.469 174.633C216.945 174.408 216.474 174.076 216.086 173.658C215.699 173.233 215.398 172.736 215.201 172.196C214.993 171.616 214.888 171.003 214.893 170.386" fill="#2270B6"/>
<path fill-rule="evenodd" clip-rule="evenodd" d="M111.955 42C112.467 45.1686 110.75 51.0077 130.726 58.8253C152.639 67.401 162.316 69.7996 169.495 76.7152C176.673 83.6307 177.608 94.475 175.413 101.72C175.413 101.72 171.356 92.8095 158.855 87.2899C146.354 81.7702 126.503 78.1576 119.453 71.241C112.403 64.3244 109.268 57.2713 111.955 42.0022" fill="#0C97D5"/>
<path fill-rule="evenodd" clip-rule="evenodd" d="M120.696 115.734V134.549C120.696 134.549 112.455 137.446 111.914 146.622C110.238 133.466 110.592 124.911 120.696 115.734Z" fill="#2270B6"/>
<path fill-rule="evenodd" clip-rule="evenodd" d="M138.829 125.632C151.36 119.982 169.043 117.562 174.554 103.648C174.554 103.648 171.521 98.811 168.409 95.7766C157.646 102.323 150.345 104.548 138.829 108.237V125.632Z" fill="#2270B6"/>
<path fill-rule="evenodd" clip-rule="evenodd" d="M122.669 76.6121C122.669 76.6121 130.507 81.0065 136.657 82.135V156.031C136.657 156.031 126.925 159.497 122.868 165.152V116.166L122.669 76.6121Z" fill="#00AB9B"/>
</svg>
