<svg width="349" height="236" viewBox="0 0 349 236" fill="none" xmlns="http://www.w3.org/2000/svg">
<rect y="0.969971" width="349" height="234.06" fill="white"/>
<path d="M102.315 139.064C102.306 138.091 101.922 137.16 101.242 136.465C100.34 135.549 99.1632 135.356 98.289 135.356C97.3862 135.356 96.3868 135.535 95.4446 136.355C94.3094 137.353 93.9125 138.735 93.9125 140.267C93.887 141.146 94.0708 142.018 94.4488 142.811C94.9279 143.741 95.9953 145.015 98.28 145.015C99.5923 145.015 100.522 144.576 101.166 143.943C101.84 143.271 102.244 142.376 102.301 141.426L99.6745 141.261C99.6716 141.606 99.5819 141.945 99.4135 142.246C99.324 142.448 99.1759 142.619 98.9885 142.736C98.8012 142.852 98.583 142.911 98.3623 142.902C97.8134 142.902 97.4577 142.616 97.227 142.082C96.9964 141.547 96.966 140.961 96.966 140.196C96.9359 139.591 97.0103 138.987 97.1859 138.408C97.4183 137.752 97.7723 137.423 98.3623 137.423C98.592 137.421 98.8169 137.489 99.0081 137.616C99.1993 137.744 99.3479 137.925 99.435 138.138C99.5554 138.471 99.6159 138.824 99.6137 139.178L102.315 139.064ZM102.562 135.488L105.912 142.244C105.838 142.433 105.709 142.594 105.542 142.709C105.346 142.846 105.11 142.913 104.872 142.901C104.485 142.892 104.1 142.843 103.724 142.752V144.844C104.191 144.947 104.667 145.003 105.145 145.01C106.039 145.01 106.827 144.844 107.485 144.116C107.827 143.748 108.1 143.222 108.592 142.119L111.506 135.487H108.976L107.444 139.193H107.416L105.733 135.487L102.562 135.488ZM113.12 135.488V136.817C113.142 137.98 113.055 139.143 112.859 140.29C112.725 141.11 112.452 141.901 112.053 142.629H111.368V146.789H113.968V144.872H117.962V146.789H120.559V142.629H119.739V135.494L113.12 135.488ZM115.336 137.677H116.868V142.627H114.515C114.756 142.076 114.943 141.504 115.075 140.918C115.243 140.099 115.33 139.265 115.336 138.429V137.677ZM125.785 135.353C124.534 135.353 123.609 135.737 122.925 136.296C122.158 136.926 121.316 138.084 121.316 140.181C121.316 141.726 121.768 142.972 122.746 143.902C123.567 144.681 124.534 145.012 125.785 145.012C127.394 145.012 128.438 144.381 129.039 143.737C129.82 142.902 130.256 141.603 130.256 140.181C130.256 138.445 129.641 137.172 128.826 136.427C128.469 136.112 127.514 135.345 125.787 135.345L125.785 135.353ZM125.787 137.398C126.196 137.398 126.608 137.602 126.881 138.165C126.949 138.301 127.196 138.848 127.196 140.119C127.196 141.39 126.949 141.98 126.881 142.116C126.608 142.704 126.196 142.895 125.787 142.895C125.378 142.895 124.966 142.704 124.693 142.116C124.623 141.98 124.378 141.401 124.378 140.119C124.378 138.837 124.623 138.301 124.693 138.165C124.966 137.602 125.376 137.398 125.787 137.398ZM139.476 139.053C139.467 138.081 139.083 137.149 138.403 136.454C137.501 135.538 136.324 135.345 135.448 135.345C134.572 135.345 133.548 135.524 132.604 136.345C131.469 137.342 131.072 138.724 131.072 140.256C131.049 141.136 131.237 142.008 131.62 142.8C132.098 143.73 133.165 145.005 135.448 145.005C136.762 145.005 137.692 144.565 138.334 143.932C139.009 143.261 139.413 142.365 139.469 141.415L136.844 141.25C136.841 141.595 136.751 141.934 136.583 142.235C136.494 142.438 136.345 142.608 136.157 142.725C135.97 142.842 135.751 142.9 135.53 142.892C134.983 142.892 134.636 142.606 134.395 142.071C134.154 141.536 134.136 140.95 134.136 140.185C134.106 139.581 134.18 138.976 134.354 138.397C134.586 137.741 134.942 137.412 135.53 137.412C135.762 137.409 135.988 137.476 136.181 137.603C136.374 137.731 136.524 137.913 136.612 138.127C136.732 138.461 136.792 138.813 136.791 139.168L139.476 139.053ZM139.723 135.478V137.666H141.664V144.86H144.539V137.666H146.481V135.494L139.723 135.478ZM147.314 135.478V144.86H150.187V141.463H151.54C152.538 141.463 153.975 141.367 154.808 140.054C155.096 139.561 155.247 138.999 155.246 138.427C155.246 136.997 154.452 136.293 153.852 135.951C152.99 135.458 151.964 135.472 151.089 135.472L147.314 135.478ZM150.187 139.362V137.528H151.259C151.583 137.504 151.904 137.608 152.153 137.816C152.308 137.994 152.391 138.224 152.386 138.46C152.381 138.701 152.283 138.931 152.112 139.101C151.868 139.285 151.568 139.378 151.263 139.362H150.187ZM160.39 135.34C159.138 135.34 158.214 135.724 157.529 136.284C156.762 136.913 155.92 138.072 155.92 140.169C155.92 141.713 156.371 142.96 157.35 143.889C158.171 144.669 159.138 144.999 160.39 144.999C161.999 144.999 163.043 144.368 163.643 143.725C164.425 142.89 164.861 141.59 164.861 140.169C164.861 138.433 164.246 137.16 163.431 136.414C163.073 136.1 162.117 135.333 160.391 135.333L160.39 135.34ZM160.391 137.385C160.801 137.385 161.212 137.589 161.485 138.152C161.553 138.288 161.8 138.835 161.8 140.106C161.8 141.377 161.553 141.967 161.485 142.103C161.212 142.691 160.801 142.883 160.391 142.883C159.982 142.883 159.571 142.691 159.297 142.103C159.227 141.967 158.983 141.388 158.983 140.106C158.983 138.824 159.227 138.288 159.297 138.152C159.571 137.589 159.98 137.385 160.391 137.385ZM166.112 135.47V144.853H173.161V142.609H168.976V141.107H172.341V139.084H168.976V137.689H173.161V135.494L166.112 135.47ZM182.306 135.47H179.433V138.971H177.22V135.494H174.347V144.876H177.22V141.182H179.433V144.876H182.306V135.47ZM183.976 135.47V144.853H186.847V144.138L188.776 140.562C188.935 140.244 189.059 139.909 189.146 139.565C189.081 140.017 189.054 140.475 189.064 140.932V144.844H191.935V135.494H189.055V136.177L187.126 139.775C186.967 140.094 186.843 140.428 186.756 140.773C186.82 140.32 186.848 139.863 186.838 139.405V135.494L183.976 135.47ZM201.686 135.47H196.955C196.285 135.47 195.437 135.553 194.781 135.964C194.206 136.321 193.53 137.071 193.53 138.397C193.53 139.382 193.887 139.985 194.186 140.298C194.52 140.637 194.934 140.887 195.391 141.023L193.312 144.853H196.351L197.96 141.351H198.822V144.853H201.693L201.686 135.47ZM198.814 137.576V139.32H197.502C197.208 139.338 196.917 139.251 196.682 139.073C196.591 138.999 196.518 138.905 196.471 138.798C196.423 138.691 196.402 138.575 196.408 138.458C196.401 138.337 196.422 138.216 196.47 138.105C196.517 137.994 196.59 137.895 196.682 137.816C196.925 137.657 197.212 137.58 197.502 137.596L198.814 137.576ZM206.543 135.47V144.853H209.414V144.138L211.343 140.562C211.502 140.244 211.626 139.909 211.713 139.565C211.647 140.017 211.619 140.475 211.629 140.932V144.844H214.502V135.494H211.629V136.177L209.702 139.775C209.543 140.094 209.419 140.428 209.332 140.773C209.397 140.32 209.424 139.863 209.414 139.405V135.494L206.543 135.47ZM227.331 139.046C227.323 138.074 226.938 137.142 226.259 136.447C225.365 135.531 224.181 135.338 223.305 135.338C222.429 135.338 221.403 135.517 220.461 136.338C219.324 137.335 218.929 138.717 218.929 140.249C218.906 141.129 219.094 142.001 219.476 142.793C219.955 143.723 221.021 144.998 223.305 144.998C224.618 144.998 225.547 144.558 226.191 143.925C226.865 143.253 227.269 142.358 227.326 141.408L224.702 141.243C224.698 141.588 224.608 141.927 224.441 142.228C224.351 142.43 224.202 142.601 224.014 142.718C223.827 142.834 223.609 142.893 223.388 142.884C222.839 142.884 222.494 142.598 222.252 142.064C222.011 141.529 221.991 140.943 221.991 140.178C221.962 139.574 222.036 138.969 222.211 138.39C222.444 137.734 222.799 137.405 223.388 137.405C223.617 137.403 223.842 137.471 224.033 137.598C224.225 137.726 224.373 137.907 224.46 138.12C224.581 138.454 224.641 138.806 224.639 139.16L227.331 139.046ZM227.578 135.47L230.928 142.227C230.854 142.415 230.726 142.576 230.56 142.691C230.364 142.828 230.127 142.896 229.888 142.883C229.501 142.874 229.116 142.825 228.74 142.734V144.826C229.21 144.93 229.689 144.986 230.17 144.992C231.064 144.992 231.855 144.826 232.511 144.098C232.852 143.73 233.126 143.204 233.617 142.101L236.531 135.469H234.002L232.47 139.175H232.443L230.76 135.469L227.578 135.47ZM238.137 135.47V136.817C238.159 137.98 238.071 139.143 237.876 140.29C237.741 141.11 237.469 141.901 237.07 142.629H236.387V146.789H238.984V144.872H242.978V146.789H245.576V142.629H244.755V135.494L238.137 135.47ZM240.352 137.659H241.884V142.609H239.531C239.772 142.059 239.96 141.486 240.093 140.9C240.26 140.081 240.346 139.247 240.352 138.411V137.659ZM250.802 135.335C249.55 135.335 248.626 135.719 247.941 136.279C247.174 136.908 246.332 138.066 246.332 140.163C246.332 141.708 246.783 142.954 247.762 143.884C248.583 144.663 249.55 144.994 250.802 144.994C252.411 144.994 253.453 144.363 254.055 143.719C254.835 142.884 255.273 141.585 255.273 140.163C255.273 138.427 254.658 137.155 253.843 136.409C253.485 136.094 252.53 135.327 250.803 135.327L250.802 135.335ZM250.803 137.38C251.213 137.38 251.624 137.584 251.897 138.147C251.965 138.283 252.212 138.83 252.212 140.101C252.212 141.372 251.965 141.962 251.897 142.098C251.624 142.686 251.213 142.877 250.803 142.877C250.394 142.877 249.983 142.686 249.709 142.098C249.639 141.962 249.395 141.383 249.395 140.101C249.395 138.819 249.639 138.283 249.709 138.147C249.983 137.584 250.392 137.38 250.803 137.38ZM256.524 135.465V144.847H259.397V141.451H260.745C261.743 141.451 263.178 141.354 264.013 140.042C264.301 139.548 264.452 138.987 264.451 138.415C264.451 136.985 263.657 136.28 263.055 135.939C262.193 135.445 261.169 135.46 260.293 135.46L256.524 135.465ZM259.397 139.35V137.516H260.47C260.794 137.49 261.115 137.594 261.364 137.804C261.518 137.982 261.601 138.211 261.596 138.447C261.592 138.688 261.494 138.919 261.323 139.089C261.08 139.273 260.78 139.365 260.475 139.35H259.397ZM265.553 135.465V144.847H272.609V142.604H268.424V141.107H271.788V139.084H268.424V137.689H272.609V135.494L265.553 135.465ZM277.6 135.465H273.785V144.847H276V138.175H276.029L277.861 144.876H279.694L281.473 138.175H281.5V144.876H284.235V135.494H280.411L279.029 140.473H279L277.6 135.465ZM289.952 135.327C288.701 135.327 287.777 135.712 287.092 136.271C286.325 136.901 285.483 138.059 285.483 140.156C285.483 141.701 285.933 142.947 286.913 143.877C287.732 144.656 288.701 144.987 289.952 144.987C291.561 144.987 292.605 144.356 293.206 143.712C293.985 142.877 294.424 141.578 294.424 140.156C294.424 138.42 293.809 137.147 292.993 136.402C292.636 136.087 291.681 135.32 289.954 135.32L289.952 135.327ZM289.954 137.373C290.363 137.373 290.775 137.577 291.048 138.14C291.116 138.276 291.363 138.823 291.363 140.094C291.363 141.365 291.116 141.955 291.048 142.091C290.775 142.679 290.363 142.87 289.954 142.87C289.545 142.87 289.133 142.679 288.86 142.091C288.79 141.955 288.545 141.376 288.545 140.094C288.545 138.812 288.79 138.276 288.86 138.14C289.133 137.577 289.543 137.373 289.954 137.373ZM303.631 135.458H300.759V138.958H298.543V135.494H295.671V144.876H298.543V141.182H300.759V144.876H303.631V135.458ZM304.466 135.458V137.646H306.407V144.84H309.278V137.646H311.222V135.494L304.466 135.458ZM317.171 135.458H314.132L311.22 144.84H313.572L314.132 142.981H316.635L317.153 144.84H320.1L317.171 135.458ZM316.145 140.955H314.613L315.378 138.22L316.145 140.955Z" fill="#004387"/>
<path d="M94.3301 130.803H108.645V123.83H107.297V106.358H102.409V123.818H99.2161V106.358H94.3301V130.803ZM110.197 106.358V130.803H121.46V125.041H115.077V121.234H121.065V115.648H115.085V112.12H121.342V106.358H110.197ZM131.387 114.809H128.123V106.358H123.235V130.803H128.123V121.799H131.387V130.808H136.277V106.358H131.387V114.809ZM137.645 106.358V113.586H141.95V130.803H146.837V113.586H151.141V106.358H137.645ZM152.508 106.358V130.803H157.398V123.748H160.08C164.056 123.748 165.514 119.034 165.514 115.124C165.514 110.654 163.837 106.364 159.988 106.364L152.508 106.358ZM157.269 112.015H158.327C160.187 112.015 160.589 113.624 160.589 115.054C160.589 118.022 158.928 118.093 158.345 118.093H157.273L157.269 112.015ZM172.249 106.358V113.586H176.54V130.803H181.427V113.586H185.731V106.358H172.249ZM187.113 106.358V130.803H198.376V125.041H191.993V121.234H197.975V115.648H191.993V112.12H198.251V106.358H187.113ZM203.56 118.265L199.034 130.803H204.363L206.569 122.527H206.642L208.976 130.803H214.666L210.071 118.265L214.337 106.358H209.176L207.152 113.586H207.079L205.237 106.358H199.584L203.56 118.265ZM223.803 114.809H220.539V106.358H215.651V130.803H220.539V121.799H223.803V130.808H228.691V106.358H223.803V114.809ZM237.353 105.94C232.85 105.94 230.241 110.794 230.241 118.58C230.241 126.365 232.85 131.228 237.353 131.228C241.856 131.228 244.467 126.367 244.467 118.58C244.467 110.792 241.858 105.94 237.353 105.94ZM237.353 111.806C239.196 111.806 239.32 116.03 239.32 118.58C239.32 121.129 239.193 125.355 237.353 125.355C235.513 125.355 235.386 121.129 235.386 118.58C235.386 116.03 235.513 111.806 237.353 111.806ZM254.607 130.803H259.493V106.358H247.944V114.146C247.944 118.719 248.217 124.587 246.358 124.587C245.99 124.559 245.629 124.477 245.285 124.342V130.627C246.062 130.998 246.907 131.203 247.767 131.228C252.143 131.228 252.236 125.041 252.236 117.183V112.993H254.607V130.803ZM268.157 105.94C263.651 105.94 261.045 110.794 261.045 118.58C261.045 126.365 263.651 131.228 268.157 131.228C272.662 131.228 275.27 126.367 275.27 118.58C275.27 110.792 272.662 105.94 268.157 105.94ZM268.157 111.806C269.998 111.806 270.123 116.03 270.123 118.58C270.123 121.129 269.994 125.355 268.157 125.355C266.319 125.355 266.19 121.129 266.19 118.58C266.19 116.03 266.319 111.806 268.157 111.806ZM276.82 106.358V130.803H281.708V113.341H287.27V106.358H276.82ZM289.367 106.358V130.803H295.07L298.299 117.114H298.372V130.803H303.26V106.358H297.55L294.332 120.326H294.258V106.358H289.367ZM305.362 106.358V130.803H311.071L314.289 117.114H314.362V130.803H319.25V106.358H313.541L310.313 120.326H310.241V106.358H305.362Z" fill="#B1B1B1"/>
<path fill-rule="evenodd" clip-rule="evenodd" d="M28.543 90.5737H39.9848C44.7796 97.4853 54.8199 106.934 53.0857 116.211C52.3116 120.36 49.5781 123.381 48.6895 124.366C48.6895 124.366 50.7437 121.168 45.4519 113.931C43.7999 111.4 28.543 90.5737 28.543 90.5737" fill="white"/>
<path d="M28.5436 90.5739V91.1352H39.9854V90.5739L39.5242 90.8939C41.7625 94.1262 45.0806 97.8448 47.8249 101.799C49.1979 103.78 50.4261 105.818 51.3057 107.878C52.1853 109.937 52.7162 111.99 52.7162 114.039C52.7172 114.732 52.6538 115.425 52.5267 116.107C52.1639 117.913 51.4594 119.632 50.4511 121.174C49.8052 122.173 49.0742 123.115 48.2664 123.989L48.683 124.367L49.155 124.671C49.205 124.595 49.6377 123.87 49.6377 122.463C49.6377 120.648 48.9226 117.738 45.8994 113.599L45.4525 113.933L45.9227 113.626C45.7063 113.295 45.288 112.692 44.7105 111.879C40.6773 106.187 28.9977 90.2467 28.9959 90.2467L28.5436 90.5792L28.0895 90.9118C28.0895 90.9118 28.329 91.2371 28.7492 91.8057C30.2205 93.8151 33.9212 98.8764 37.4342 103.711C39.1916 106.128 40.9008 108.488 42.2613 110.381C43.6218 112.274 44.6354 113.708 44.9823 114.239L44.9984 114.264C47.9303 118.272 48.5203 120.95 48.5203 122.463C48.5271 122.892 48.4699 123.32 48.3505 123.732C48.3218 123.827 48.2859 123.92 48.2432 124.009L48.2164 124.064L48.4613 124.211L48.22 124.057L48.4649 124.204L48.2235 124.05C48.1446 124.169 48.114 124.314 48.1378 124.455C48.1616 124.596 48.2381 124.722 48.3517 124.809C48.4654 124.896 48.6078 124.936 48.7499 124.921C48.8921 124.907 49.0235 124.839 49.1174 124.731C49.9673 123.81 50.7365 122.818 51.4165 121.765C52.5025 120.103 53.2605 118.248 53.6495 116.3C53.7899 115.55 53.8599 114.789 53.8586 114.026C53.8586 111.788 53.2794 109.574 52.3569 107.422C50.9714 104.204 48.8135 101.09 46.5949 98.1899C44.3762 95.2901 42.095 92.5994 40.4663 90.2413C40.414 90.167 40.3447 90.1064 40.2642 90.0644C40.1836 90.0224 40.0941 90.0003 40.0033 90H28.5615C28.4578 90.0003 28.3562 90.0292 28.2679 90.0836C28.1796 90.138 28.108 90.2157 28.0611 90.3081C28.0141 90.4005 27.9936 90.5041 28.0018 90.6075C28.0099 90.7109 28.0465 90.81 28.1074 90.8939L28.5436 90.5739Z" fill="#004387"/>
<path fill-rule="evenodd" clip-rule="evenodd" d="M57.8972 94.7698C62.903 101.09 69.2908 108.748 67.882 116.298C67.1061 120.448 64.3744 123.471 63.4841 124.454C63.4841 124.454 65.54 121.256 60.2464 114.021C59.0611 112.204 50.8766 100.97 46.3428 94.7698H57.8972Z" fill="#004387"/>
<path fill-rule="evenodd" clip-rule="evenodd" d="M75.0812 98.6118C79.2646 104.075 83.1799 110.222 82.0536 116.298C81.2777 120.448 78.5459 123.471 77.6556 124.454C77.6556 124.454 79.7116 121.256 74.4179 114.021C73.4507 112.537 67.821 104.785 63.3193 98.6118H75.0812Z" fill="#D1091E"/>
<path fill-rule="evenodd" clip-rule="evenodd" d="M63.4093 124.715C58.6967 128.881 54.4703 132.224 53.7552 137.122C53.3744 139.763 55.4608 144.602 61.7717 144.602H70.3816C67.1422 142.963 66.0355 139.65 66.3323 137.589C66.3991 137.121 66.4976 136.658 66.6273 136.203C63.4236 135.892 60.7419 134.988 60.615 132.733C60.4612 129.996 62.4331 126.14 63.4021 124.715" fill="#004387"/>
<path fill-rule="evenodd" clip-rule="evenodd" d="M77.4968 124.701C72.786 128.865 68.5579 132.21 67.8428 137.106C67.4638 139.749 69.5483 144.588 75.861 144.588H91.2932V136.2C89.7449 136.173 84.9698 136.2 80.9115 136.2C77.622 135.907 74.833 135.011 74.7025 132.709C74.5488 129.973 76.5225 126.117 77.4897 124.694" fill="#D1091E"/>
<path fill-rule="evenodd" clip-rule="evenodd" d="M48.2996 124.889C43.7175 128.938 39.6056 132.186 38.919 136.951C38.549 139.518 40.5763 144.224 46.7138 144.224H55.1682C52.1522 142.6 51.1207 139.463 51.4032 137.496C51.472 137.019 51.5748 136.547 51.7107 136.084C48.4748 135.805 45.7162 134.94 45.5893 132.687C45.4391 130.027 47.3574 126.276 48.2996 124.892" fill="white"/>
<path d="M48.3002 124.889L47.9266 124.467C45.6436 126.487 43.4571 128.319 41.7265 130.28C39.996 132.242 38.7266 134.344 38.3637 136.87C38.331 137.099 38.3149 137.331 38.3154 137.562C38.358 139.316 39.0498 140.992 40.257 142.266C41.6085 143.717 43.745 144.792 46.7145 144.787H55.1689C55.2943 144.787 55.4161 144.746 55.5152 144.669C55.6142 144.592 55.6846 144.484 55.7153 144.362C55.7459 144.241 55.735 144.113 55.6843 143.998C55.6335 143.883 55.5459 143.789 55.4353 143.73C54.3059 143.13 53.3712 142.22 52.7411 141.107C52.2241 140.209 51.9424 139.195 51.9223 138.159C51.9214 137.967 51.934 137.776 51.9598 137.585C52.0252 137.134 52.1226 136.688 52.2512 136.25C52.274 136.17 52.2789 136.086 52.2657 136.004C52.2524 135.921 52.2212 135.843 52.1744 135.774C52.1276 135.706 52.0661 135.648 51.9944 135.607C51.9226 135.565 51.8424 135.54 51.7596 135.533C50.1774 135.399 48.7311 135.113 47.7281 134.627C47.2879 134.433 46.8959 134.144 46.5804 133.781C46.3188 133.464 46.1681 133.071 46.1513 132.66C46.1513 132.572 46.1513 132.481 46.1513 132.388C46.1513 131.199 46.575 129.707 47.1274 128.368C47.5745 127.267 48.1246 126.211 48.7704 125.214C48.8458 125.101 48.8776 124.964 48.8599 124.829C48.8422 124.694 48.7762 124.57 48.6741 124.48C48.5721 124.39 48.4408 124.34 48.3047 124.339C48.1686 124.338 48.0368 124.387 47.9337 124.476L48.3074 124.897L47.8426 124.581C47.1519 125.642 46.5646 126.767 46.0887 127.94C45.5077 129.36 45.0304 130.946 45.0268 132.388C45.0268 132.501 45.0268 132.614 45.0357 132.723C45.0671 133.369 45.3052 133.988 45.7151 134.489C46.3122 135.22 47.1972 135.69 48.218 136.025C49.3415 136.36 50.4987 136.571 51.6684 136.652L51.7167 136.093L51.1804 135.935C51.0372 136.424 50.9291 136.922 50.8568 137.426C50.8225 137.669 50.8058 137.914 50.8067 138.159C50.8278 139.389 51.1593 140.593 51.7703 141.66C52.5036 142.961 53.5935 144.025 54.9115 144.728L55.1779 144.232V143.671H46.7145C44.0095 143.671 42.2253 142.727 41.0776 141.506C39.9298 140.285 39.4364 138.74 39.44 137.573C39.4391 137.393 39.4511 137.214 39.4757 137.037C39.7993 134.798 40.922 132.9 42.5704 131.028C44.2187 129.156 46.3748 127.345 48.6721 125.307L48.3002 124.887L47.8354 124.57L48.3002 124.889Z" fill="#004387"/>
<path d="M172.864 103.044L174.461 98.8906H175.053L176.753 103.044H176.125L175.641 101.792H173.905L173.449 103.044H172.864ZM174.062 101.338H175.467L175.035 100.189C174.902 99.8393 174.804 99.552 174.74 99.3268C174.686 99.5969 174.612 99.8624 174.516 100.121L174.062 101.338ZM180.57 98.8906H181.118V100.703C181.309 100.724 181.5 100.672 181.655 100.559C181.823 100.348 181.955 100.11 182.046 99.856C182.125 99.6564 182.22 99.4638 182.331 99.2803C182.412 99.1619 182.522 99.065 182.649 98.9978C182.789 98.9204 182.946 98.8804 183.106 98.8816C183.317 98.8816 183.428 98.8816 183.441 98.8816V99.359H183.33H183.219C183.149 99.3535 183.078 99.3621 183.011 99.3842C182.943 99.4063 182.881 99.4415 182.828 99.4877C182.698 99.6475 182.597 99.8291 182.531 100.024C182.452 100.265 182.331 100.49 182.173 100.689C182.073 100.783 181.956 100.858 181.828 100.909C182.095 100.983 182.359 101.23 182.62 101.649L183.477 103.033H182.797L182.104 101.905C181.972 101.671 181.811 101.456 181.624 101.263C181.487 101.142 181.309 101.078 181.126 101.084V103.028H180.577L180.57 98.8906ZM187.311 98.8906H187.862V102.554H190.025V98.8906H190.579V102.554H190.958V104.197H190.47V103.044H187.311V98.8906ZM194.979 98.8906H195.476V102.18L197.686 98.8906H198.24V103.044H197.741V99.763L195.528 103.044H194.979V98.8906ZM202.343 101.022C202.343 100.332 202.528 99.7916 202.899 99.4019C203.083 99.209 203.305 99.0572 203.552 98.9564C203.798 98.8556 204.063 98.8082 204.329 98.8173C204.693 98.812 205.052 98.9066 205.366 99.0908C205.672 99.2709 205.917 99.5379 206.071 99.8578C206.237 100.206 206.32 100.588 206.312 100.973C206.32 101.365 206.233 101.753 206.058 102.103C205.902 102.422 205.653 102.685 205.343 102.858C205.035 103.029 204.687 103.117 204.335 103.115C203.965 103.121 203.601 103.022 203.285 102.831C202.982 102.647 202.739 102.377 202.586 102.057C202.428 101.735 202.347 101.38 202.348 101.022H202.343ZM202.915 101.022C202.891 101.453 203.035 101.878 203.317 102.205C203.449 102.342 203.607 102.452 203.782 102.526C203.956 102.601 204.145 102.639 204.335 102.639C204.525 102.639 204.713 102.601 204.888 102.526C205.063 102.452 205.22 102.342 205.352 102.205C205.62 101.913 205.754 101.5 205.754 100.966C205.76 100.659 205.699 100.354 205.575 100.072C205.47 99.8317 205.296 99.6277 205.075 99.4859C204.853 99.3463 204.595 99.2737 204.333 99.2767C204.147 99.2739 203.963 99.3081 203.79 99.3771C203.618 99.4462 203.461 99.5488 203.328 99.679C203.047 99.9454 202.908 100.394 202.908 101.016L202.915 101.022ZM210.417 103.031V98.8906H210.967V100.596H213.125V98.8906H213.676V103.044H213.125V101.077H210.967V103.044L210.417 103.031ZM217.97 103.031V98.8906H220.974V99.3804H218.521V100.652H220.818V101.14H218.521V102.554H221.056V103.044L217.97 103.031ZM225.198 103.031V98.8906H226.764C226.975 98.8857 227.186 98.8989 227.395 98.9299C227.579 98.9553 227.755 99.0219 227.91 99.1248C228.054 99.2276 228.168 99.3655 228.243 99.5252C228.328 99.7019 228.371 99.8959 228.368 100.092C228.375 100.422 228.254 100.742 228.032 100.986C227.807 101.229 227.401 101.343 226.814 101.343H225.742V103.031H225.198ZM225.747 100.854H226.82C227.177 100.854 227.428 100.787 227.576 100.653C227.651 100.582 227.71 100.495 227.749 100.399C227.788 100.303 227.805 100.199 227.799 100.096C227.804 99.9371 227.758 99.7812 227.669 99.6504C227.583 99.528 227.456 99.4404 227.311 99.4037C227.143 99.3739 226.971 99.3619 226.8 99.3679H225.727L225.747 100.854ZM232.455 103.031V98.8906H233.004V100.596H235.163V98.8906H235.712V103.044H235.163V101.077H233.004V103.044L232.455 103.031ZM239.828 101.022C239.828 100.332 240.013 99.7916 240.384 99.4019C240.567 99.2091 240.79 99.0573 241.036 98.9566C241.283 98.8558 241.548 98.8083 241.814 98.8173C242.178 98.8125 242.536 98.907 242.851 99.0908C243.155 99.2721 243.4 99.5388 243.555 99.8578C243.72 100.206 243.803 100.588 243.796 100.973C243.803 101.365 243.715 101.752 243.541 102.103C243.385 102.422 243.136 102.685 242.826 102.858C242.517 103.029 242.17 103.117 241.817 103.115C241.448 103.121 241.085 103.023 240.77 102.831C240.465 102.647 240.222 102.378 240.069 102.057C239.911 101.735 239.829 101.38 239.831 101.022H239.828ZM240.398 101.022C240.374 101.454 240.519 101.878 240.802 102.205C240.933 102.342 241.091 102.452 241.266 102.526C241.441 102.601 241.629 102.639 241.819 102.639C242.009 102.639 242.197 102.601 242.372 102.526C242.547 102.452 242.705 102.342 242.836 102.205C243.102 101.913 243.236 101.5 243.237 100.966C243.243 100.659 243.182 100.354 243.058 100.072C242.953 99.8317 242.779 99.6277 242.558 99.4859C242.336 99.346 242.078 99.2734 241.816 99.2767C241.63 99.274 241.445 99.3082 241.273 99.3772C241.101 99.4463 240.943 99.5489 240.811 99.679C240.532 99.9454 240.391 100.394 240.391 101.016L240.398 101.022ZM247.885 103.031V98.8906H250.889V99.3804H248.434V100.652H250.733V101.14H248.436V102.554H250.987V103.044L247.885 103.031ZM262.861 101.009C262.861 100.319 263.046 99.7791 263.416 99.3894C263.599 99.1967 263.822 99.0451 264.068 98.9444C264.315 98.8436 264.58 98.796 264.846 98.8048C265.209 98.7996 265.567 98.8942 265.881 99.0783C266.186 99.2591 266.431 99.5259 266.585 99.8452C266.751 100.194 266.833 100.575 266.827 100.961C266.835 101.352 266.747 101.74 266.573 102.091C266.417 102.409 266.168 102.673 265.858 102.845C265.549 103.016 265.202 103.104 264.849 103.103C264.48 103.108 264.116 103.01 263.8 102.818C263.496 102.634 263.254 102.365 263.101 102.044C262.943 101.722 262.862 101.368 262.863 101.009H262.861ZM263.43 101.009C263.405 101.441 263.55 101.865 263.832 102.193C263.964 102.33 264.122 102.439 264.296 102.514C264.471 102.588 264.659 102.627 264.849 102.627C265.04 102.627 265.228 102.588 265.402 102.514C265.577 102.439 265.735 102.33 265.867 102.193C266.135 101.901 266.269 101.488 266.269 100.954C266.275 100.646 266.214 100.341 266.09 100.06C265.985 99.8184 265.81 99.614 265.588 99.4734C265.367 99.3335 265.109 99.2609 264.848 99.2642C264.662 99.2614 264.477 99.2955 264.305 99.3646C264.133 99.4336 263.975 99.5363 263.843 99.6665C263.562 99.9329 263.423 100.382 263.423 101.004L263.43 101.009ZM270.932 98.8584H273.624V99.3482H271.479V100.628H272.471C272.766 100.619 273.061 100.655 273.345 100.734C273.558 100.802 273.741 100.941 273.863 101.129C273.996 101.329 274.065 101.565 274.06 101.805C274.06 102.009 274.012 102.21 273.921 102.393C273.824 102.577 273.679 102.731 273.501 102.838C273.316 102.957 273.001 103.017 272.555 103.017H270.935L270.932 98.8584ZM271.48 102.545H272.58C272.816 102.563 273.051 102.5 273.247 102.366C273.322 102.299 273.381 102.217 273.42 102.124C273.458 102.031 273.475 101.93 273.468 101.83C273.475 101.676 273.43 101.525 273.341 101.399C273.254 101.281 273.127 101.2 272.984 101.17C272.729 101.123 272.469 101.104 272.21 101.113H271.477L271.48 102.545ZM278.095 98.8584H278.644V102.522H280.024V98.8906H280.573V102.554H281.953V98.8906H282.504V102.554H282.879V104.197H282.389V103.044H278.099L278.095 98.8584ZM286.907 103.011V98.8906H289.909V99.3804H287.456V100.652H289.753V101.14H287.456V102.554H290.005V103.044L286.907 103.011ZM297.098 101.556L297.646 101.694C297.561 102.098 297.342 102.462 297.026 102.727C296.713 102.97 296.325 103.096 295.928 103.085C295.545 103.101 295.166 103.006 294.836 102.811C294.547 102.619 294.323 102.342 294.196 102.019C294.048 101.667 293.973 101.288 293.976 100.905C293.967 100.514 294.051 100.126 294.223 99.7737C294.38 99.4615 294.63 99.205 294.938 99.039C295.247 98.8715 295.593 98.7853 295.944 98.7887C296.32 98.7758 296.689 98.8877 296.994 99.1069C297.286 99.3303 297.494 99.645 297.586 100.001L297.049 100.13C296.982 99.8709 296.836 99.6397 296.631 99.468C296.43 99.3238 296.186 99.2509 295.939 99.2606C295.654 99.2506 295.374 99.3314 295.138 99.4913C294.925 99.6425 294.767 99.859 294.688 100.108C294.6 100.364 294.556 100.633 294.557 100.904C294.55 101.219 294.602 101.533 294.711 101.83C294.799 102.075 294.969 102.284 295.192 102.42C295.407 102.552 295.655 102.62 295.907 102.616C296.19 102.624 296.467 102.53 296.686 102.35C296.917 102.144 297.07 101.865 297.121 101.56L297.098 101.556ZM302.581 103.015V99.3804H301.213V98.8906H304.504V99.3804H303.115V103.044L302.581 103.015ZM308.414 103.015V98.8906H309.973C310.233 98.8813 310.493 98.9239 310.737 99.0157C310.923 99.0961 311.081 99.2322 311.187 99.4054C311.293 99.5683 311.35 99.7582 311.352 99.9525C311.352 100.131 311.301 100.305 311.205 100.455C311.099 100.62 310.947 100.752 310.769 100.834C310.998 100.893 311.201 101.026 311.348 101.211C311.485 101.392 311.557 101.614 311.552 101.84C311.552 102.026 311.509 102.21 311.427 102.377C311.358 102.529 311.254 102.662 311.123 102.765C310.986 102.862 310.832 102.931 310.669 102.969C310.449 103.019 310.224 103.043 309.998 103.038L308.414 103.015ZM308.965 100.607H309.859C310.035 100.614 310.212 100.598 310.384 100.559C310.51 100.527 310.621 100.454 310.699 100.351C310.772 100.246 310.809 100.121 310.806 99.9936C310.807 99.8674 310.772 99.7435 310.706 99.6361C310.642 99.5321 310.541 99.4557 310.424 99.4215C310.216 99.3732 310.004 99.3534 309.791 99.3625H308.961L308.965 100.607ZM308.965 102.525H309.998C310.124 102.528 310.249 102.521 310.374 102.505C310.485 102.487 310.593 102.449 310.69 102.391C310.779 102.335 310.852 102.255 310.899 102.16C310.956 102.053 310.984 101.933 310.982 101.812C310.985 101.668 310.944 101.527 310.864 101.408C310.783 101.293 310.667 101.208 310.533 101.166C310.335 101.114 310.13 101.091 309.925 101.098H308.965V102.525ZM315.317 100.993C315.317 100.303 315.502 99.763 315.873 99.3733C316.057 99.1805 316.279 99.0287 316.525 98.9279C316.772 98.8272 317.037 98.7797 317.303 98.7887C317.667 98.7836 318.026 98.8782 318.34 99.0622C318.645 99.2435 318.89 99.5102 319.044 99.8292C319.21 100.177 319.292 100.559 319.286 100.945C319.293 101.336 319.205 101.724 319.03 102.075C318.875 102.393 318.625 102.657 318.315 102.829C318.006 103 317.658 103.088 317.305 103.087C316.936 103.093 316.573 102.994 316.257 102.802C315.953 102.619 315.71 102.349 315.558 102.028C315.4 101.706 315.318 101.352 315.319 100.993H315.317ZM315.885 100.993C315.861 101.425 316.006 101.849 316.289 102.177C316.421 102.314 316.579 102.423 316.754 102.498C316.929 102.572 317.117 102.611 317.307 102.611C317.497 102.611 317.685 102.572 317.86 102.498C318.035 102.423 318.192 102.314 318.324 102.177C318.59 101.885 318.723 101.472 318.724 100.938C318.73 100.63 318.669 100.325 318.546 100.044C318.44 99.8031 318.266 99.5991 318.045 99.4573C317.823 99.3174 317.565 99.2448 317.303 99.2481C317.117 99.2453 316.933 99.2794 316.76 99.3485C316.588 99.4176 316.431 99.5202 316.298 99.6504C316.018 99.9168 315.878 100.365 315.878 100.988" fill="#004387"/>
</svg>
