<svg width="349" height="236" viewBox="0 0 349 236" fill="none" xmlns="http://www.w3.org/2000/svg">
<rect y="0.969971" width="349" height="234.06" fill="white"/>
<g clip-path="url(#clip0)">
<path d="M79.4649 153.58C79.9056 153.056 80.3163 152.25 82.55 151.712C82.55 151.712 158.287 126.339 259.046 131.414C259.046 131.414 264.765 131.206 263.215 133.674C262.303 135.122 260.61 135.213 257.375 135.377C257.375 135.377 256.277 135.545 251.992 135.5C251.992 135.5 262.293 139.452 221.623 138.624C221.623 138.624 225.215 142.24 210.256 141.192C210.256 141.192 168.546 139.321 84.2449 154.396C84.2449 154.396 77.6158 155.808 79.4749 153.578" fill="#164493"/>
<path d="M165.012 71.5074C165.012 71.5074 160.004 65.2734 160.847 72.4638C160.847 72.4638 161.532 87.467 159.02 106.136C158.715 105.356 158.312 104.617 157.818 103.938C157.818 103.938 153.449 98.1903 148.544 99.7889C148.544 99.7889 142.29 101.731 138.666 111.042C138.666 111.042 136.108 117.479 136.835 122.328C136.835 122.328 136.594 135.059 152.309 126.063C153.618 125.214 154.827 124.225 155.915 123.113C155.538 124.703 154.913 125.747 154.863 127.381C154.863 127.381 154.298 130.74 155.865 131.585C156.466 131.91 157.101 131.465 158.485 128.195C158.485 128.195 169.656 99.9252 170.253 88.2573C170.253 88.2573 174.177 82.4659 165.016 71.5114L165.012 71.5074ZM145.541 122.384C145.541 122.384 144.385 121.627 144.46 118.212C144.46 118.212 144.782 112.285 148.867 107.529C148.867 107.529 150.003 106.106 150.932 105.928C151.241 105.873 151.734 106.323 151.98 108.135C152.036 108.578 150.734 108.671 151.209 110.089C151.209 110.089 153.387 115.517 157.964 113.069C157.764 114.183 157.564 115.3 157.349 116.428C154.961 119.692 149.949 125.344 145.529 122.382L145.541 122.384ZM203.605 99.4253C203.605 99.4253 212.686 108.963 212.311 115.576C212.311 115.576 211.075 124.772 195.641 124.456C195.641 124.456 191.835 123.895 195.577 121.481C195.577 121.481 205.608 118.28 199.037 106.388C199.037 106.388 192.827 113.581 188.716 117.564L188.742 117.596C176.988 128.908 174.67 124.755 174.67 124.755C170.193 118.432 173.468 104.612 173.468 104.612C175.207 97.3012 179.044 99.8817 179.044 99.8817C184.653 100.781 182.551 105.563 182.551 105.563C181.84 109.238 180.931 108.831 180.931 108.831C179.202 110.214 178.833 116.26 178.833 116.26C179.528 119.601 176.521 124.245 185.222 116.792C187.291 114.749 197.719 103.17 199.378 98.6132C199.378 98.6132 201.117 94.1733 203.599 99.4253H203.605ZM190.13 85.3053C190.073 85.9619 189.865 86.597 189.521 87.162C189.178 87.7271 188.707 88.2072 188.147 88.5656C186.636 89.6859 183.515 91.6046 182.511 91.3457C181.508 91.0869 182.642 87.9076 182.696 87.0165C182.756 86.0107 182.754 85.2757 182.962 84.349C183.289 82.1755 185.044 80.6164 186.969 80.816C188.96 81.0255 190.375 83.035 190.124 85.3053H190.13ZM254.209 97.6469C256.902 94.1377 258.785 95.7244 258.785 95.7244C259.042 95.8666 259.586 95.6967 259.801 95.6789C263.373 95.4141 260.44 98.876 260.44 98.876C257.435 102.913 254.702 110.455 254.702 110.455C254.015 112.164 253.348 114.913 253.348 114.913C252.258 119.491 257.154 116.252 257.154 116.252C257.854 115.762 258.495 115.067 258.827 114.762C259.108 114.472 259.47 114.269 259.867 114.181C260.889 114.039 259.152 108.795 259.152 108.795C258.413 106.722 258.551 106.622 258.551 106.622C258.072 104.075 259.508 103.423 259.508 103.423C261.037 102.5 262.267 104.912 262.267 104.912C263.639 106.963 264.851 112.372 264.851 112.372C266.015 117.159 262.377 116.786 262.377 116.786C260.865 117.08 258.284 119.611 258.284 119.611C254.278 122.887 248.668 123.21 248.668 123.21C243.105 123.407 243.552 118.57 243.552 118.57C243.506 113.344 254.22 97.639 254.22 97.639L254.209 97.6469ZM231.844 104.527C234.41 106.305 238.707 110.208 237.998 114.29C237.998 114.29 236.762 123.49 221.328 123.182C221.328 123.182 219.65 123.091 219.614 122.065C219.614 121.307 219.936 120.702 221.262 120.198C221.262 120.198 231.297 117.003 224.724 105.11C224.724 105.11 222.244 107.003 218.76 109.668C218.76 109.668 216.328 112.31 216.504 108.556C216.504 108.556 216.715 106.479 217.618 105.681C217.618 105.681 223.228 102.423 225.075 97.3328C226.004 93.9737 230.993 91.1323 231.485 93.9618C231.7 95.2343 230.215 96.0326 229.482 96.9257C227.813 98.9906 229.957 103.342 231.852 104.521L231.844 104.527ZM132.391 122.885C132.364 122.763 132.3 122.652 132.207 122.567C131.792 122.285 129.749 123.192 127.728 124.393C127.405 124.591 127.111 124.747 126.844 124.897C126.238 125.249 125.654 125.635 125.093 126.053C125.093 126.053 123.793 127.076 123.935 124.774C123.935 124.745 123.935 124.717 123.935 124.686C123.959 124.174 124.055 123.522 124.089 122.826C124.089 122.826 125.878 115.79 126.65 113.82C126.65 113.82 127.074 111.966 127.738 109.852C127.738 109.852 130.779 106.732 125.193 105.721C125.193 105.721 122.519 99.2494 119.648 109.447C119.448 108.394 118.474 106.78 116.968 106.141C116.56 105.933 116.112 105.816 115.653 105.798C115.365 105.805 115.076 105.796 114.788 105.77C114.788 105.77 112.111 104.859 109.243 108.394C106.191 111.708 97.2906 122.226 99.324 131.046C99.324 131.046 100.424 135.606 104.533 135.591C104.533 135.591 109.968 135.65 114.077 131.809C114.993 130.984 115.846 130.093 116.629 129.143C116.679 129.725 116.777 130.302 116.923 130.868C116.949 130.987 116.976 131.099 117.006 131.208C117.141 131.896 117.491 132.524 118.007 133.006C118.634 133.573 119.636 134.006 121.241 133.797C121.409 133.764 121.576 133.722 121.74 133.672C121.74 133.672 127.493 132.299 127.349 129.886C127.279 128.701 127.718 128.458 127.718 128.458C127.822 128.396 127.903 128.302 127.946 128.189C127.989 128.077 127.992 127.953 127.954 127.839C127.954 127.839 132.542 124.816 132.387 122.899L132.391 122.885ZM115.804 126.258C115.329 127.009 114.874 127.857 113.652 128.629C113.652 128.629 107.357 132.429 107.576 127.063C107.749 125.109 108.167 123.184 108.822 121.332C108.822 121.332 111.721 114.069 116.212 109.832C116.627 109.421 116.984 109.382 117.214 109.69C117.841 110.538 117.949 111.5 118.416 112.289C118.54 112.498 118.676 112.713 118.817 112.921C118.282 115.644 116.901 120.811 116.671 124.721C116.497 125.259 116.104 125.76 115.786 126.266L115.804 126.258ZM71.904 96.8012C73.1161 98.9748 71.5034 102.429 71.5034 102.429C64.5257 116.509 55.8031 149.75 54.0541 156.528H54.0942C54.0942 156.528 54.0501 156.632 53.984 156.822L53.7456 157.761C53.6274 158.262 53.5052 158.709 53.385 159.132C53.1524 160.402 53.0497 161.692 53.0785 162.983H53.0585C53.1125 164.783 53.0364 166.625 52.4855 166.874C50.9189 167.581 50.1075 165.508 49.6808 163.254C48.1442 162.904 46.8761 160.936 46.8761 160.936C41.2206 157.199 45.4497 146.81 45.4497 146.81C49.2901 131.747 68.322 100.018 68.322 100.018C70.5498 96.4614 71.4773 96.0484 71.896 96.8032L71.904 96.8012ZM100.841 150.009C103.858 154.158 106.167 157.097 105.534 157.638C103.483 159.403 94.2395 152.275 94.2395 152.275C78.1545 139.126 71.0486 122.36 69.492 118.289C69.2636 117.697 69.7204 117.161 69.7204 117.161C70.2673 116.568 71.1407 116.229 73.4727 115.976H73.4827C72.2526 115.395 71.87 115.241 71.9741 114.838C72.2085 114.181 74.4643 114.199 74.4643 114.199C76.2393 114.12 77.5295 114.002 77.5295 114.002C80.1338 113.729 81.46 113.49 81.46 113.49C87.0133 112.615 89.187 110.236 89.187 110.236C94.6782 104.752 85.8574 99.2534 85.8574 99.2534C63.514 86.5818 45.5138 92.5866 45.5138 92.5866C44.5979 92.8756 43.6102 92.8526 42.7091 92.5214C40.3612 91.7488 44.5282 88.4767 44.5282 88.4767C55.6167 79.421 61.4325 82.132 61.4325 82.132C82.9646 83.5428 92.4404 94.6475 92.4404 94.6475C99.943 102.478 97.9977 108.722 96.9921 110.538C93.3199 117.163 84.6213 117.329 84.6213 117.329C83.2631 117.404 82.0771 117.442 81.0273 117.444C82.029 118.564 82.7622 120.532 82.7622 120.532C84.431 125.693 100.833 149.999 100.833 149.999L100.841 150.009ZM302.514 119.605C302.514 119.605 314.31 129.197 299.68 128.71C299.68 128.71 296.833 128.922 295.09 123.144C295.09 123.144 290.064 111.814 290.428 107.534C289.929 108.084 287.147 111.393 285.554 115.043C284.861 116.753 283.988 118.386 282.95 119.916C282.222 120.929 281.533 121.844 280.888 122.435C274.423 128.341 273.798 120.795 273.798 120.795C272.462 114.363 275.802 104.041 275.802 104.041C278.228 96.9159 281.812 99.8501 281.812 99.8501C286.768 101.123 284.761 105.831 284.761 105.831C283.705 109.425 282.757 108.645 282.757 108.645C281.533 109.435 281.199 111.16 281.113 112.249C281.113 112.249 280.648 116.236 282.459 113.184C283.817 110.455 286.466 105.912 288.369 104.462C288.369 104.462 291.189 101.498 292.84 103.94C292.84 103.94 299.95 118.037 302.524 119.599" fill="#2E2014"/>
<path d="M270.06 132.001C273.14 132.198 276.603 132.23 281.403 132.688C283.896 132.927 287.74 132.927 288.289 134.522C288.786 135.986 286.907 137.486 283.555 138.13C281.856 138.456 280.788 138.723 279.252 138.679C277.449 138.618 273.56 138.754 273.442 136.691C273.358 135.405 270.826 135.417 269.131 135.35C265.741 135.217 266.09 134.271 266.827 133.133C267.27 132.437 268.197 131.983 270.054 132.001" fill="#164493"/>
</g>
<defs>
<clipPath id="clip0">
<rect width="265" height="98" fill="white" transform="translate(42 69)"/>
</clipPath>
</defs>
</svg>
