<svg width="16" height="16" viewBox="0 0 16 16" fill="none" xmlns="http://www.w3.org/2000/svg">
<g clip-path="url(#clip0)">
<path d="M5.10396 12.4451C4.18142 12.4451 3.43359 13.1929 3.43359 14.1154C3.43359 15.038 4.18146 15.7858 5.10396 15.7858C6.02651 15.7858 6.77433 15.0379 6.77433 14.1154C6.77437 13.1929 6.02651 12.4451 5.10396 12.4451ZM5.10396 15.0435C4.59145 15.0435 4.17599 14.628 4.17599 14.1155C4.17599 13.603 4.59145 13.1875 5.10396 13.1875C5.61648 13.1875 6.03194 13.603 6.03194 14.1155C6.03198 14.628 5.61648 15.0435 5.10396 15.0435Z" fill="white"/>
<path d="M12.1567 12.4451C11.2342 12.4451 10.4863 13.1929 10.4863 14.1154C10.4863 15.038 11.2342 15.7858 12.1567 15.7858C13.0792 15.7858 13.8271 15.0379 13.8271 14.1154C13.8271 13.1929 13.0792 12.4451 12.1567 12.4451ZM12.1567 15.0435C11.6442 15.0435 11.2287 14.628 11.2287 14.1155C11.2287 13.603 11.6442 13.1875 12.1567 13.1875C12.6692 13.1875 13.0847 13.603 13.0847 14.1155C13.0847 14.628 12.6692 15.0435 12.1567 15.0435Z" fill="white"/>
<path d="M15.9244 2.70116C15.8471 2.61672 15.7413 2.56386 15.6274 2.55267L3.54494 2.38563L3.21087 1.36483C2.97552 0.682433 2.3365 0.221749 1.61471 0.214111H0.371198C0.166185 0.214111 0 0.380296 0 0.585309C0 0.790322 0.166185 0.956506 0.371198 0.956506H1.61471C2.0183 0.965423 2.37369 1.22458 2.5056 1.60611L4.8627 8.71453L4.67712 9.14139C4.47011 9.67519 4.53228 10.276 4.84415 10.7561C5.15304 11.2277 5.6727 11.5187 6.23615 11.5356H13.456C13.661 11.5356 13.8272 11.3694 13.8272 11.1644C13.8272 10.9594 13.661 10.7932 13.456 10.7932H6.23612C5.91792 10.7853 5.62502 10.6179 5.4566 10.3478C5.29006 10.081 5.25585 9.75231 5.36381 9.45689L5.5123 9.12282L13.326 8.30617C14.1843 8.21164 14.8903 7.5874 15.0892 6.74714L15.9801 3.01662C16.0202 2.90919 15.9989 2.78837 15.9244 2.70116ZM14.3654 6.58014C14.2449 7.12103 13.7856 7.52001 13.2332 7.56381L5.5123 8.36188L3.78623 3.12802L15.1634 3.29506L14.3654 6.58014Z" fill="white"/>
</g>
<defs>
<clipPath id="clip0">
<rect width="16" height="16" fill="white"/>
</clipPath>
</defs>
</svg>
