<svg width="24" height="24" viewBox="0 0 24 24" fill="none" xmlns="http://www.w3.org/2000/svg">
<g clip-path="url(#clip0)">
<path d="M22.7691 4H1.23067C0.553706 4 -0.00012207 4.55383 -0.00012207 5.23075V18.7692C-0.00012207 19.4461 0.553706 20 1.23067 20H22.7691C23.446 20 23.9999 19.4462 23.9999 18.7692V5.23075C23.9999 4.55383 23.4461 4 22.7691 4ZM22.3072 4.92302L12.7079 12.1231C12.5353 12.2545 12.2703 12.3366 11.9998 12.3354C11.7294 12.3366 11.4645 12.2545 11.2918 12.1231L1.69249 4.92302H22.3072ZM17.1796 12.5982L22.4103 19.0598C22.4156 19.0662 22.422 19.0712 22.4276 19.077H1.57216C1.57769 19.0709 1.58416 19.0662 1.58941 19.0598L6.82019 12.5982C6.98046 12.4 6.95008 12.1096 6.75156 11.9489C6.55342 11.7887 6.26294 11.819 6.10263 12.0172L0.92294 18.4157V5.49995L10.7383 12.8615C11.1072 13.1363 11.5561 13.2572 11.9998 13.2584C12.4428 13.2575 12.8921 13.1365 13.2613 12.8615L23.0766 5.49995V18.4156L17.8971 12.0172C17.7368 11.8191 17.446 11.7886 17.2481 11.9489C17.0497 12.1092 17.0192 12.4 17.1796 12.5982Z" fill="#255FAF"/>
</g>
<defs>
<clipPath id="clip0">
<rect width="24" height="24" fill="white" transform="translate(-0.00012207)"/>
</clipPath>
</defs>
</svg>
