<svg width="25" height="25" viewBox="0 0 25 25" fill="none" xmlns="http://www.w3.org/2000/svg">
<path d="M24.2929 7.4782C24.2361 6.30742 24.0276 5.50252 23.729 4.80507C23.4209 4.06473 22.947 3.40192 22.326 2.85091C21.7193 2.29134 20.9846 1.85652 20.1789 1.5811C19.4065 1.30989 18.5248 1.12056 17.2357 1.06894C15.9369 1.01295 15.5246 1 12.2305 1C8.93641 1 8.5241 1.01295 7.23013 1.06457C5.94098 1.11619 5.05469 1.30568 4.2869 1.57673C3.47153 1.85652 2.7417 2.28696 2.13498 2.85091C1.51883 3.40192 1.04023 4.06911 0.736779 4.80086C0.438143 5.50252 0.229672 6.30305 0.172833 7.47383C0.11118 8.65335 0.0969238 9.0278 0.0969238 12.0194C0.0969238 15.011 0.11118 15.3854 0.168019 16.5606C0.224858 17.7314 0.433515 18.5363 0.732151 19.2337C1.04023 19.974 1.51883 20.6369 2.13498 21.1879C2.7417 21.7474 3.47635 22.1823 4.28209 22.4577C5.05469 22.7289 5.93616 22.9182 7.2255 22.9698C8.51928 23.0216 8.93178 23.0344 12.2259 23.0344C15.5199 23.0344 15.9322 23.0216 17.2262 22.9698C18.5154 22.9182 19.4016 22.7289 20.1694 22.4577C21.8 21.8852 23.0891 20.7144 23.7196 19.2337C24.018 18.5321 24.2267 17.7314 24.2835 16.5606C24.3403 15.3854 24.3546 15.011 24.3546 12.0194C24.3546 9.0278 24.3498 8.65335 24.2929 7.4782ZM22.1081 16.4745C22.0559 17.5506 21.8568 18.1317 21.6909 18.5191C21.2833 19.479 20.4444 20.2409 19.3874 20.6111C18.9608 20.7618 18.3163 20.9426 17.136 20.9898C15.8563 21.0416 15.4725 21.0544 12.2353 21.0544C8.99806 21.0544 8.60945 21.0416 7.33437 20.9898C6.14945 20.9426 5.50959 20.7618 5.08302 20.6111C4.55703 20.4346 4.07825 20.1548 3.68963 19.7889C3.28676 19.4316 2.97868 19.0012 2.78428 18.5235C2.61839 18.1361 2.41936 17.5506 2.36734 16.4789C2.31031 15.3167 2.29624 14.9679 2.29624 12.028C2.29624 9.08799 2.31031 8.73506 2.36734 7.57723C2.41936 6.50112 2.61839 5.92002 2.78428 5.53262C2.97868 5.05476 3.28676 4.62011 3.69445 4.26701C4.08769 3.90113 4.56166 3.62134 5.08784 3.44496C5.51441 3.29431 6.15907 3.11355 7.33918 3.06614C8.61889 3.01452 9.00288 3.00157 12.2399 3.00157C15.482 3.00157 15.8658 3.01452 17.1409 3.06614C18.3258 3.11355 18.9656 3.29431 19.3922 3.44496C19.9182 3.62134 20.397 3.90113 20.7856 4.26701C21.1885 4.62431 21.4965 5.05476 21.6909 5.53262C21.8568 5.92002 22.0559 6.50532 22.1081 7.57723C22.1649 8.73943 22.1792 9.08799 22.1792 12.028C22.1792 14.9679 22.1649 15.3123 22.1081 16.4745Z" fill="white"/>
<path d="M12.2307 6.35889C8.78983 6.35889 5.99805 8.89414 5.99805 12.0192C5.99805 15.1443 8.78983 17.6796 12.2307 17.6796C15.6718 17.6796 18.4634 15.1443 18.4634 12.0192C18.4634 8.89414 15.6718 6.35889 12.2307 6.35889ZM12.2307 15.691C9.99845 15.691 8.18774 14.0467 8.18774 12.0192C8.18774 9.99178 9.99845 8.34751 12.2307 8.34751C14.4632 8.34751 16.2737 9.99178 16.2737 12.0192C16.2737 14.0467 14.4632 15.691 12.2307 15.691V15.691Z" fill="white"/>
<path d="M20.1652 6.1354C20.1652 6.86514 19.5136 7.45684 18.7099 7.45684C17.9064 7.45684 17.2549 6.86514 17.2549 6.1354C17.2549 5.40549 17.9064 4.81396 18.7099 4.81396C19.5136 4.81396 20.1652 5.40549 20.1652 6.1354V6.1354Z" fill="white"/>
</svg>
