<svg width="39" height="39" viewBox="0 0 39 39" fill="none" xmlns="http://www.w3.org/2000/svg">
<path d="M30.41 15.0472C30.3584 13.8764 30.169 13.0715 29.8978 12.374C29.618 11.6337 29.1876 10.9709 28.6236 10.4199C28.0726 9.8603 27.4054 9.42549 26.6737 9.15007C25.9722 8.87886 25.1715 8.68953 24.0007 8.63791C22.8212 8.58192 22.4468 8.56897 19.4552 8.56897C16.4636 8.56897 16.0891 8.58192 14.914 8.63354C13.7432 8.68516 12.9383 8.87465 12.241 9.1457C11.5005 9.42549 10.8377 9.85593 10.2867 10.4199C9.72712 10.9709 9.29248 11.6381 9.01689 12.3698C8.74568 13.0715 8.55635 13.872 8.50473 15.0428C8.44874 16.2223 8.43579 16.5968 8.43579 19.5884C8.43579 22.58 8.44874 22.9544 8.50036 24.1296C8.55198 25.3003 8.74147 26.1052 9.01269 26.8027C9.29248 27.543 9.72712 28.2058 10.2867 28.7568C10.8377 29.3164 11.5049 29.7512 12.2366 30.0267C12.9383 30.2979 13.7388 30.4872 14.9098 30.5388C16.0848 30.5906 16.4594 30.6034 19.451 30.6034C22.4426 30.6034 22.817 30.5906 23.9922 30.5388C25.1629 30.4872 25.9678 30.2979 26.6651 30.0267C28.1459 29.4541 29.3167 28.2833 29.8892 26.8027C30.1603 26.101 30.3498 25.3003 30.4014 24.1296C30.453 22.9544 30.466 22.58 30.466 19.5884C30.466 16.5968 30.4616 16.2223 30.41 15.0472ZM28.4257 24.0435C28.3783 25.1196 28.1976 25.7007 28.0469 26.0881C27.6767 27.048 26.9148 27.8099 25.9549 28.1801C25.5675 28.3308 24.9822 28.5115 23.9103 28.5588C22.7481 28.6106 22.3995 28.6233 19.4595 28.6233C16.5196 28.6233 16.1666 28.6106 15.0086 28.5588C13.9325 28.5115 13.3514 28.3308 12.964 28.1801C12.4863 28.0036 12.0515 27.7238 11.6986 27.3579C11.3327 27.0006 11.0529 26.5701 10.8764 26.0925C10.7257 25.7051 10.545 25.1196 10.4977 24.0478C10.4459 22.8856 10.4332 22.5369 10.4332 19.5969C10.4332 16.657 10.4459 16.304 10.4977 15.1462C10.545 14.0701 10.7257 13.489 10.8764 13.1016C11.0529 12.6237 11.3327 12.1891 11.703 11.836C12.0601 11.4701 12.4905 11.1903 12.9684 11.0139C13.3558 10.8633 13.9413 10.6825 15.013 10.6351C16.1752 10.5835 16.5239 10.5705 19.4637 10.5705C22.4081 10.5705 22.7566 10.5835 23.9146 10.6351C24.9908 10.6825 25.5719 10.8633 25.9593 11.0139C26.4369 11.1903 26.8718 11.4701 27.2247 11.836C27.5906 12.1933 27.8704 12.6237 28.0469 13.1016C28.1976 13.489 28.3783 14.0743 28.4257 15.1462C28.4774 16.3084 28.4903 16.657 28.4903 19.5969C28.4903 22.5369 28.4774 22.8813 28.4257 24.0435Z" fill="#DA835D"/>
<path d="M19.4548 13.928C16.3299 13.928 13.7944 16.4632 13.7944 19.5883C13.7944 22.7134 16.3299 25.2487 19.4548 25.2487C22.5799 25.2487 25.1151 22.7134 25.1151 19.5883C25.1151 16.4632 22.5799 13.928 19.4548 13.928ZM19.4548 23.2601C17.4275 23.2601 15.7831 21.6158 15.7831 19.5883C15.7831 17.5609 17.4275 15.9166 19.4548 15.9166C21.4822 15.9166 23.1265 17.5609 23.1265 19.5883C23.1265 21.6158 21.4822 23.2601 19.4548 23.2601Z" fill="#DA835D"/>
<path d="M26.6606 13.7042C26.6606 14.434 26.0689 15.0257 25.339 15.0257C24.6093 15.0257 24.0176 14.434 24.0176 13.7042C24.0176 12.9743 24.6093 12.3828 25.339 12.3828C26.0689 12.3828 26.6606 12.9743 26.6606 13.7042Z" fill="#DA835D"/>
</svg>
