<svg width="40" height="40" viewBox="0 0 40 40" fill="none" xmlns="http://www.w3.org/2000/svg">
<path d="M29.6382 14.5167C28.3826 14.5167 27.2242 14.1008 26.2939 13.3991C25.227 12.5947 24.4604 11.4148 24.1897 10.0548C24.1227 9.71883 24.0866 9.37208 24.0832 9.01672H20.4966V18.817L20.4923 24.1851C20.4923 25.6203 19.5577 26.8372 18.2622 27.2651C17.8862 27.3893 17.4802 27.4482 17.0573 27.425C16.5177 27.3953 16.0119 27.2325 15.5723 26.9695C14.6369 26.41 14.0027 25.3951 13.9855 24.2341C13.9584 22.4195 15.4254 20.9401 17.2387 20.9401C17.5966 20.9401 17.9404 20.9986 18.2622 21.1047V18.426V17.4631C17.9227 17.4128 17.5773 17.3866 17.2279 17.3866C15.2432 17.3866 13.387 18.2116 12.0601 19.6979C11.0572 20.8211 10.4556 22.2541 10.3628 23.7567C10.2412 25.7307 10.9635 27.6072 12.3643 28.9916C12.5701 29.1948 12.7863 29.3835 13.0123 29.5575C14.2132 30.4818 15.6815 30.9828 17.2279 30.9828C17.5773 30.9828 17.9227 30.957 18.2622 30.9067C19.7068 30.6927 21.0397 30.0314 22.0916 28.9916C23.3841 27.7141 24.0982 26.0182 24.1059 24.213L24.0875 16.1968C24.7041 16.6725 25.3782 17.0661 26.1018 17.3716C27.2272 17.8464 28.4204 18.087 29.6485 18.0866V15.4822V14.5159C29.6493 14.5167 29.639 14.5167 29.6382 14.5167Z" fill="#464646"/>
</svg>
