<svg width="349" height="236" viewBox="0 0 349 236" fill="none" xmlns="http://www.w3.org/2000/svg">
<rect y="0.969971" width="349" height="234.06" fill="white"/>
<g clip-path="url(#clip0)">
<path d="M67.3073 151.399C66.0429 152.062 64.3681 152.629 62.0932 152.629C58.3955 152.629 56.1513 151.368 54.3809 149.697C51.9476 147.364 51 144.748 51 141.657C51 137.842 52.5799 135.099 54.3809 133.429C56.4988 131.443 59.1212 130.653 62.1246 130.653C63.9345 130.635 65.7189 131.08 67.3073 131.946V136.738C66.6776 136.004 65.8977 135.413 65.02 135.005C64.1422 134.597 63.1871 134.382 62.2188 134.373C57.9837 134.373 55.2351 137.841 55.2351 141.719C55.2351 146.385 58.8372 148.909 62.3772 148.909C64.3367 148.909 66.075 148.054 67.3073 146.607V151.399Z" fill="#001C28"/>
<path d="M83.0475 148.397H75.8083L74.2213 152.156H70.4272L78.2052 133.875H80.8454L88.4093 152.156H84.6416L83.0475 148.397ZM82.025 145.549L79.4961 139.107L76.9122 145.549H82.025Z" fill="#001C28"/>
<path d="M95.7225 141.176H103.311V134.251H106.809V152.156H103.311V144.183H95.7225V152.156H92.2246V134.251H95.7225V141.176Z" fill="#001C28"/>
<path d="M116.314 141.821L122.906 134.251H127.32L119.732 142.518L127.723 152.156H123.095L116.718 144.13L116.314 144.531V152.156H112.816V134.251H116.314V141.821Z" fill="#001C28"/>
<path d="M138.11 137.257V152.156H134.612V137.257H130.576V134.251H142.147V137.257H138.11Z" fill="#001C28"/>
<path d="M150.672 144.478H143.675V147.484H150.672V144.478Z" fill="#001C28"/>
<path d="M172.181 131.127V152.156H168.073V134.658H159.603V152.156H155.495V131.127H172.181Z" fill="#001C28"/>
<path d="M188.165 137.257H181.708V141.257H187.896V144.265H181.708V149.149H188.165V152.156H178.208V134.251H188.165V137.257Z" fill="#001C28"/>
<path d="M199.701 137.257V152.156H196.203V137.257H192.167V134.251H203.738V137.257H199.701Z" fill="#001C28"/>
<path d="M217.772 137.257H211.314V141.257H217.502V144.265H211.314V149.149H217.772V152.156H207.815V134.251H217.772V137.257Z" fill="#001C28"/>
<path d="M228.252 134.251C230.27 134.251 231.668 134.464 232.987 135.62C234.441 136.909 234.818 138.654 234.818 139.941C234.818 140.64 234.709 142.575 233.336 143.941C232.337 144.938 230.862 145.526 228.79 145.526H226.53V152.156H223.033V134.251H228.252ZM226.533 142.515H227.96C228.633 142.515 229.494 142.515 230.243 141.952C230.89 141.442 231.212 140.638 231.212 139.858C231.212 138.861 230.728 138.193 230.213 137.819C229.487 137.308 228.572 137.254 227.738 137.254H226.525L226.533 142.515Z" fill="#001C28"/>
<path d="M239.274 134.251H249.659V137.258H242.773V141.364H245.195C246.54 141.364 248.29 141.578 249.69 142.814C250.713 143.727 251.386 145.097 251.386 146.787C251.389 147.929 251.04 149.045 250.387 149.982C249.015 151.915 246.781 152.156 245.221 152.156H239.273L239.274 134.251ZM242.771 149.15H244.438C247.237 149.15 247.776 147.835 247.776 146.814C247.776 145.686 247.157 144.371 244.493 144.371H242.773L242.771 149.15Z" fill="#001C28"/>
<path d="M257.014 154.352L259.532 148.318L253.228 134.251H256.948L261.346 144.642L265.357 134.251L269.129 134.23L260.753 154.332L257.014 154.352Z" fill="#001C28"/>
<path d="M277.675 134.251C279.694 134.251 281.093 134.464 282.411 135.62C283.864 136.909 284.241 138.654 284.241 139.941C284.241 140.64 284.133 142.575 282.761 143.941C281.766 144.938 280.285 145.526 278.214 145.526H275.953V152.156H272.457V134.251H277.675ZM275.953 142.515H277.38C278.053 142.515 278.914 142.515 279.667 141.952C280.314 141.442 280.636 140.638 280.636 139.858C280.636 138.861 280.152 138.193 279.641 137.819C278.914 137.308 278 137.254 277.165 137.254H275.952L275.953 142.515Z" fill="#001C28"/>
<path d="M297.999 137.257H291.971V152.156H288.473V134.251H297.999V137.257Z" fill="#001C28"/>
<path fill-rule="evenodd" clip-rule="evenodd" d="M95.1772 109.297C103.851 105.641 109.937 97.0763 109.937 87.0931C109.937 73.7869 99.1247 63 85.7858 63C72.447 63 61.6321 73.7869 61.6321 87.0931C61.6321 99.3578 70.8201 109.474 82.7025 110.985L51.2803 114.095V115.785L276.346 115.46L286.772 90.0879L95.1772 109.297Z" fill="#6CB2C6"/>
<path d="M291.937 162.447H298.002V171.915H296.537V163.8H293.401V168.522C293.401 169.352 293.322 169.977 293.164 170.397C293.018 170.799 292.767 171.156 292.438 171.432C292.214 171.62 291.956 171.765 291.679 171.859C291.386 171.956 291.079 172.004 290.77 172.001C290.651 172.002 290.531 171.993 290.413 171.974C290.3 171.956 290.189 171.939 290.081 171.92V170.568C290.165 170.593 290.251 170.613 290.338 170.628C290.409 170.641 290.481 170.648 290.553 170.649C290.723 170.647 290.891 170.617 291.052 170.56C291.201 170.514 291.34 170.438 291.459 170.337C291.621 170.184 291.74 169.938 291.816 169.599C291.891 169.261 291.929 168.758 291.93 168.091L291.937 162.447ZM262.236 168.265H265.068L263.678 165.074L262.236 168.265ZM266.66 171.919L265.661 169.619H261.628L260.588 171.919H259.018L263.739 161.906L268.242 171.919H266.66ZM230.767 162.451V166.158H234.81V162.447H236.275V171.915H234.81V167.502H230.767V171.915H229.302V162.447L230.767 162.451ZM200.565 168.265H203.398L202.008 165.074L200.565 168.265ZM204.989 171.919L203.99 169.619H199.957L198.917 171.919H197.348L202.064 161.906L206.566 171.919H204.989ZM169.964 162.451V166.224L173.628 162.451H175.526L171.237 166.736L175.551 171.919H173.629L169.962 167.373V171.919H168.497V162.447L169.964 162.451ZM145.11 162.451V163.803H141.339V166.077H145.001V167.43H141.339V170.569H145.109V171.921H139.874V162.447L145.11 162.451ZM110.042 162.451H116.107V171.919H114.637V163.8H111.505V168.522C111.505 169.352 111.426 169.977 111.267 170.397C111.121 170.799 110.87 171.156 110.541 171.432C110.317 171.62 110.059 171.765 109.781 171.859C109.489 171.956 109.182 172.004 108.873 172.001C108.754 172.002 108.634 171.993 108.516 171.974C108.404 171.956 108.293 171.939 108.184 171.92V170.568C108.268 170.593 108.355 170.613 108.442 170.628C108.513 170.641 108.584 170.648 108.656 170.649C108.826 170.647 108.995 170.617 109.156 170.56C109.305 170.514 109.444 170.438 109.562 170.337C109.725 170.184 109.844 169.938 109.919 169.599C109.994 169.261 110.033 168.758 110.035 168.091L110.042 162.451ZM85.689 162.451V163.803H81.9164V166.077H85.5784V167.43H81.9164V170.569H85.6869V171.921H80.4514V162.447L85.689 162.451ZM57.6313 163.8H55.4606V171.915H53.9971V163.8H51.8257V162.447H57.6313V163.8Z" fill="#001C28"/>
</g>
<defs>
<clipPath id="clip0">
<rect width="247" height="109" fill="white" transform="translate(51 63)"/>
</clipPath>
</defs>
</svg>
