<svg width="349" height="236" viewBox="0 0 349 236" fill="none" xmlns="http://www.w3.org/2000/svg">
<rect y="0.969971" width="349" height="234.06" fill="white"/>
<path d="M36.7695 102.834H40.4106L47.5107 120.481L54.6473 102.834H58.1184L65.2792 120.481L72.258 102.834H75.8991L65.4734 128.734H64.7695L56.3464 107.737L47.8506 128.734H47.1466L36.7695 102.834ZM85.463 108.478L89.5896 117.811H81.6277L85.463 108.478ZM86.7981 102.834H84.2129L73.144 128.734H76.9186L80.1956 121.149H91.1188L94.6021 128.734H98.3767L86.7981 102.834ZM125.503 123.637V115.311H129.01V137.886H125.503V128.37C122.789 130.262 119.582 131.321 116.275 131.416C112.968 131.511 109.705 130.639 106.887 128.906C104.068 127.173 101.817 124.656 100.409 121.662C99.0014 118.668 98.4982 115.328 98.9613 112.053C99.4244 108.777 100.834 105.707 103.016 103.221C105.199 100.735 108.06 98.9401 111.248 98.0566C114.436 97.1731 117.813 97.2395 120.964 98.2477C124.115 99.2559 126.903 101.162 128.986 103.732L126.559 106.16C124.874 103.959 122.558 102.327 119.919 101.482C117.28 100.636 114.446 100.618 111.797 101.429C109.147 102.241 106.81 103.844 105.097 106.022C103.385 108.2 102.38 110.85 102.217 113.616C102.054 116.383 102.741 119.132 104.186 121.497C105.63 123.861 107.764 125.727 110.3 126.844C112.835 127.961 115.652 128.276 118.372 127.746C121.091 127.216 123.584 125.867 125.515 123.88L125.503 123.637ZM133.999 102.834V128.734H137.506V108.793L154.85 128.734H158.03V102.834H154.534V122.848L137.009 102.834H133.999ZM178.286 102.834H163.661V128.734H178.699V125.372H167.424V117.313H178.007V113.988H167.424V106.147H178.347L178.286 102.834ZM183.323 128.734H187.049V117.459H188.591C190.472 117.459 192.025 118.078 195.46 123.394L198.859 128.734H203.289C201.529 126.307 200.861 125.421 199.793 123.613C197.803 120.396 196.358 118.017 194.016 116.452C195.314 115.995 196.433 115.137 197.211 114.003C197.99 112.868 198.388 111.516 198.349 110.141C198.349 105.65 195.06 102.858 189.853 102.858H183.348V128.734H183.323ZM187.037 106.05H189.465C193.106 106.05 194.55 107.519 194.55 109.946C194.55 112.107 193.446 114.17 189.465 114.17H187.037V106.05Z" fill="#201600"/>
<path d="M115.574 119.11C116.619 119.11 117.639 118.8 118.508 118.22C119.376 117.64 120.053 116.815 120.452 115.851C120.852 114.886 120.956 113.825 120.753 112.8C120.549 111.776 120.046 110.836 119.308 110.097C118.569 109.359 117.629 108.856 116.604 108.652C115.58 108.449 114.519 108.553 113.554 108.953C112.589 109.352 111.765 110.029 111.185 110.897C110.605 111.765 110.295 112.786 110.295 113.83C110.295 115.231 110.851 116.573 111.841 117.564C112.831 118.554 114.174 119.11 115.574 119.11Z" fill="#D24A43"/>
<path d="M238.134 128.734H234.87C234.547 128.746 234.23 128.648 233.971 128.455C233.745 128.27 233.566 128.032 233.45 127.763L231.289 122.035H220.123L217.963 127.763C217.85 128.021 217.675 128.246 217.453 128.419C217.203 128.632 216.883 128.744 216.555 128.734H213.29L223.582 102.798H227.854L238.134 128.734ZM221.252 119.025H230.148L226.58 109.546C226.434 109.206 226.289 108.781 226.131 108.332C225.973 107.883 225.84 107.337 225.694 106.791C225.548 107.349 225.403 107.871 225.257 108.344C225.111 108.818 224.966 109.23 224.82 109.558L221.252 119.025Z" fill="#201600"/>
<path d="M250.768 125.287C251.687 125.306 252.6 125.137 253.451 124.79C254.207 124.468 254.886 123.988 255.441 123.382C255.991 122.749 256.405 122.01 256.655 121.209C256.946 120.3 257.09 119.349 257.08 118.394V102.761H261.279V118.394C261.293 119.838 261.047 121.273 260.551 122.629C260.092 123.884 259.377 125.029 258.451 125.991C257.511 126.949 256.383 127.701 255.138 128.2C252.301 129.284 249.163 129.284 246.326 128.2C245.09 127.71 243.971 126.964 243.044 126.01C242.117 125.056 241.403 123.916 240.95 122.666C240.454 121.309 240.207 119.874 240.221 118.43V102.761H244.445V118.381C244.43 119.337 244.573 120.289 244.87 121.197C245.13 121.993 245.542 122.731 246.083 123.37C246.634 123.984 247.314 124.469 248.074 124.79C248.922 125.131 249.83 125.3 250.744 125.287" fill="#201600"/>
<path d="M285.043 102.761V106.269H276.947V128.698H272.748V106.269H264.641V102.761H285.043Z" fill="#201600"/>
<path d="M311.999 115.724C312.017 117.539 311.696 119.342 311.052 121.04C310.464 122.598 309.568 124.022 308.418 125.227C307.256 126.414 305.865 127.351 304.328 127.982C300.922 129.293 297.151 129.293 293.745 127.982C292.199 127.358 290.8 126.418 289.638 125.223C288.476 124.027 287.576 122.603 286.996 121.04C285.734 117.612 285.734 113.847 286.996 110.42C287.58 108.853 288.48 107.423 289.642 106.22C290.802 105.026 292.2 104.087 293.745 103.465C297.148 102.138 300.925 102.138 304.328 103.465C305.871 104.084 307.265 105.023 308.418 106.22C309.578 107.422 310.475 108.852 311.052 110.42C311.697 112.113 312.018 113.912 311.999 115.724V115.724ZM307.69 115.724C307.708 114.36 307.503 113.003 307.083 111.706C306.726 110.59 306.139 109.56 305.36 108.684C304.604 107.852 303.67 107.201 302.629 106.779C300.32 105.872 297.753 105.872 295.444 106.779C294.4 107.204 293.464 107.855 292.701 108.684C291.915 109.572 291.324 110.613 290.965 111.743C290.14 114.366 290.14 117.179 290.965 119.802C291.336 120.911 291.926 121.935 292.701 122.812C293.462 123.64 294.399 124.287 295.444 124.705C297.759 125.579 300.314 125.579 302.629 124.705C303.67 124.287 304.603 123.64 305.36 122.812C306.135 121.937 306.722 120.913 307.083 119.802C307.504 118.496 307.709 117.131 307.69 115.76" fill="#201600"/>
</svg>
