<svg width="349" height="236" viewBox="0 0 349 236" fill="none" xmlns="http://www.w3.org/2000/svg">
<rect y="0.969971" width="349" height="234.06" fill="white"/>
<g clip-path="url(#clip0)">
<path d="M85.467 154.629V162.993H83.0052V154.629H79.8188V152.371H88.6534V154.629H85.467Z" fill="#002856"/>
<path d="M96.7634 154.397C95.0913 154.397 93.9765 155.772 93.9765 157.686C93.9765 159.601 95.1099 160.976 96.7634 160.976C98.417 160.976 99.5504 159.582 99.5504 157.686C99.5504 155.79 98.417 154.397 96.7634 154.397ZM96.7634 163.16C96.0411 163.188 95.3209 163.065 94.6489 162.799C93.9768 162.533 93.3677 162.129 92.8605 161.614C92.3533 161.099 91.9593 160.483 91.7035 159.807C91.4478 159.131 91.336 158.408 91.3754 157.686C91.3455 156.96 91.4659 156.236 91.7289 155.558C91.9919 154.881 92.3918 154.265 92.9037 153.75C93.4157 153.234 94.0285 152.83 94.7038 152.562C95.3791 152.294 96.1025 152.169 96.8285 152.194C97.552 152.167 98.2733 152.291 98.946 152.559C99.6188 152.827 100.228 153.232 100.735 153.749C101.243 154.266 101.636 154.884 101.891 155.561C102.146 156.239 102.257 156.963 102.217 157.686C102.243 158.414 102.118 159.139 101.851 159.816C101.585 160.493 101.181 161.108 100.665 161.622C100.15 162.135 99.5341 162.537 98.8563 162.802C98.1785 163.067 97.4533 163.189 96.7263 163.16" fill="#002856"/>
<path d="M109.407 154.499C109.096 154.494 108.785 154.515 108.478 154.564V157.491C108.741 157.509 109.005 157.509 109.268 157.491C110.438 157.491 111.191 156.924 111.191 155.855C111.191 154.973 110.494 154.452 109.435 154.452L109.407 154.499ZM111.627 162.937L109.769 159.48H109.351C108.989 159.48 108.784 159.48 108.422 159.48V162.955H105.988V152.463C107.028 152.347 108.073 152.291 109.119 152.296C112.426 152.296 113.764 153.876 113.764 155.818C113.754 156.448 113.577 157.065 113.25 157.604C112.924 158.143 112.46 158.585 111.906 158.885L114.405 162.983L111.627 162.937Z" fill="#002856"/>
<path d="M120.09 152.371H117.628V162.993H120.09V152.371Z" fill="#002856"/>
<path d="M133.17 163.188L126.769 157.435V162.993H124.308V152.222L124.633 152.166L130.95 157.872V152.371H133.412V163.151L133.17 163.188Z" fill="#002856"/>
<path d="M142.617 154.397C140.945 154.397 139.831 155.772 139.831 157.686C139.831 159.601 140.964 160.976 142.617 160.976C144.271 160.976 145.404 159.582 145.404 157.686C145.404 155.79 144.271 154.397 142.617 154.397ZM142.617 163.16C141.895 163.188 141.175 163.065 140.503 162.799C139.831 162.533 139.222 162.129 138.715 161.614C138.207 161.099 137.813 160.483 137.558 159.807C137.302 159.131 137.19 158.408 137.229 157.686C137.2 156.961 137.32 156.237 137.582 155.561C137.845 154.884 138.244 154.269 138.755 153.753C139.265 153.238 139.877 152.833 140.551 152.565C141.226 152.297 141.948 152.17 142.673 152.194C143.397 152.167 144.118 152.291 144.791 152.559C145.463 152.827 146.073 153.232 146.58 153.749C147.087 154.266 147.481 154.884 147.736 155.561C147.991 156.239 148.102 156.963 148.061 157.686C148.087 158.414 147.963 159.139 147.696 159.816C147.429 160.493 147.025 161.108 146.51 161.622C145.995 162.135 145.379 162.537 144.701 162.802C144.023 163.067 143.298 163.189 142.571 163.16" fill="#002856"/>
<path d="M151.276 165L151.081 164.684C151.602 164.29 151.978 163.735 152.149 163.104C151.844 163.104 151.552 162.984 151.334 162.77C151.117 162.557 150.993 162.266 150.988 161.961C150.988 161.674 151.101 161.399 151.303 161.196C151.505 160.992 151.779 160.876 152.065 160.874C152.237 160.876 152.407 160.915 152.563 160.988C152.719 161.06 152.858 161.165 152.971 161.294C153.084 161.424 153.168 161.576 153.219 161.741C153.269 161.905 153.285 162.078 153.264 162.249C153.217 162.851 153.007 163.428 152.657 163.92C152.307 164.411 151.829 164.797 151.276 165.037" fill="#002856"/>
<path d="M161.717 152.371H159.255V162.993H161.717V152.371Z" fill="#002856"/>
<path d="M170.617 154.629V162.993H168.155V154.629H164.969V152.371H173.803V154.629H170.617Z" fill="#002856"/>
<path d="M179.897 156.627L178.848 159.173H180.947L179.897 156.627ZM182.526 162.983L181.728 161.06H178.058L177.268 162.983H174.76L179.758 152.278H180.093L185.09 162.983H182.526Z" fill="#002856"/>
<path d="M188.072 162.993V152.371H190.534V160.744H194.798V162.993H188.072Z" fill="#002856"/>
<path d="M200.465 152.371H198.003V162.993H200.465V152.371Z" fill="#002856"/>
<path d="M208.63 156.627L207.581 159.173H209.68L208.63 156.627ZM211.259 162.983L210.461 161.06H206.745L205.955 162.983H203.447L208.445 152.278H208.779L213.777 162.983H211.259Z" fill="#002856"/>
<path d="M217.131 165L216.926 164.684C217.453 164.294 217.833 163.737 218.004 163.104C217.699 163.104 217.407 162.984 217.189 162.77C216.972 162.557 216.848 162.266 216.843 161.961C216.843 161.674 216.956 161.399 217.158 161.196C217.36 160.992 217.634 160.876 217.92 160.874C218.092 160.876 218.262 160.915 218.418 160.988C218.574 161.06 218.713 161.165 218.826 161.294C218.939 161.424 219.023 161.576 219.074 161.741C219.124 161.905 219.14 162.078 219.119 162.249C219.073 162.851 218.864 163.429 218.513 163.92C218.163 164.412 217.685 164.798 217.131 165.037" fill="#002856"/>
<path d="M225.631 162.993V154.889L223.819 155.586L223.113 153.7L227.173 152.194H228.093V162.993H225.631Z" fill="#002856"/>
<path d="M235.682 154.341C235.512 154.334 235.342 154.363 235.183 154.426C235.025 154.49 234.881 154.586 234.763 154.709C234.644 154.832 234.553 154.979 234.495 155.14C234.438 155.3 234.415 155.472 234.428 155.642C234.428 155.972 234.559 156.289 234.793 156.522C235.026 156.756 235.343 156.887 235.673 156.887C236.003 156.887 236.32 156.756 236.553 156.522C236.787 156.289 236.918 155.972 236.918 155.642C236.937 155.472 236.919 155.3 236.865 155.138C236.81 154.975 236.721 154.827 236.603 154.703C236.486 154.579 236.342 154.482 236.183 154.42C236.024 154.357 235.853 154.33 235.682 154.341V154.341ZM235.682 158.513C235.514 158.499 235.345 158.52 235.185 158.576C235.026 158.631 234.88 158.72 234.758 158.836C234.635 158.951 234.538 159.092 234.473 159.248C234.408 159.404 234.377 159.571 234.382 159.74C234.41 160.075 234.562 160.386 234.809 160.614C235.056 160.841 235.379 160.967 235.715 160.967C236.05 160.967 236.374 160.841 236.62 160.614C236.867 160.386 237.02 160.075 237.048 159.74C237.049 159.567 237.013 159.395 236.943 159.236C236.873 159.077 236.77 158.935 236.641 158.819C236.512 158.704 236.36 158.616 236.194 158.564C236.029 158.511 235.855 158.494 235.682 158.513V158.513ZM235.682 163.16C233.285 163.16 231.771 161.812 231.771 160.186C231.743 159.629 231.899 159.078 232.215 158.618C232.53 158.158 232.988 157.814 233.518 157.64C233.065 157.413 232.687 157.06 232.43 156.623C232.172 156.186 232.047 155.684 232.069 155.177C232.069 153.523 233.443 152.194 235.682 152.194C237.921 152.194 239.305 153.523 239.305 155.177C239.307 155.681 239.173 156.176 238.916 156.61C238.659 157.044 238.29 157.4 237.847 157.64C238.381 157.81 238.844 158.151 239.163 158.612C239.482 159.073 239.64 159.626 239.612 160.186C239.612 161.812 238.088 163.16 235.682 163.16Z" fill="#002856"/>
<path d="M246.663 157.612C246.87 157.604 247.074 157.554 247.262 157.466C247.45 157.378 247.619 157.253 247.758 157.099C247.897 156.945 248.004 156.765 248.073 156.569C248.142 156.373 248.171 156.165 248.158 155.958C248.13 155.668 248.017 155.392 247.835 155.165C247.653 154.937 247.408 154.768 247.132 154.677C246.855 154.585 246.558 154.577 246.276 154.651C245.994 154.726 245.74 154.881 245.545 155.097C245.349 155.313 245.221 155.581 245.175 155.869C245.129 156.157 245.167 156.452 245.286 156.718C245.404 156.985 245.597 157.211 245.842 157.37C246.086 157.528 246.371 157.612 246.663 157.612V157.612ZM246.718 152.194C247.253 152.182 247.784 152.28 248.278 152.481C248.773 152.683 249.222 152.983 249.596 153.365C249.97 153.746 250.263 154.2 250.455 154.699C250.647 155.198 250.735 155.731 250.713 156.265C250.713 160.177 247.926 162.017 244.498 163.448L243.393 161.534C244.99 161.022 246.449 160.151 247.657 158.987C247.131 159.256 246.547 159.39 245.957 159.378C245.508 159.39 245.062 159.309 244.647 159.14C244.231 158.97 243.856 158.716 243.544 158.394C243.232 158.071 242.99 157.687 242.835 157.266C242.679 156.845 242.613 156.397 242.64 155.949C242.65 155.431 242.765 154.92 242.978 154.448C243.191 153.976 243.497 153.551 243.878 153.2C244.259 152.85 244.707 152.58 245.195 152.407C245.684 152.234 246.202 152.161 246.718 152.194" fill="#002856"/>
<path d="M256.538 163.16C255.568 163.153 254.606 162.993 253.686 162.686L254.104 160.642C254.82 160.928 255.582 161.079 256.352 161.088C257.783 161.088 258.591 160.549 258.591 159.712C258.591 158.876 257.894 158.188 256.352 158.188C255.653 158.193 254.957 158.287 254.281 158.467L254.113 158.281V152.361H260.728V154.564H256.584V156.209C257.002 156.209 257.29 156.209 257.513 156.209C260.003 156.209 261.164 157.658 261.164 159.48C261.164 161.571 259.483 163.197 256.519 163.197" fill="#002856"/>
<path d="M102.821 99.0838V114.185H98.9002L102.821 99.0838ZM82.5596 131.182H95.4352L96.8193 125.058H102.867V131.182H115.798V88.8521H91.9608L82.5596 131.182Z" fill="#002856"/>
<path d="M80.0604 88.8521H65.4848L56 131.182H79.5216L82.42 118.125H73.5205L80.0604 88.8521Z" fill="#002856"/>
<path d="M140.592 88.8521L133.941 118.897V88.8521H120.722V131.182H144.541L153.96 88.8521H140.592Z" fill="#002856"/>
<path d="M272.73 114.185V99.0838L276.631 114.185H272.73ZM283.627 88.8521H259.798V131.182H272.73V125.058H278.777L280.161 131.182H293.018L283.627 88.8521Z" fill="#002856"/>
<path d="M247.908 118.627L251.029 88.8521H223.894L226.309 102.374H235.19L232.514 131.182H258.386L255.785 118.627H247.908Z" fill="#002856"/>
<path d="M218.524 118.627L221.646 88.8521H194.492L196.87 102.374H205.816L203.113 131.182H228.994L226.421 118.627H218.524Z" fill="#002856"/>
<path d="M170.134 107.671L174.491 84.6051L178.987 107.671H170.134ZM162.925 71L149.325 131.182H166.046L167.997 120.96H181.077L183.084 131.182H199.703L186.168 71H162.925Z" fill="#002856"/>
</g>
<defs>
<clipPath id="clip0">
<rect width="237" height="94" fill="white" transform="translate(56 71)"/>
</clipPath>
</defs>
</svg>
