<svg width="349" height="236" viewBox="0 0 349 236" fill="none" xmlns="http://www.w3.org/2000/svg">
<rect y="0.969971" width="349" height="234.06" fill="white"/>
<path d="M299.306 141.1H233.794C233.403 141.128 233.01 141.076 232.64 140.946C232.271 140.816 231.932 140.611 231.644 140.344C231.357 140.077 231.128 139.754 230.972 139.395C230.815 139.036 230.734 138.648 230.734 138.256C230.734 137.864 230.815 137.476 230.972 137.117C231.128 136.757 231.357 136.434 231.644 136.167C231.932 135.9 232.271 135.696 232.64 135.566C233.01 135.436 233.403 135.383 233.794 135.412H299.306C300.025 135.464 300.697 135.787 301.187 136.314C301.678 136.842 301.95 137.536 301.95 138.256C301.95 138.976 301.678 139.67 301.187 140.197C300.697 140.725 300.025 141.047 299.306 141.1" fill="#D3704C"/>
<path d="M114.357 141.1H48.84C48.1216 141.047 47.4497 140.725 46.9593 140.197C46.4689 139.67 46.1963 138.976 46.1963 138.256C46.1963 137.536 46.4689 136.842 46.9593 136.314C47.4497 135.787 48.1216 135.464 48.84 135.412H114.357C115.075 135.464 115.747 135.787 116.237 136.314C116.728 136.842 117 137.536 117 138.256C117 138.976 116.728 139.67 116.237 140.197C115.747 140.725 115.075 141.047 114.357 141.1" fill="#D3704C"/>
<path d="M294.293 92.4875C294.293 92.9795 294.147 93.4604 293.874 93.8695C293.601 94.2785 293.212 94.5974 292.758 94.7856C292.303 94.9739 291.803 95.0232 291.321 94.9272C290.838 94.8312 290.395 94.5943 290.047 94.2464C289.699 93.8985 289.462 93.4553 289.366 92.9728C289.27 92.4903 289.319 91.9901 289.508 91.5356C289.696 91.081 290.015 90.6925 290.424 90.4192C290.833 90.1459 291.314 90 291.806 90C292.466 90 293.098 90.2621 293.565 90.7286C294.031 91.1951 294.293 91.8278 294.293 92.4875Z" fill="#4A4846"/>
<path d="M302.223 98.3043V117.969C302.24 118.267 302.197 118.566 302.095 118.847C301.993 119.127 301.834 119.384 301.629 119.602C301.425 119.819 301.177 119.992 300.903 120.11C300.629 120.229 300.333 120.29 300.035 120.29C299.736 120.29 299.441 120.229 299.166 120.11C298.892 119.992 298.645 119.819 298.44 119.602C298.235 119.384 298.077 119.127 297.975 118.847C297.873 118.566 297.829 118.267 297.847 117.969V104.47L285.603 119.296C285.333 119.683 284.945 119.972 284.498 120.12C284.05 120.268 283.567 120.267 283.12 120.118C282.673 119.969 282.286 119.679 282.017 119.291C281.748 118.904 281.612 118.44 281.629 117.969V98.2967C281.617 98.0005 281.664 97.7048 281.769 97.4274C281.874 97.1501 282.034 96.8969 282.239 96.6829C282.444 96.4689 282.691 96.2987 282.964 96.1824C283.236 96.0661 283.53 96.0061 283.826 96.0061C284.123 96.0061 284.416 96.0661 284.689 96.1824C284.962 96.2987 285.208 96.4689 285.413 96.6829C285.619 96.8969 285.778 97.1501 285.883 97.4274C285.988 97.7048 286.036 98.0005 286.024 98.2967V111.788L298.359 96.8444C298.571 96.6032 298.83 96.4088 299.122 96.2737C299.413 96.1385 299.729 96.0656 300.05 96.0595C300.636 96.0695 301.195 96.3112 301.603 96.7319C302.012 97.1526 302.237 97.7179 302.23 98.3043" fill="#4A4846"/>
<path d="M258.703 103.067H253.015V98.2967C253.027 98.001 252.98 97.7058 252.875 97.429C252.77 97.1521 252.611 96.8993 252.406 96.6857C252.201 96.4721 251.955 96.3021 251.683 96.186C251.41 96.0699 251.117 96.01 250.821 96.01C250.525 96.01 250.233 96.0699 249.96 96.186C249.688 96.3021 249.442 96.4721 249.237 96.6857C249.032 96.8993 248.873 97.1521 248.768 97.429C248.663 97.7058 248.616 98.001 248.628 98.2967V117.969C248.62 118.561 248.845 119.131 249.256 119.558C249.666 119.984 250.228 120.23 250.82 120.244H258.711C263.306 120.244 267.053 116.38 267.053 111.663C267.053 106.946 263.318 103.094 258.711 103.094L258.703 103.067ZM258.711 115.717H253.023V107.591H258.711C259.785 107.591 260.815 108.017 261.574 108.777C262.334 109.536 262.76 110.566 262.76 111.64C262.76 112.715 262.334 113.745 261.574 114.504C260.815 115.264 259.785 115.69 258.711 115.69" fill="#4A4846"/>
<path d="M271.023 96.0557C270.733 96.0596 270.446 96.1207 270.18 96.2355C269.913 96.3503 269.671 96.5164 269.469 96.7245C269.266 96.9327 269.107 97.1786 269 97.4483C268.892 97.7181 268.839 98.0064 268.843 98.2967V117.969C268.843 118.257 268.9 118.542 269.01 118.808C269.12 119.074 269.281 119.315 269.485 119.519C269.688 119.722 269.93 119.884 270.196 119.994C270.462 120.104 270.747 120.161 271.035 120.161C271.323 120.161 271.608 120.104 271.873 119.994C272.139 119.884 272.381 119.722 272.584 119.519C272.788 119.315 272.949 119.074 273.06 118.808C273.17 118.542 273.226 118.257 273.226 117.969V98.2967C273.229 98.0047 273.175 97.7151 273.066 97.4443C272.956 97.1735 272.795 96.927 272.59 96.7188C272.385 96.5106 272.142 96.3448 271.873 96.231C271.604 96.1172 271.315 96.0576 271.023 96.0557" fill="#4A4846"/>
<path d="M237.806 106.893C238.599 105.735 239.022 104.364 239.019 102.961C239.041 101.154 238.346 99.4115 237.086 98.1163C235.826 96.8212 234.103 96.0787 232.296 96.0518C232.296 96.0518 232.77 96.0821 222.756 96.0821C222.463 96.0846 222.174 96.1448 221.906 96.2593C221.637 96.3737 221.393 96.5403 221.189 96.7492C220.984 96.9582 220.823 97.2055 220.715 97.4769C220.606 97.7483 220.552 98.0384 220.556 98.3307V117.969C220.549 118.263 220.601 118.556 220.708 118.83C220.815 119.105 220.975 119.355 221.18 119.567C221.385 119.778 221.629 119.947 221.9 120.063C222.17 120.18 222.461 120.241 222.756 120.244H233.373H233.407C235.345 120.205 237.19 119.403 238.539 118.011C239.888 116.619 240.633 114.75 240.612 112.812C240.614 111.681 240.362 110.563 239.873 109.543C239.384 108.522 238.671 107.626 237.787 106.919L237.806 106.893ZM224.932 100.617C225.247 100.617 232.277 100.617 232.561 100.617C232.361 100.591 232.387 100.617 232.561 100.617C233.133 100.701 233.655 100.99 234.029 101.43C234.403 101.871 234.604 102.432 234.594 103.01C234.599 103.319 234.544 103.625 234.43 103.912C234.316 104.199 234.147 104.461 233.931 104.682C233.716 104.903 233.459 105.079 233.175 105.2C232.891 105.321 232.586 105.385 232.277 105.387H224.951L224.932 100.617ZM233.384 115.694H224.951V109.873H233.384C234.138 109.9 234.852 110.219 235.375 110.762C235.899 111.305 236.191 112.029 236.191 112.784C236.191 113.538 235.899 114.262 235.375 114.805C234.852 115.348 234.138 115.667 233.384 115.694Z" fill="#4A4846"/>
<path d="M213.235 117.946C213.241 118.241 213.188 118.533 213.081 118.808C212.973 119.082 212.812 119.332 212.607 119.543C212.402 119.755 212.158 119.924 211.887 120.04C211.617 120.156 211.326 120.218 211.032 120.222H198.268C197.975 120.217 197.686 120.155 197.417 120.038C197.148 119.92 196.905 119.751 196.703 119.54C196.5 119.328 196.341 119.078 196.235 118.805C196.13 118.531 196.08 118.239 196.088 117.946V98.3157C196.083 98.0249 196.136 97.7361 196.243 97.4657C196.35 97.1953 196.51 96.9486 196.712 96.7398C196.915 96.531 197.156 96.3641 197.423 96.2487C197.69 96.1333 197.977 96.0716 198.268 96.0671C198.499 96.0671 198.499 96.0671 198.268 96.0671H211.032C211.589 96.1276 212.105 96.392 212.48 96.8095C212.854 97.2269 213.061 97.7681 213.061 98.329C213.061 98.8899 212.854 99.4311 212.48 99.8485C212.105 100.266 211.589 100.53 211.032 100.591H200.471V105.877H209.155C209.706 105.945 210.213 106.212 210.581 106.628C210.949 107.044 211.152 107.58 211.152 108.135C211.152 108.69 210.949 109.226 210.581 109.642C210.213 110.058 209.706 110.325 209.155 110.393H200.471V115.702H211.032C211.622 115.713 212.184 115.955 212.596 116.378C213.008 116.8 213.238 117.368 213.235 117.958" fill="#4A4846"/>
<path d="M188.432 119.706C188.209 119.891 187.951 120.03 187.674 120.114C187.396 120.199 187.105 120.228 186.817 120.2C186.528 120.171 186.248 120.086 185.993 119.948C185.738 119.811 185.512 119.624 185.33 119.399L177.814 110.006L174.402 113.624V117.969C174.414 118.266 174.366 118.562 174.261 118.84C174.156 119.118 173.996 119.371 173.79 119.586C173.585 119.8 173.338 119.97 173.065 120.087C172.791 120.203 172.497 120.264 172.2 120.264C171.903 120.264 171.609 120.203 171.336 120.087C171.063 119.97 170.816 119.8 170.611 119.586C170.405 119.371 170.245 119.118 170.14 118.84C170.035 118.562 169.987 118.266 169.999 117.969V113.605L166.587 109.979L159.067 119.399C158.886 119.624 158.662 119.811 158.408 119.948C158.155 120.086 157.876 120.171 157.588 120.2C157.301 120.229 157.011 120.2 156.735 120.115C156.459 120.03 156.202 119.891 155.981 119.706C155.52 119.323 155.229 118.775 155.17 118.18C155.111 117.584 155.289 116.989 155.666 116.524L163.515 106.711L157.167 99.8892C156.755 99.456 156.529 98.8776 156.54 98.2793C156.55 97.6809 156.796 97.1109 157.224 96.6927C157.427 96.4888 157.67 96.328 157.936 96.2198C158.203 96.1115 158.488 96.0581 158.776 96.0627C159.064 96.0673 159.348 96.1298 159.611 96.2465C159.874 96.3632 160.111 96.5317 160.307 96.7419L170.03 107.09V98.3194C170.017 98.0226 170.065 97.7264 170.17 97.4486C170.275 97.1708 170.435 96.9172 170.641 96.7028C170.847 96.4885 171.093 96.318 171.367 96.2015C171.64 96.085 171.934 96.0249 172.231 96.0249C172.528 96.0249 172.822 96.085 173.095 96.2015C173.368 96.318 173.615 96.4885 173.821 96.7028C174.026 96.9172 174.186 97.1708 174.291 97.4486C174.396 97.7264 174.444 98.0226 174.432 98.3194V107.098L184.124 96.7344C184.322 96.5243 184.56 96.356 184.824 96.2394C185.088 96.1229 185.372 96.0605 185.661 96.0559C185.949 96.0513 186.236 96.1046 186.503 96.2127C186.771 96.3208 187.014 96.4814 187.218 96.6851C187.643 97.1048 187.887 97.6734 187.899 98.2703C187.911 98.8671 187.69 99.4452 187.283 99.8816L180.886 106.707L188.727 116.521C189.1 116.986 189.277 117.578 189.222 118.171C189.166 118.764 188.883 119.313 188.432 119.702" fill="#4A4846"/>
<path d="M149.254 98.3194V117.946C149.254 118.53 149.022 119.089 148.61 119.501C148.197 119.914 147.638 120.146 147.055 120.146C146.471 120.146 145.912 119.914 145.499 119.501C145.087 119.089 144.855 118.53 144.855 117.946V110.385H133.859V117.943C133.859 118.525 133.627 119.083 133.216 119.495C132.804 119.907 132.246 120.138 131.663 120.138C131.081 120.138 130.523 119.907 130.111 119.495C129.699 119.083 129.468 118.525 129.468 117.943V98.3194C129.468 97.7371 129.699 97.1787 130.111 96.767C130.523 96.3552 131.081 96.1239 131.663 96.1239C132.246 96.1239 132.804 96.3552 133.216 96.767C133.627 97.1787 133.859 97.7371 133.859 98.3194V105.873H144.855V98.3194C144.855 97.7361 145.087 97.1767 145.499 96.7643C145.912 96.3518 146.471 96.1201 147.055 96.1201C147.638 96.1201 148.197 96.3518 148.61 96.7643C149.022 97.1767 149.254 97.7361 149.254 98.3194" fill="#4A4846"/>
<path d="M122.547 116.93L112.848 97.2805C112.672 96.9152 112.397 96.6067 112.054 96.39C111.712 96.1732 111.315 96.0571 110.91 96.0547C110.504 96.0524 110.106 96.1639 109.761 96.3766C109.416 96.5892 109.137 96.8946 108.957 97.2578C109.139 96.8786 109.037 97.0379 108.923 97.2805L99.2159 116.93C98.9538 117.462 98.9077 118.075 99.0872 118.641C99.2668 119.206 99.658 119.68 100.179 119.964C100.437 120.099 100.719 120.18 101.009 120.204C101.299 120.228 101.591 120.194 101.868 120.103C102.144 120.012 102.399 119.867 102.619 119.675C102.838 119.484 103.017 119.251 103.144 118.989L104.695 115.853H117.091L118.642 118.982C118.765 119.244 118.94 119.479 119.156 119.671C119.372 119.864 119.626 120.011 119.901 120.103C120.175 120.195 120.466 120.23 120.755 120.206C121.044 120.182 121.325 120.099 121.581 119.964C122.106 119.685 122.502 119.211 122.683 118.644C122.864 118.077 122.815 117.462 122.547 116.93V116.93ZM106.917 111.348L110.906 103.302L114.88 111.348H106.917Z" fill="#4A4846"/>
<path d="M87.9687 96.0671C86.979 96.0671 91.2373 96.0671 79.9109 96.0671C79.3209 96.0731 78.7573 96.3128 78.3437 96.7336C77.93 97.1543 77.7 97.7219 77.704 98.3119V117.969C77.6917 118.266 77.7396 118.563 77.8449 118.841C77.9501 119.12 78.1106 119.374 78.3165 119.588C78.5225 119.803 78.7697 119.974 79.0434 120.091C79.3171 120.207 79.6115 120.268 79.909 120.268C80.2066 120.268 80.501 120.207 80.7747 120.091C81.0483 119.974 81.2956 119.803 81.5016 119.588C81.7075 119.374 81.8679 119.12 81.9732 118.841C82.0785 118.563 82.1264 118.266 82.114 117.969V113.176H87.8019C92.3749 113.176 96.1441 109.354 96.1441 104.629C96.1441 99.9045 92.4963 96.1657 87.9801 96.0671H87.9687ZM87.8057 108.664H82.1178V100.568H87.7071H87.7981H87.8398C88.8921 100.605 89.8885 101.051 90.6178 101.81C91.3471 102.57 91.7519 103.583 91.7465 104.636C91.7411 105.689 91.3258 106.699 90.5887 107.45C89.8516 108.202 88.8507 108.638 87.7981 108.664" fill="#4A4846"/>
<path d="M58.4602 95.3467C51.5969 95.3467 46 101.08 46 108.129C46 115.178 51.5969 120.934 58.4602 120.934C65.3198 120.934 70.909 115.205 70.909 108.129C70.909 101.053 65.3198 95.3467 58.4602 95.3467ZM58.4602 116.411C54.0161 116.411 50.3948 112.695 50.3948 108.129C50.3948 103.564 54.0275 99.8666 58.4526 99.8666C62.8778 99.8666 66.5104 103.579 66.5104 108.129C66.5104 112.679 62.8929 116.411 58.4526 116.411" fill="#4A4846"/>
<path d="M167.314 143.337L161.74 132.045C161.638 131.835 161.479 131.658 161.281 131.534C161.084 131.41 160.855 131.345 160.622 131.345C160.388 131.345 160.16 131.41 159.962 131.534C159.764 131.658 159.605 131.835 159.503 132.045C159.605 131.813 159.549 131.916 159.484 132.045L153.902 143.337C153.75 143.643 153.723 143.996 153.826 144.321C153.93 144.647 154.155 144.919 154.456 145.081C154.604 145.159 154.766 145.207 154.933 145.221C155.1 145.235 155.268 145.215 155.427 145.163C155.586 145.111 155.733 145.028 155.859 144.918C155.986 144.808 156.089 144.674 156.162 144.524L157.053 142.723H164.178L165.07 144.52C165.14 144.671 165.241 144.805 165.366 144.915C165.49 145.026 165.635 145.11 165.793 145.162C165.951 145.214 166.118 145.234 166.283 145.221C166.449 145.207 166.61 145.159 166.757 145.081C167.06 144.921 167.288 144.649 167.392 144.323C167.496 143.997 167.468 143.643 167.314 143.337ZM158.331 140.129L160.606 135.507L162.882 140.129H158.331Z" fill="#4A4846"/>
<path d="M134.81 139.276H134.783V142.628H134.81V139.276Z" fill="#4A4846"/>
<path d="M214.838 143.265L210.341 137.642V137.619L214.019 133.698C214.253 133.446 214.379 133.114 214.372 132.771C214.365 132.428 214.225 132.101 213.981 131.859C213.864 131.741 213.724 131.649 213.57 131.587C213.417 131.524 213.252 131.494 213.086 131.497C212.92 131.499 212.756 131.536 212.604 131.603C212.453 131.671 212.316 131.768 212.203 131.889L206.602 137.839V132.795C206.602 132.46 206.469 132.137 206.231 131.9C205.994 131.662 205.672 131.529 205.336 131.529C205 131.529 204.678 131.662 204.44 131.9C204.203 132.137 204.069 132.46 204.069 132.795V144.084C204.069 144.42 204.203 144.742 204.44 144.98C204.678 145.217 205 145.35 205.336 145.35C205.672 145.35 205.994 145.217 206.231 144.98C206.469 144.742 206.602 144.42 206.602 144.084V141.585L208.559 139.503L212.878 144.918C212.984 145.047 213.114 145.153 213.261 145.232C213.408 145.31 213.57 145.358 213.735 145.374C213.901 145.39 214.069 145.373 214.228 145.324C214.387 145.275 214.536 145.195 214.664 145.089C214.922 144.866 215.084 144.551 215.116 144.212C215.149 143.872 215.049 143.533 214.838 143.265Z" fill="#4A4846"/>
<path d="M188.769 131.335C188.43 131.342 188.107 131.483 187.87 131.726C187.634 131.97 187.503 132.297 187.506 132.636V136.982H181.17V132.636C181.179 132.465 181.154 132.293 181.095 132.132C181.036 131.971 180.944 131.823 180.826 131.699C180.708 131.574 180.566 131.475 180.408 131.407C180.251 131.339 180.081 131.304 179.909 131.304C179.738 131.304 179.568 131.339 179.41 131.407C179.252 131.475 179.11 131.574 178.992 131.699C178.874 131.823 178.783 131.971 178.724 132.132C178.665 132.293 178.639 132.465 178.648 132.636V143.925C178.639 144.096 178.665 144.267 178.724 144.429C178.783 144.59 178.874 144.737 178.992 144.862C179.11 144.986 179.252 145.086 179.41 145.154C179.568 145.221 179.738 145.256 179.909 145.256C180.081 145.256 180.251 145.221 180.408 145.154C180.566 145.086 180.708 144.986 180.826 144.862C180.944 144.737 181.036 144.59 181.095 144.429C181.154 144.267 181.179 144.096 181.17 143.925V139.583H187.502V143.928C187.493 144.1 187.519 144.272 187.578 144.434C187.637 144.596 187.729 144.743 187.847 144.868C187.966 144.993 188.108 145.093 188.266 145.161C188.425 145.229 188.595 145.264 188.767 145.264C188.939 145.264 189.11 145.229 189.268 145.161C189.426 145.093 189.568 144.993 189.687 144.868C189.805 144.743 189.897 144.596 189.956 144.434C190.015 144.272 190.041 144.1 190.032 143.928V132.636C190.036 132.296 189.905 131.968 189.667 131.724C189.43 131.48 189.105 131.34 188.765 131.335" fill="#4A4846"/>
<path d="M143.8 140.967C143.797 139.863 143.361 138.804 142.586 138.018C141.812 137.231 140.76 136.779 139.656 136.758H134.795V133.944H141.62C141.964 133.944 142.294 133.808 142.537 133.565C142.78 133.321 142.917 132.992 142.917 132.648C142.917 132.304 142.78 131.974 142.537 131.731C142.294 131.487 141.964 131.351 141.62 131.351H133.521C133.352 131.352 133.186 131.387 133.032 131.453C132.877 131.519 132.737 131.614 132.619 131.734C132.501 131.855 132.409 131.997 132.346 132.153C132.283 132.309 132.252 132.476 132.254 132.644V132.644V143.929C132.251 144.097 132.282 144.265 132.344 144.422C132.406 144.579 132.498 144.722 132.616 144.843C132.734 144.964 132.875 145.06 133.03 145.127C133.185 145.193 133.352 145.228 133.521 145.229H139.648C140.752 145.208 141.804 144.756 142.579 143.97C143.353 143.183 143.789 142.124 143.793 141.02V141.02C143.793 141.02 143.793 141.02 143.793 140.994C143.793 140.967 143.793 140.994 143.793 140.967H143.8ZM139.622 142.628H134.795V139.359H139.652C140.086 139.359 140.501 139.532 140.808 139.838C141.114 140.145 141.286 140.56 141.286 140.994C141.286 141.427 141.114 141.843 140.808 142.149C140.501 142.456 140.086 142.628 139.652 142.628" fill="#4A4846"/>
</svg>
