<svg width="349" height="236" viewBox="0 0 349 236" fill="none" xmlns="http://www.w3.org/2000/svg">
<rect y="0.969971" width="349" height="234.06" fill="white"/>
<path d="M72.16 135.67H63V97.51H72.16V103C73.2516 101.056 74.8525 99.4452 76.7906 98.3423C78.7287 97.2393 80.9307 96.6854 83.16 96.74C91.25 96.74 97.36 102.09 97.36 112.85V135.67H88.2V114.67C88.2 108.26 85.2 104.75 80.2 104.75C75.2 104.75 72.2 108.26 72.2 114.67L72.16 135.67Z" fill="#74B65F"/>
<path d="M141.82 119.62H113.12C114.12 125.19 117.78 128.4 123.43 128.4C127.43 128.4 129.84 126.87 131.06 124.2H140.98C138.69 132.14 132.05 136.42 123.04 136.42C112.13 136.42 104.12 128.25 104.12 116.57C104.12 104.89 112.12 96.72 123.04 96.72C133.96 96.72 141.97 104.89 141.97 116.57C141.97 117.64 141.9 118.63 141.82 119.57V119.62ZM113.2 113.09H132.89C131.89 107.74 128.39 104.69 123.04 104.69C117.69 104.69 114.19 107.74 113.2 113.09Z" fill="#74B65F"/>
<path d="M197.37 97.51H188.21V135.67H197.37V97.51Z" fill="#74B65F"/>
<path d="M223.6 155.52C213.45 155.52 205.89 148.72 204.51 138.72H213.75C214.044 141.098 215.218 143.28 217.042 144.835C218.865 146.39 221.205 147.206 223.6 147.12C229.86 147.12 233.52 142.39 233.52 135.67V130.86C232.161 132.598 230.423 134.004 228.439 134.969C226.455 135.934 224.277 136.434 222.07 136.43C211.61 136.43 203.75 128.27 203.75 116.59C203.75 104.91 211.61 96.74 222.07 96.74C224.271 96.7418 226.442 97.2453 228.419 98.2122C230.397 99.1791 232.127 100.584 233.48 102.32V97.51H242.64V135.67C242.64 147.35 234.09 155.52 223.56 155.52H223.6ZM233.48 116.62C233.48 109.75 229.05 105.17 223.18 105.17C217.31 105.17 212.91 109.72 212.91 116.62C212.91 123.52 217.34 128.07 223.22 128.07C229.1 128.07 233.48 123.46 233.48 116.62Z" fill="#74B65F"/>
<path d="M260.66 135.67H251.48V97.51H260.64V103C261.732 101.056 263.332 99.4452 265.271 98.3423C267.209 97.2393 269.411 96.6854 271.64 96.74C279.73 96.74 285.84 102.09 285.84 112.85V135.67H276.68V114.67C276.68 108.26 273.63 104.75 268.68 104.75C263.73 104.75 260.68 108.26 260.68 114.67L260.66 135.67Z" fill="#74B65F"/>
<path d="M157.56 120.45V135.67H142.34L157.56 120.45Z" fill="#74B65F"/>
<path d="M168.6 112.61V97.51H183.7L168.6 112.61Z" fill="#74B65F"/>
<path d="M183.65 135.67L154.67 97.51H142.39L171.37 135.67H183.65Z" fill="#74B65F"/>
<path d="M197.37 81H188.21V90.16H197.37V81Z" fill="#74B65F"/>
</svg>
