<svg width="349" height="236" viewBox="0 0 349 236" fill="none" xmlns="http://www.w3.org/2000/svg">
<rect y="0.969971" width="349" height="234.06" fill="white"/>
<path d="M292.023 128.625C292.038 127.696 292.419 126.81 293.082 126.159C293.745 125.508 294.638 125.143 295.568 125.143C296.498 125.143 297.391 125.508 298.054 126.159C298.718 126.81 299.098 127.696 299.114 128.625V154.541L299.05 155.665C297.948 159.183 294.211 158.861 294.211 158.861C291.904 158.948 290.778 157.315 290.778 157.315L281.135 140.048C281.037 139.885 280.748 140.088 280.738 140.254V155.666C280.746 156.148 280.658 156.627 280.479 157.074C280.3 157.521 280.034 157.929 279.696 158.272C279.358 158.615 278.955 158.888 278.51 159.075C278.065 159.261 277.588 159.357 277.106 159.357C276.623 159.357 276.146 159.261 275.701 159.075C275.256 158.888 274.853 158.615 274.515 158.272C274.177 157.929 273.911 157.521 273.732 157.074C273.553 156.627 273.465 156.148 273.473 155.666V130.28C273.481 129.801 273.617 129.332 273.865 128.923C274.182 128.336 274.723 127.033 276.748 126.187C278.691 125.379 281.51 126.348 282.514 127.998C285.826 133.42 288.585 138.986 291.725 144.28C292.047 144.336 292.023 143.808 292.023 143.808V128.625Z" fill="#D24A46"/>
<path d="M307.001 128.066C307.002 128.585 306.848 129.092 306.56 129.523C306.272 129.954 305.862 130.29 305.383 130.488C304.903 130.687 304.376 130.739 303.867 130.637C303.358 130.536 302.89 130.286 302.523 129.92C302.157 129.553 301.907 129.085 301.806 128.577C301.705 128.068 301.758 127.541 301.957 127.063C302.156 126.584 302.493 126.175 302.925 125.888C303.357 125.6 303.865 125.447 304.384 125.448C305.079 125.45 305.745 125.727 306.235 126.219C306.726 126.71 307.001 127.376 307.001 128.07V128.066ZM302.133 128.07C302.138 128.512 302.274 128.943 302.524 129.308C302.774 129.673 303.126 129.956 303.536 130.122C303.946 130.287 304.396 130.328 304.83 130.239C305.263 130.149 305.66 129.934 305.971 129.62C306.283 129.306 306.494 128.907 306.579 128.473C306.664 128.039 306.618 127.59 306.448 127.182C306.278 126.774 305.991 126.425 305.623 126.18C305.255 125.934 304.822 125.803 304.38 125.802C304.083 125.804 303.79 125.863 303.516 125.978C303.243 126.093 302.995 126.261 302.786 126.471C302.577 126.682 302.412 126.931 302.3 127.206C302.188 127.48 302.131 127.774 302.133 128.07V128.07ZM304.522 126.595C304.708 126.595 305.578 126.595 305.578 127.41C305.578 127.741 305.429 128.045 305.025 128.139V128.153C305.433 128.269 305.511 128.516 305.528 128.9C305.551 129.406 305.551 129.469 305.618 129.593H305.245C305.189 129.503 305.168 129.414 305.157 129.036C305.157 128.564 305.074 128.324 304.384 128.324H303.634V129.593H303.259V126.591L304.522 126.595ZM303.634 127.981H304.392C304.591 127.981 305.203 127.981 305.203 127.431C305.203 126.947 304.659 126.947 304.464 126.947H303.639L303.634 127.981Z" fill="#D24A46"/>
<path d="M97.4823 126.391C99.2265 127.065 100.05 128.444 101.198 129.641C103.166 131.712 104.863 133.809 107.009 135.724C107.146 135.845 107.534 135.845 107.638 135.724C110.355 132.493 112.545 129.229 115.877 126.613C117.702 125.188 120.669 126.228 121.232 128.641C121.508 129.813 121.107 130.899 120.475 131.734C117.297 135.918 114.212 139.375 111.027 143.311C110.936 147.659 111.027 151.321 111.027 155.876C111.027 157.673 108.893 159.077 107.455 159.049C106.423 159.049 105.16 158.595 104.529 157.433C104.22 156.892 104.001 156.248 103.98 155.725C103.815 151.609 103.628 147.497 103.638 143.373C99.0634 137.545 93.0073 132.423 92.7596 130.28C92.4768 127.826 94.3077 125.174 97.4803 126.397" fill="#D24A46"/>
<path d="M151.592 151.714V129.657C151.57 124.028 143.829 124.946 144.092 129.529V156.975C144.092 156.975 144.092 159.258 146.848 159.045H159.083C159.083 159.045 162.606 159.122 162.817 155.648C162.817 155.648 162.787 152.62 159.907 151.985L151.968 151.956C151.898 151.939 151.832 151.909 151.775 151.866C151.717 151.823 151.669 151.769 151.632 151.708C151.596 151.646 151.573 151.577 151.563 151.506C151.554 151.435 151.559 151.363 151.579 151.294" fill="#D24A46"/>
<path d="M139.552 155.45C139.242 158.493 137.02 159.148 135.671 159.058C134.699 158.879 132.854 158.533 132.431 156.369C132.161 154.983 132.1 152.864 132.064 152.555C132.055 152.474 122.996 152.528 122.982 152.528C121.4 154.59 119.845 157.081 118.389 158.485C117.863 158.988 117.082 159.121 116.505 159.079C115.085 158.993 113.538 158.254 113.006 156.805C112.68 155.93 112.364 154.91 112.982 154.013C117.243 147.89 121.083 142.769 125.48 136.818C127.909 133.529 130.073 130.617 132.557 127.448C133.838 125.823 134.957 125.763 136.117 125.741C136.043 125.741 139.268 125.673 139.541 128.636V155.435L139.552 155.45ZM130.501 145.332C130.533 145.332 132.087 145.387 132.094 145.332C132.144 143.596 132.094 141.528 132.062 139.85C130.761 141.559 129.697 143.074 128.45 144.75C128.332 144.907 128.256 145.277 128.62 145.303C129.287 145.343 130.154 145.277 130.506 145.332" fill="#D24A46"/>
<path d="M95.9203 142.659C95.9203 151.823 88.4811 159.251 79.2926 159.251C70.1041 159.251 62.6763 151.828 62.6763 142.659C62.6763 133.491 70.1175 126.049 79.2926 126.049C81.4763 126.049 83.6387 126.478 85.6562 127.313C87.6737 128.147 89.5069 129.371 91.051 130.913C92.5951 132.456 93.8199 134.287 94.6554 136.303C95.4909 138.318 95.9207 140.478 95.9203 142.659V142.659ZM79.3566 133.746C77.5926 133.746 75.8683 134.269 74.4017 135.248C72.9351 136.227 71.7921 137.619 71.1172 139.247C70.4423 140.875 70.2657 142.667 70.6099 144.395C70.9541 146.123 71.8035 147.711 73.0508 148.957C74.298 150.203 75.8872 151.052 77.6173 151.396C79.3473 151.74 81.1407 151.564 82.7706 150.89C84.4005 150.215 85.7937 149.074 86.7741 147.609C87.7546 146.144 88.2782 144.422 88.2788 142.659C88.278 140.296 87.3377 138.029 85.6647 136.358C83.9917 134.686 81.7227 133.747 79.3566 133.746" fill="#D24A46"/>
<path d="M172.806 140.555C173.543 134.7 177.473 129.746 182.702 127.528C189.01 124.847 196.551 126.347 200.946 131.827C201.896 133.011 201.609 134.581 200.73 135.772C199.806 137.009 198.334 137.639 197.014 137.133C194.782 136.261 193.249 134.268 190.768 133.748C185.656 132.691 180.854 136.084 180.117 141.052C179.395 145.987 182.204 150.721 187.231 151.671C190.749 152.336 193.513 150.434 196.416 148.4C197.789 147.434 200.088 147.92 200.945 149.637C201.461 150.668 201.841 151.783 201.212 152.896C198.847 157.074 194.033 158.576 189.591 159C186.179 159.33 183.065 158.144 180.149 156.371C174.796 153.114 172.006 146.908 172.811 140.551" fill="#D24A46"/>
<path d="M203.511 155.372V128.566C203.783 125.606 207.02 125.679 206.934 125.679C208.101 125.701 209.218 125.761 210.495 127.387C212.988 130.558 215.139 133.469 217.577 136.757C221.98 142.71 225.811 147.829 230.074 153.955C230.694 154.844 230.373 155.865 230.052 156.739C229.519 158.182 227.97 158.924 226.543 159.007C225.977 159.047 225.19 158.904 224.667 158.414C223.211 157.01 221.655 154.515 220.068 152.455C220.056 152.455 211.002 152.396 210.986 152.477C210.951 152.792 210.889 154.907 210.621 156.291C210.195 158.449 208.35 158.805 207.382 158.98C207.24 159.008 207.579 158.959 207.382 158.98C206.027 159.071 203.81 158.421 203.499 155.38L203.511 155.372ZM214.445 145.236C214.806 145.222 214.729 144.849 214.608 144.689C213.357 143.011 212.289 141.493 210.995 139.79C210.96 141.467 210.909 143.533 210.972 145.268C210.972 145.325 212.52 145.268 212.556 145.268C212.9 145.216 213.783 145.28 214.446 145.239" fill="#D24A46"/>
<path d="M42.8717 128.954C44.9482 127.245 45.9947 126.576 49.3025 126.137C52.1015 125.767 54.5537 126.941 54.9108 127.065C59.3105 128.538 62.2849 133.6 61.6945 138.612C61.3457 141.59 59.5778 144.283 57.3784 146.223C59.5014 150.918 63.4728 153.978 62.8432 156.304C62.4067 157.91 61.9608 158.328 60.5438 158.943C59.6335 159.336 58.3228 159.233 57.5694 158.588C53.8797 155.455 51.9353 150.928 48.8277 147.688C48.0619 146.894 47.7193 147.247 47.7193 147.68C47.7276 151.478 47.7606 154.299 47.5593 156.156C47.4427 157.268 46.3952 158.549 45.6748 158.905C43.6901 159.899 41.0026 158.699 40.6569 156.473C40.5877 156.074 40.0376 154.354 40.0046 146.512C39.9943 142.63 40.0046 141.78 40.0046 135.615C40.0046 133.098 41.1977 130.33 42.8717 128.958V128.954ZM50.8062 140.656C52.9189 140.656 54.6321 139.08 54.6321 137.127C54.6321 135.173 52.9189 133.593 50.8062 133.593C48.6936 133.593 46.9772 135.176 46.9772 137.125C46.9772 139.075 48.6905 140.655 50.8062 140.655" fill="#D24A46"/>
<path d="M291.993 128.624C291.993 127.68 292.368 126.776 293.036 126.109C293.703 125.442 294.609 125.067 295.553 125.067C296.498 125.067 297.403 125.442 298.071 126.109C298.739 126.776 299.114 127.68 299.114 128.624V154.66L299.044 155.794C297.941 159.329 294.183 159.002 294.183 159.002C291.868 159.088 290.739 157.455 290.739 157.455L281.051 140.11C280.947 139.947 280.662 140.149 280.653 140.316V155.797C280.661 156.281 280.573 156.762 280.393 157.212C280.214 157.661 279.946 158.07 279.606 158.415C279.267 158.761 278.861 159.035 278.415 159.222C277.968 159.409 277.488 159.505 277.003 159.505C276.519 159.505 276.039 159.409 275.592 159.222C275.145 159.035 274.74 158.761 274.401 158.415C274.061 158.07 273.793 157.661 273.614 157.212C273.434 156.762 273.345 156.281 273.354 155.797V130.287C273.362 129.805 273.499 129.335 273.75 128.924C274.067 128.335 274.613 127.026 276.646 126.176C278.598 125.365 281.426 126.338 282.437 127.993C285.768 133.442 288.532 139.034 291.691 144.352C292.015 144.409 291.993 143.877 291.993 143.877V128.624Z" fill="#D24A46"/>
<path d="M250.746 128.624C250.768 127.695 251.153 126.812 251.818 126.164C252.484 125.515 253.376 125.152 254.306 125.152C255.236 125.152 256.129 125.515 256.794 126.164C257.459 126.812 257.844 127.695 257.867 128.624V154.66L257.798 155.794C256.69 159.33 252.94 159.002 252.94 159.002C250.618 159.088 249.497 157.455 249.497 157.455L239.795 140.11C239.701 139.947 239.401 140.149 239.398 140.316V155.797C239.406 156.281 239.318 156.761 239.138 157.21C238.959 157.659 238.692 158.067 238.352 158.412C238.013 158.756 237.609 159.03 237.162 159.217C236.716 159.404 236.237 159.5 235.753 159.5C235.269 159.5 234.79 159.404 234.344 159.217C233.898 159.03 233.493 158.756 233.154 158.412C232.815 158.067 232.548 157.659 232.368 157.21C232.189 156.761 232.1 156.281 232.108 155.797V130.287C232.116 129.807 232.249 129.337 232.494 128.924C232.821 128.335 233.359 127.026 235.39 126.176C237.345 125.365 240.179 126.338 241.188 127.993C244.514 133.442 247.277 139.034 250.429 144.353C250.763 144.409 250.738 143.877 250.738 143.877L250.746 128.624Z" fill="#D24A46"/>
<path d="M269.498 155.585C269.498 156.606 269.092 157.585 268.369 158.307C267.646 159.029 266.666 159.435 265.644 159.435C264.622 159.435 263.641 159.029 262.919 158.307C262.196 157.585 261.79 156.606 261.79 155.585V128.883C261.79 127.862 262.196 126.882 262.919 126.161C263.641 125.439 264.622 125.033 265.644 125.033C266.666 125.033 267.646 125.439 268.369 126.161C269.092 126.882 269.498 127.862 269.498 128.883V155.585Z" fill="#D24A46"/>
<path d="M140.177 113.438C139.568 113.438 138.973 113.247 138.478 112.891C137.983 112.535 137.613 112.033 137.421 111.455C137.228 110.877 137.222 110.253 137.405 109.672C137.587 109.091 137.948 108.581 138.436 108.217C146.143 102.456 157.942 99.0142 169.985 99.0142C181.989 99.0142 193.754 102.454 201.457 108.217C202.061 108.682 202.457 109.365 202.56 110.12C202.662 110.874 202.464 111.639 202.007 112.248C201.551 112.857 200.872 113.263 200.119 113.377C199.365 113.49 198.597 113.303 197.98 112.856C192.779 108.968 182.693 104.814 169.988 104.814C157.223 104.814 147.121 108.969 141.915 112.856C141.415 113.233 140.805 113.436 140.178 113.434" fill="#D24A46"/>
<path d="M142.831 118.391C142.421 118.392 142.021 118.267 141.686 118.031C141.351 117.796 141.096 117.463 140.958 117.078C140.82 116.693 140.805 116.274 140.915 115.88C141.024 115.486 141.253 115.135 141.57 114.876C148.234 109.405 158.857 106.141 169.99 106.141C181.069 106.141 191.664 109.404 198.326 114.876C198.529 115.04 198.698 115.243 198.823 115.473C198.947 115.703 199.025 115.955 199.052 116.215C199.078 116.475 199.053 116.738 198.978 116.989C198.902 117.239 198.778 117.472 198.612 117.674C198.446 117.876 198.241 118.043 198.01 118.166C197.779 118.289 197.526 118.365 197.265 118.389C197.005 118.414 196.742 118.387 196.492 118.309C196.242 118.232 196.01 118.106 195.809 117.939C189.823 113.034 180.178 110.103 169.99 110.103C159.904 110.103 149.977 113.105 144.092 117.939C143.737 118.233 143.291 118.392 142.831 118.39" fill="#D24A46"/>
<path d="M127.277 76.655C126.104 76.6564 124.952 76.9675 123.938 77.5569C122.924 78.1464 122.085 78.9931 121.504 80.0112C120.923 81.0294 120.623 82.1828 120.632 83.3546C120.642 84.5263 120.961 85.6747 121.558 86.6833C122.149 87.6693 122.984 88.4871 123.982 89.0584C124.98 89.6298 126.109 89.9355 127.259 89.9464H127.305C128.179 89.9444 129.044 89.7704 129.851 89.4343C130.658 89.0982 131.391 88.6067 132.007 87.9878C132.624 87.3688 133.113 86.6346 133.445 85.8271C133.778 85.0195 133.948 84.1544 133.946 83.2811C133.944 82.4078 133.77 81.5435 133.433 80.7375C133.097 79.9315 132.605 79.1996 131.985 78.5835C131.366 77.9674 130.631 77.4793 129.822 77.147C129.014 76.8147 128.148 76.6447 127.274 76.6467" fill="#D24A46"/>
<path d="M169.949 81.7708C168.633 81.7701 167.346 82.1596 166.251 82.8899C165.156 83.6202 164.302 84.6585 163.798 85.8735C163.294 87.0885 163.162 88.4255 163.418 89.7155C163.675 91.0055 164.309 92.1905 165.24 93.1206C166.171 94.0507 167.357 94.684 168.648 94.9406C169.939 95.1972 171.278 95.0654 172.494 94.5619C173.71 94.0585 174.75 93.206 175.481 92.1122C176.212 91.0185 176.603 89.7327 176.602 88.4175C176.599 86.6559 175.897 84.9675 174.65 83.7218C173.403 82.4761 171.713 81.7746 169.949 81.7708Z" fill="#D24A46"/>
<path d="M169.949 65.1206C168.633 65.12 167.346 65.5094 166.251 66.2397C165.156 66.9699 164.302 68.0082 163.798 69.2231C163.294 70.438 163.162 71.775 163.418 73.065C163.675 74.355 164.308 75.54 165.239 76.4701C166.17 77.4002 167.356 78.0337 168.647 78.2903C169.939 78.547 171.277 78.4154 172.493 77.9121C173.71 77.4088 174.749 76.5564 175.481 75.4628C176.212 74.3692 176.602 73.0836 176.602 71.7684C176.599 70.0067 175.897 68.3182 174.65 67.0723C173.403 65.8265 171.713 65.1247 169.949 65.1206" fill="#D24A46"/>
<path d="M152.242 84.0866C151.648 84.0867 151.056 84.1654 150.482 84.3206C148.929 84.7444 147.582 85.716 146.692 87.0554C145.801 88.3948 145.427 90.0112 145.638 91.6053C145.849 93.1993 146.632 94.6629 147.84 95.7249C149.049 96.7869 150.602 97.3753 152.211 97.3811H152.362C152.917 97.3706 153.469 97.2913 154.004 97.145C155.557 96.7182 156.903 95.7433 157.791 94.401C158.68 93.0587 159.051 91.4401 158.836 89.8454C158.621 88.2506 157.834 86.7878 156.621 85.7283C155.409 84.6688 153.853 84.0844 152.242 84.0835" fill="#D24A46"/>
<path d="M135.762 90.9868C134.287 90.9909 132.856 91.4834 131.692 92.3871C130.528 93.2908 129.697 94.5548 129.329 95.9809C129.111 96.8269 129.062 97.7075 129.185 98.5724C129.308 99.4372 129.6 100.269 130.045 101.021C130.638 102.007 131.474 102.824 132.473 103.394C133.472 103.965 134.601 104.27 135.751 104.281H135.791C136.98 104.279 138.148 103.959 139.172 103.353C140.689 102.454 141.787 100.99 142.225 99.283C142.664 97.5759 142.407 95.7648 141.51 94.2468C140.916 93.2529 140.074 92.4297 139.067 91.8575C138.059 91.2853 136.921 90.9835 135.762 90.9817" fill="#D24A46"/>
<path d="M189.409 84.3204C188.139 83.9736 186.794 84.0106 185.546 84.427C184.297 84.8433 183.2 85.6202 182.393 86.6594C181.586 87.6987 181.106 88.9535 181.013 90.2654C180.92 91.5773 181.218 92.8873 181.871 94.0296C182.523 95.172 183.5 96.0955 184.677 96.6834C185.855 97.2712 187.181 97.497 188.487 97.3322C189.793 97.1674 191.021 96.6194 192.016 95.7575C193.01 94.8956 193.726 93.7585 194.074 92.4899C194.526 90.7891 194.29 88.9789 193.417 87.4504C192.544 85.9218 191.104 84.7976 189.409 84.3204" fill="#D24A46"/>
<path d="M193.803 68.2609C192.533 67.9146 191.189 67.9521 189.941 68.3688C188.692 68.7855 187.595 69.5626 186.789 70.6019C185.983 71.6413 185.503 72.8961 185.41 74.2077C185.318 75.5194 185.617 76.829 186.269 77.971C186.922 79.1129 187.899 80.036 189.077 80.6234C190.254 81.2108 191.58 81.4362 192.886 81.2711C194.192 81.106 195.419 80.5578 196.413 79.6958C197.407 78.8338 198.123 77.6967 198.47 76.4284C198.705 75.5859 198.771 74.7052 198.664 73.8372C198.556 72.9692 198.277 72.1312 197.843 71.3716C197.409 70.612 196.828 69.946 196.135 69.412C195.441 68.8781 194.649 68.4868 193.803 68.2609Z" fill="#D24A46"/>
<path d="M207.503 91.9116C206.177 91.126 204.619 90.8243 203.094 91.058C201.57 91.2916 200.174 92.0462 199.144 93.1929C198.114 94.3397 197.515 95.8077 197.447 97.3468C197.38 98.8858 197.849 100.401 198.774 101.633C199.7 102.865 201.024 103.739 202.522 104.105C204.02 104.47 205.599 104.306 206.989 103.639C208.379 102.973 209.495 101.845 210.146 100.448C210.797 99.0517 210.943 97.4729 210.559 95.9809C210.343 95.135 209.962 94.3401 209.438 93.6418C208.913 92.9435 208.256 92.3555 207.503 91.9116" fill="#D24A46"/>
<path d="M219.045 81.6504C218.679 80.2221 217.848 78.9561 216.682 78.0518C215.516 77.1474 214.083 76.6561 212.607 76.6553C211.451 76.6581 210.315 76.9602 209.31 77.5323C208.305 78.1044 207.466 78.9268 206.875 79.9194C206.278 80.9284 205.959 82.077 205.949 83.249C205.94 84.4209 206.241 85.5745 206.822 86.5929C207.402 87.6113 208.242 88.4584 209.256 89.0482C210.269 89.6381 211.421 89.9498 212.595 89.9518C213.752 89.9498 214.889 89.6476 215.895 89.0747C216.9 88.5018 217.74 87.6779 218.331 86.6836C218.778 85.9334 219.071 85.1019 219.194 84.2375C219.316 83.3732 219.266 82.493 219.045 81.6483" fill="#D24A46"/>
<path d="M147.851 81.3222C149.242 81.3196 150.598 80.8812 151.727 80.0689C152.857 79.2566 153.703 78.1111 154.146 76.7935C154.59 75.4759 154.609 74.0526 154.201 72.7236C153.793 71.3946 152.978 70.2268 151.871 69.3844C150.764 68.542 149.421 68.0675 148.03 68.0274C146.639 67.9874 145.27 68.3839 144.116 69.1612C142.963 69.9385 142.082 71.0575 141.598 72.3608C141.114 73.6641 141.051 75.0862 141.418 76.4271C141.809 77.8246 142.644 79.0573 143.797 79.9401C144.95 80.8228 146.359 81.3078 147.811 81.3222H147.851Z" fill="#D24A46"/>
</svg>
