<svg width="349" height="236" viewBox="0 0 349 236" fill="none" xmlns="http://www.w3.org/2000/svg">
<rect y="0.969971" width="349" height="234.06" fill="white"/>
<path d="M90.1662 159.747H84.116V151.565H77V173.755H84.116V165.9H90.1662V173.755H97.2822V151.565H90.1662V159.747ZM156.152 159.747H150.085V151.565H142.969V173.755H150.085V165.9H156.152V173.755H163.251V151.565H156.152V159.747ZM264.645 158.028H261.207V151.582H254.108V173.755H264.61C269.217 173.755 272.981 171.211 272.981 166.708V165.144C272.981 160.641 269.217 158.097 264.61 158.097L264.645 158.028ZM263.888 168.307H261.207V163.442H263.596C263.924 163.411 264.255 163.453 264.566 163.563C264.877 163.673 265.16 163.849 265.396 164.08C265.631 164.311 265.814 164.59 265.93 164.898C266.047 165.207 266.095 165.537 266.071 165.866C266.092 166.168 266.052 166.471 265.952 166.756C265.853 167.042 265.696 167.305 265.492 167.528C265.288 167.752 265.04 167.931 264.765 168.056C264.489 168.181 264.191 168.249 263.888 168.255V168.307ZM218.821 165.316H226.83V160.005H218.821V157.323H227.552V151.548H211.705V173.755H228.205V167.98H218.821V165.316ZM210.003 151.565H202.32L198.556 160.005H196.837V151.651H189.721V173.755H196.837V165.9H198.556L202.389 173.755H210.587L204.554 162.6L210.003 151.565ZM111.497 151.204H108.059C106.951 151.168 105.847 151.36 104.816 151.768C103.786 152.177 102.849 152.792 102.066 153.577C101.283 154.362 100.669 155.299 100.263 156.331C99.8573 157.363 99.6675 158.467 99.7057 159.575V165.746C99.6648 166.854 99.8529 167.958 100.258 168.99C100.663 170.022 101.277 170.959 102.061 171.743C102.845 172.527 103.783 173.141 104.815 173.547C105.847 173.952 106.951 174.14 108.059 174.099H111.497C112.605 174.137 113.709 173.947 114.741 173.541C115.773 173.135 116.71 172.522 117.495 171.739C118.28 170.955 118.895 170.019 119.303 168.988C119.712 167.957 119.904 166.854 119.868 165.746V159.575C119.93 158.459 119.756 157.343 119.357 156.299C118.959 155.256 118.344 154.308 117.554 153.518C116.764 152.728 115.816 152.113 114.772 151.715C113.729 151.316 112.612 151.142 111.497 151.204ZM112.717 166.227C112.717 166.577 112.648 166.923 112.514 167.246C112.381 167.57 112.184 167.863 111.937 168.111C111.69 168.358 111.396 168.554 111.073 168.688C110.749 168.822 110.403 168.891 110.053 168.891H109.452C109.102 168.891 108.755 168.822 108.432 168.688C108.109 168.554 107.815 168.358 107.568 168.111C107.32 167.863 107.124 167.57 106.99 167.246C106.856 166.923 106.787 166.577 106.787 166.227V159.076C106.792 158.371 107.074 157.696 107.573 157.198C108.071 156.699 108.746 156.417 109.452 156.412H110.053C110.758 156.417 111.433 156.699 111.932 157.198C112.431 157.696 112.713 158.371 112.717 159.076V166.227ZM233.448 163.27C233.448 166.622 232.571 167.121 231.299 167.705C230.626 167.874 229.93 167.938 229.237 167.894V173.755H232.021C238.003 173.755 240.22 170.318 240.306 162.48C240.306 160.761 240.306 159.042 240.306 157.426H244.294V173.755H251.392V151.565H233.482L233.448 163.27ZM132.776 151.565H122.308V173.755H129.407V168.324H132.845C137.451 168.324 141.215 165.797 141.215 161.277V158.698C141.215 154.195 137.451 151.651 132.845 151.651L132.776 151.565ZM134.306 160.589C134.322 160.913 134.269 161.237 134.148 161.538C134.028 161.839 133.844 162.111 133.609 162.335C133.374 162.559 133.093 162.729 132.786 162.834C132.479 162.939 132.153 162.976 131.831 162.944H129.407V157.1H132.088C132.383 157.106 132.674 157.171 132.944 157.291C133.214 157.411 133.457 157.582 133.66 157.797C133.863 158.011 134.021 158.263 134.126 158.539C134.231 158.814 134.281 159.108 134.271 159.403L134.306 160.589ZM173.134 162.858V151.651H166.396V173.755H172.636L179.941 162.652V173.755H186.679V151.565H180.422L173.134 162.858Z" fill="#514E49"/>
<path d="M156.529 104.916L189.668 127.278V83.362L156.529 61V104.916Z" fill="#406198"/>
<path d="M156.531 61C147.742 61 139.313 64.4914 133.098 70.7062C126.883 76.921 123.392 85.35 123.392 94.139C123.392 102.928 126.883 111.357 133.098 117.572C139.313 123.787 147.742 127.278 156.531 127.278V61Z" fill="#488DCD"/>
<path d="M189.669 127.347C198.458 127.347 206.887 123.855 213.102 117.641C219.317 111.426 222.808 102.997 222.808 94.2079C222.808 85.4189 219.317 76.9898 213.102 70.775C206.887 64.5603 198.458 61.0688 189.669 61.0688V127.347Z" fill="#488DCD"/>
</svg>
