<svg width="36" height="36" viewBox="0 0 36 36" fill="none" xmlns="http://www.w3.org/2000/svg">
<path d="M3.9375 2.8125V33.1875C3.93802 33.6349 4.11598 34.0638 4.43233 34.3802C4.74869 34.6965 5.17761 34.8745 5.625 34.875H28.125C28.8707 34.8742 29.5855 34.5776 30.1128 34.0503C30.6401 33.523 30.9367 32.8082 30.9375 32.0625V20.7157C31.2663 20.5991 31.5509 20.3836 31.7523 20.0988C31.9537 19.814 32.0621 19.4738 32.0625 19.125V16.875C32.0621 16.5262 31.9537 16.186 31.7523 15.9012C31.5509 15.6164 31.2663 15.4009 30.9375 15.2843V3.9375C30.9367 3.19184 30.6401 2.47695 30.1128 1.94969C29.5855 1.42242 28.8707 1.12584 28.125 1.125H5.625C5.17761 1.12552 4.74869 1.30348 4.43233 1.61983C4.11598 1.93619 3.93802 2.36511 3.9375 2.8125ZM30.9375 19.125C30.9373 19.2741 30.878 19.4171 30.7726 19.5226C30.6671 19.628 30.5241 19.6873 30.375 19.6875H25.3125V16.3125H30.375C30.5241 16.3127 30.6671 16.372 30.7726 16.4774C30.878 16.5829 30.9373 16.7259 30.9375 16.875V19.125ZM23.0625 2.25H26.4375V11.8125L25.0875 10.8C24.9901 10.727 24.8717 10.6875 24.75 10.6875C24.6283 10.6875 24.5099 10.727 24.4125 10.8L23.0625 11.8125V2.25ZM7.3125 2.25H21.9375V12.9375C21.9375 13.042 21.9666 13.1444 22.0215 13.2332C22.0764 13.3221 22.155 13.3939 22.2484 13.4406C22.3419 13.4873 22.4465 13.5071 22.5505 13.4977C22.6546 13.4883 22.7539 13.4502 22.8375 13.3875L24.75 11.9531L26.6625 13.3875C26.7461 13.4502 26.8454 13.4883 26.9495 13.4977C27.0535 13.5071 27.1581 13.4873 27.2516 13.4406C27.345 13.3939 27.4236 13.3221 27.4785 13.2332C27.5334 13.1444 27.5625 13.042 27.5625 12.9375V2.25H28.125C28.5724 2.25052 29.0013 2.42848 29.3177 2.74483C29.634 3.06119 29.812 3.49011 29.8125 3.9375V15.1875H22.5C22.3508 15.1875 22.2077 15.2468 22.1023 15.3523C21.9968 15.4577 21.9375 15.6008 21.9375 15.75V20.25C21.9375 20.3992 21.9968 20.5423 22.1023 20.6477C22.2077 20.7532 22.3508 20.8125 22.5 20.8125H29.8125V32.0625C29.812 32.5099 29.634 32.9388 29.3177 33.2552C29.0013 33.5715 28.5724 33.7495 28.125 33.75H7.3125V2.25ZM23.0625 19.6875V16.3125H24.1875V19.6875H23.0625ZM5.0625 2.8125C5.06267 2.66337 5.12198 2.52039 5.22744 2.41494C5.33289 2.30948 5.47587 2.25017 5.625 2.25H6.1875V33.75H5.625C5.47587 33.7498 5.33289 33.6905 5.22744 33.5851C5.12198 33.4796 5.06267 33.3366 5.0625 33.1875V2.8125Z" fill="#01AEF2"/>
<path d="M29.25 18.5625C29.5607 18.5625 29.8125 18.3107 29.8125 18C29.8125 17.6893 29.5607 17.4375 29.25 17.4375C28.9393 17.4375 28.6875 17.6893 28.6875 18C28.6875 18.3107 28.9393 18.5625 29.25 18.5625Z" fill="#01AEF2"/>
<path d="M19.125 4.5H10.125C9.97582 4.5 9.83274 4.55926 9.72725 4.66475C9.62176 4.77024 9.5625 4.91332 9.5625 5.0625C9.5625 5.21168 9.62176 5.35476 9.72725 5.46025C9.83274 5.56574 9.97582 5.625 10.125 5.625H19.125C19.2742 5.625 19.4173 5.56574 19.5227 5.46025C19.6282 5.35476 19.6875 5.21168 19.6875 5.0625C19.6875 4.91332 19.6282 4.77024 19.5227 4.66475C19.4173 4.55926 19.2742 4.5 19.125 4.5Z" fill="#01AEF2"/>
<path d="M19.125 6.75H10.125C9.97582 6.75 9.83274 6.80926 9.72725 6.91475C9.62176 7.02024 9.5625 7.16332 9.5625 7.3125C9.5625 7.46168 9.62176 7.60476 9.72725 7.71025C9.83274 7.81574 9.97582 7.875 10.125 7.875H19.125C19.2742 7.875 19.4173 7.81574 19.5227 7.71025C19.6282 7.60476 19.6875 7.46168 19.6875 7.3125C19.6875 7.16332 19.6282 7.02024 19.5227 6.91475C19.4173 6.80926 19.2742 6.75 19.125 6.75Z" fill="#01AEF2"/>
<path d="M19.125 9H10.125C9.97582 9 9.83274 9.05926 9.72725 9.16475C9.62176 9.27024 9.5625 9.41332 9.5625 9.5625C9.5625 9.71168 9.62176 9.85476 9.72725 9.96025C9.83274 10.0657 9.97582 10.125 10.125 10.125H19.125C19.2742 10.125 19.4173 10.0657 19.5227 9.96025C19.6282 9.85476 19.6875 9.71168 19.6875 9.5625C19.6875 9.41332 19.6282 9.27024 19.5227 9.16475C19.4173 9.05926 19.2742 9 19.125 9Z" fill="#01AEF2"/>
</svg>
