<svg width="36" height="36" viewBox="0 0 36 36" fill="none" xmlns="http://www.w3.org/2000/svg">
<g clip-path="url(#clip0)">
<path d="M34.3847 10.5545V10.5533C30.2708 1.50469 19.6004 -2.4957 10.5518 1.61823C6.59139 3.41876 3.41725 6.59298 1.61664 10.5534C0.548917 12.891 -0.00151628 15.4316 0.00283319 18.0015V23.6372C-1.64614e-05 24.7515 0.44303 25.8207 1.23328 26.6063L3.65819 29.0318L3.98755 29.9401C5.0039 32.6342 7.60459 34.3981 10.4836 34.3459C10.6096 34.3459 10.7373 34.3303 10.8645 34.3243L10.8945 34.4071C11.3481 35.6605 12.7319 36.309 13.9853 35.8554H13.9853L14.0837 35.82C15.3368 35.3683 15.9863 33.9863 15.5345 32.7333C15.5344 32.7332 15.5344 32.7329 15.5344 32.7328L10.7823 19.5944C10.3253 18.3435 8.94385 17.6964 7.6903 18.1462L7.59312 18.1816C6.52802 18.5623 5.87335 19.6351 6.02191 20.7564C4.99011 21.5076 4.17743 22.5206 3.66779 23.6907C3.6267 23.6101 3.60435 23.5214 3.6024 23.4309V18.0016C3.6024 10.0496 10.0487 3.60332 18.0007 3.60332C25.9526 3.60332 32.3989 10.0496 32.3989 18.0016V23.4309C32.3953 23.4735 32.3868 23.5156 32.3737 23.5563C31.8598 22.4421 31.0695 21.4779 30.0778 20.7552C30.2259 19.6347 29.572 18.5627 28.5078 18.1816L28.4082 18.1456C27.1556 17.6964 25.7755 18.3435 25.3198 19.5938L20.5671 32.7322C20.115 33.9849 20.7638 35.3671 22.0166 35.8194L22.115 35.8554C23.3685 36.3075 24.7514 35.6593 25.2058 34.4066L25.2358 34.3238C25.3624 34.3298 25.4908 34.3454 25.6167 34.3454C28.4956 34.3977 31.0963 32.634 32.1128 29.9401L32.4973 28.8771L34.768 26.6057C35.5581 25.8203 36.0012 24.7514 35.9985 23.6373V18.0016C36.0027 15.4319 35.4522 12.8918 34.3847 10.5545ZM7.31415 19.9345C7.44988 19.6423 7.69743 19.417 8.00107 19.3093L8.09826 19.2739C8.72893 19.0457 9.42529 19.3717 9.65387 20.0023L14.4059 33.1407C14.6328 33.7692 14.3072 34.4628 13.6786 34.6897C13.6781 34.6899 13.6776 34.6901 13.677 34.6903L13.5786 34.7257C12.9481 34.9528 12.2527 34.6271 12.0236 33.9974L11.8436 33.4952L7.27215 20.8565C7.16267 20.5558 7.17774 20.2239 7.31415 19.9345ZM6.39866 21.9766V21.9742L10.4416 33.146C8.26826 33.1711 6.27298 31.9481 5.30919 30C5.32419 30 5.33979 30 5.35479 30C5.36978 30 5.38658 30 5.40218 30C5.46217 30 5.51617 29.9886 5.57316 29.9832C5.63015 29.9778 5.67155 29.9778 5.72074 29.9694C5.79933 29.9544 5.87687 29.9344 5.95291 29.9094C5.99611 29.8962 6.0393 29.8878 6.0813 29.8716C6.16176 29.8384 6.23975 29.7994 6.31467 29.7552C6.35007 29.7354 6.38726 29.721 6.42146 29.6988C7.2882 29.1397 7.53762 27.9838 6.97857 27.1171C6.9059 27.0045 6.82131 26.8999 6.72622 26.8054L4.57668 24.654C4.92246 23.6092 5.55359 22.6818 6.39866 21.9766ZM2.40254 18.0015V23.4308C2.40119 23.9085 2.59107 24.3667 2.92988 24.7033L5.87792 27.6519C6.14069 27.9147 6.14069 28.3406 5.87792 28.6034C5.61516 28.8662 5.18921 28.8662 4.92644 28.6034L2.08158 25.7574C1.51713 25.1964 1.20066 24.4329 1.20269 23.6372V18.0015C1.19879 15.7327 1.65848 13.487 2.55372 11.4023H3.86517C2.90236 13.469 2.40314 15.7214 2.40254 18.0015ZM18.0007 2.40339C12.4279 2.40459 7.27875 5.37723 4.49089 10.2024H3.12246C7.42926 1.98539 17.5818 -1.18448 25.7988 3.12232C28.8237 4.70778 31.2935 7.17753 32.8789 10.2024H31.5104C28.7226 5.37715 23.5734 2.40459 18.0007 2.40339ZM24.91 31.6966L24.2591 33.4963L24.0791 33.9985C23.8509 34.6294 23.1543 34.9558 22.5234 34.7276C22.5233 34.7276 22.5231 34.7275 22.5229 34.7274L22.4245 34.6914C21.7952 34.4649 21.4686 33.7711 21.695 33.1418L26.4476 20.0034C26.6752 19.3733 27.3706 19.0469 28.0006 19.2745C28.0011 19.2747 28.0016 19.2749 28.002 19.2751L28.1016 19.3111C28.7305 19.5371 29.0572 20.2302 28.8311 20.859C28.8309 20.8596 28.8308 20.8601 28.8305 20.8607L24.91 31.6966ZM25.6617 33.146L28.3128 25.8155L29.7016 21.9759C30.5267 22.6645 31.1488 23.5646 31.5014 24.5796L29.2781 26.8036C28.5481 27.5353 28.5481 28.7199 29.2781 29.4516C29.3744 29.547 29.4808 29.6315 29.5955 29.7036C29.6333 29.7276 29.6728 29.7438 29.7118 29.7636C29.7891 29.8069 29.8692 29.8445 29.9518 29.8764C29.9986 29.8938 30.046 29.9052 30.094 29.9184C30.1712 29.9412 30.2497 29.959 30.3292 29.9718C30.3802 29.979 30.4306 29.9826 30.4815 29.9862C30.5229 29.9862 30.5631 29.9982 30.6015 29.9982C30.6399 29.9982 30.6741 29.9898 30.7107 29.9874C30.7473 29.985 30.7707 29.991 30.7977 29.9874C29.8372 31.9418 27.8392 33.1705 25.6617 33.146ZM34.7986 23.6372C34.8006 24.4331 34.4841 25.1967 33.9197 25.758L31.5554 28.1229L31.0755 28.6028C30.8127 28.8656 30.3868 28.8656 30.124 28.6028C29.8612 28.34 29.8612 27.9141 30.124 27.6513L33.072 24.7027C33.4102 24.366 33.5999 23.9081 33.5988 23.4308V18.0015C33.5982 15.7214 33.099 13.469 32.1362 11.4023H33.4476C34.3428 13.487 34.8025 15.7327 34.7986 18.0015V23.6372Z" fill="#01AEF2"/>
</g>
<defs>
<clipPath id="clip0">
<rect width="36" height="36" fill="white"/>
</clipPath>
</defs>
</svg>
