<svg width="36" height="36" viewBox="0 0 36 36" fill="none" xmlns="http://www.w3.org/2000/svg">
<g clip-path="url(#clip0)">
<path d="M29.25 31.5H3.75C1.683 31.5 0 29.817 0 27.75V8.25C0 6.183 1.683 4.5 3.75 4.5H29.25C31.317 4.5 33 6.183 33 8.25V14.25C33 14.664 32.664 15 32.25 15C31.836 15 31.5 14.664 31.5 14.25V8.25C31.5 7.0095 30.4905 6 29.25 6H3.75C2.5095 6 1.5 7.0095 1.5 8.25V27.75C1.5 28.9905 2.5095 30 3.75 30H29.25C30.4905 30 31.5 28.9905 31.5 27.75V23.25C31.5 22.836 31.836 22.5 32.25 22.5C32.664 22.5 33 22.836 33 23.25V27.75C33 29.817 31.317 31.5 29.25 31.5Z" fill="#01AEF2"/>
<path d="M33.7501 24H24.7501C21.8551 24 19.5001 21.645 19.5001 18.75C19.5001 15.855 21.8551 13.5 24.7501 13.5H33.7501C34.9906 13.5 36.0001 14.5095 36.0001 15.75V21.75C36.0001 22.9905 34.9906 24 33.7501 24ZM24.7501 15C22.6831 15 21.0001 16.683 21.0001 18.75C21.0001 20.817 22.6831 22.5 24.7501 22.5H33.7501C34.1641 22.5 34.5001 22.164 34.5001 21.75V15.75C34.5001 15.336 34.1641 15 33.7501 15H24.7501Z" fill="#01AEF2"/>
<path d="M24.75 20.9999C23.5095 20.9999 22.5 19.9904 22.5 18.7499C22.5 17.5094 23.5095 16.4999 24.75 16.4999C25.9905 16.4999 27 17.5094 27 18.7499C27 19.9904 25.9905 20.9999 24.75 20.9999ZM24.75 17.9999C24.336 17.9999 24 18.3359 24 18.7499C24 19.1639 24.336 19.4999 24.75 19.4999C25.164 19.4999 25.5 19.1639 25.5 18.7499C25.5 18.3359 25.164 17.9999 24.75 17.9999Z" fill="#01AEF2"/>
</g>
<defs>
<clipPath id="clip0">
<rect width="36" height="36" fill="white"/>
</clipPath>
</defs>
</svg>
