<svg width="36" height="36" viewBox="0 0 36 36" fill="none" xmlns="http://www.w3.org/2000/svg">
<g clip-path="url(#clip0)">
<path d="M18.0001 4.5C13.0366 4.5 9.00012 8.53648 9.00012 13.4999C9.00012 18.4634 13.0366 22.4999 18.0001 22.4999C22.9635 22.4999 27 18.4634 27 13.4999C27 8.53648 22.9635 4.5 18.0001 4.5ZM18.0001 20.9999C13.8646 20.9999 10.5001 17.6354 10.5001 13.4999C10.5001 9.36447 13.8646 5.99997 18.0001 5.99997C22.1355 5.99997 25.5 9.36447 25.5 13.4999C25.5 17.6354 22.1355 20.9999 18.0001 20.9999Z" fill="#01AEF2"/>
<path d="M27.1155 23.4283C29.8035 20.9579 31.5 17.4284 31.5 13.4999C31.5 6.05696 25.4445 0 18 0C10.5556 0 4.50012 6.05696 4.50012 13.4999C4.50012 17.4269 6.19661 20.9579 8.8831 23.4269L4.54815 34.9873C4.44015 35.2768 4.51967 35.6008 4.74762 35.8078C4.89014 35.9338 5.0686 35.9998 5.25014 35.9998C5.36412 35.9998 5.47816 35.9743 5.58616 35.9218L11.1962 33.1169L15.3347 35.8753C15.5237 36.0013 15.7636 36.0328 15.9812 35.9653C16.1986 35.8948 16.3727 35.7299 16.4522 35.5153L18.0902 31.1459L19.5377 35.4869C19.6127 35.7088 19.7867 35.8829 20.0072 35.9594C20.2277 36.0344 20.4707 36.0044 20.6656 35.8739L24.8041 33.1154L30.4141 35.9203C30.5221 35.9743 30.6361 35.9999 30.7502 35.9999C30.9316 35.9999 31.1102 35.9338 31.2511 35.8064C31.4806 35.6008 31.5586 35.2754 31.4506 34.9859L27.1155 23.4283ZM17.298 28.9874L15.3796 34.1023L11.6656 31.6274C11.4406 31.4789 11.1512 31.4594 10.9141 31.5809L6.62263 33.7273L10.1086 24.4304C11.9971 25.7969 14.2426 26.6953 16.6861 26.9338L17.3461 28.9123C17.3311 28.9379 17.3086 28.9573 17.298 28.9874ZM18 25.4999C11.3836 25.4999 6.00016 20.1164 6.00016 13.4999C6.00016 6.88348 11.3836 1.49997 18 1.49997C24.6165 1.49997 30 6.88348 30 13.4999C30 20.1164 24.6166 25.4999 18 25.4999ZM25.0845 31.5793C24.8446 31.4578 24.5566 31.4758 24.3331 31.6258L20.6506 34.0813L18.2851 26.9849C21.1215 26.9249 23.7405 25.9873 25.89 24.4304L29.376 33.7258L25.0845 31.5793Z" fill="#01AEF2"/>
</g>
<defs>
<clipPath id="clip0">
<rect width="36" height="36" fill="white"/>
</clipPath>
</defs>
</svg>
