<svg width="36" height="36" viewBox="0 0 36 36" fill="none" xmlns="http://www.w3.org/2000/svg">
<g clip-path="url(#clip0)">
<path d="M33.5429 9.02442C33.3616 8.71257 32.9617 8.60676 32.6498 8.78808L29.4601 10.6319C29.1482 10.8132 29.0424 11.2131 29.2237 11.525C29.4051 11.8368 29.805 11.9426 30.1168 11.7613L33.3065 9.91748C33.6184 9.73607 33.7242 9.33627 33.5429 9.02442Z" fill="#01AEF2"/>
<path d="M33.3065 26.0863L30.1168 24.2424C29.805 24.0611 29.4051 24.1669 29.2237 24.4788C29.0424 24.7906 29.1482 25.1905 29.4601 25.3718L32.6498 27.2157C32.9617 27.397 33.3616 27.2912 33.5429 26.9793C33.7242 26.6674 33.6184 26.2676 33.3065 26.0863Z" fill="#01AEF2"/>
<path d="M18.0505 30.907C17.6887 30.8801 17.3738 31.1515 17.3469 31.5133C17.3445 31.5457 17.3445 31.5781 17.3469 31.6105V35.2946C17.32 35.6563 17.5915 35.9712 17.9532 35.9981C18.3149 36.025 18.6299 35.7536 18.6567 35.3918C18.6592 35.3595 18.6592 35.327 18.6567 35.2946V31.6105C18.6835 31.2489 18.4121 30.9339 18.0505 30.907Z" fill="#01AEF2"/>
<path d="M6.54007 10.6319L3.35032 8.78808C3.03847 8.60676 2.63858 8.71257 2.45727 9.02442C2.27595 9.33627 2.38176 9.73616 2.69361 9.91748L5.88336 11.7613C6.1952 11.9426 6.59509 11.8368 6.77641 11.525C6.95773 11.213 6.85192 10.8132 6.54007 10.6319Z" fill="#01AEF2"/>
<path d="M18.0504 0.00183627C17.6887 -0.0250456 17.3738 0.246389 17.3469 0.608122C17.3445 0.640507 17.3445 0.672982 17.3469 0.705366V4.38945C17.3489 4.74929 17.6402 5.04057 18 5.04255C18.3627 5.04255 18.6567 4.74857 18.6567 4.38584V0.705456C18.6835 0.343724 18.4121 0.0287182 18.0504 0.00183627Z" fill="#01AEF2"/>
<path d="M11.7576 5.88336L9.91736 2.69361C9.73604 2.38176 9.33615 2.27595 9.0243 2.45727C8.71245 2.63858 8.60664 3.03847 8.78795 3.35032L10.6282 6.54007C10.8095 6.85192 11.2094 6.95773 11.5212 6.77641C11.8331 6.595 11.9389 6.1952 11.7576 5.88336Z" fill="#01AEF2"/>
<path d="M18.0973 12.1726C18.0649 12.1702 18.0324 12.1702 18 12.1726C14.7816 12.1726 12.1726 14.7816 12.1726 18C12.1726 18.3627 12.4666 18.6567 12.8293 18.6567C13.1906 18.6547 13.4824 18.3613 13.4824 18C13.4804 15.507 15.4998 13.4844 17.9928 13.4824C17.9952 13.4824 17.9976 13.4824 18 13.4824C18.3618 13.5093 18.6767 13.2379 18.7036 12.8761C18.7304 12.5144 18.459 12.1994 18.0973 12.1726Z" fill="#01AEF2"/>
<path d="M35.9009 17.9496C35.8768 17.6253 35.619 17.3674 35.2946 17.3433H31.6105C31.2488 17.3164 30.9339 17.5878 30.907 17.9496C30.8801 18.3113 31.1515 18.6262 31.5133 18.6531C31.5457 18.6555 31.5782 18.6555 31.6106 18.6531H35.2947C35.6563 18.6263 35.9278 18.3113 35.9009 17.9496Z" fill="#01AEF2"/>
<path d="M4.48674 17.3469C4.45435 17.3445 4.42188 17.3445 4.38949 17.3469H0.705412C0.343679 17.3738 0.0722444 17.6888 0.0991263 18.0504C0.123212 18.3747 0.381025 18.6326 0.705412 18.6567H4.38949C4.75123 18.6836 5.06614 18.4122 5.09302 18.0504C5.11991 17.6887 4.84847 17.3737 4.48674 17.3469Z" fill="#01AEF2"/>
<path d="M18.0025 8.3623C12.6798 8.36158 8.36422 12.6759 8.3634 17.9987C8.36304 20.5559 9.37896 23.0083 11.1874 24.8162C12.9923 26.6257 15.4441 27.6411 17.9998 27.6379C23.3226 27.6386 27.6383 23.3242 27.639 18.0014C27.6397 12.6787 23.3253 8.36303 18.0025 8.3623ZM23.8886 23.8997C20.6363 27.1519 15.3633 27.1519 12.1111 23.8997C10.5466 22.3352 9.66898 20.2125 9.67187 18.0001C9.66871 15.7907 10.5466 13.6713 12.1111 12.1113V12.1222C15.3633 8.8699 20.6363 8.8699 23.8886 12.1222C27.1409 15.3744 27.1409 20.6474 23.8886 23.8997Z" fill="#01AEF2"/>
<path d="M27.2136 32.6527C27.2131 32.6517 27.2125 32.6507 27.2119 32.6498L25.368 29.4601C25.1867 29.1482 24.7868 29.0424 24.475 29.2237C24.1631 29.4051 24.0573 29.805 24.2386 30.1168L26.0825 33.3065C26.2631 33.618 26.6618 33.7246 26.9737 33.5447C27.2863 33.3645 27.3937 32.9652 27.2136 32.6527Z" fill="#01AEF2"/>
<path d="M26.9974 2.45727C26.6855 2.27595 26.2856 2.38176 26.1043 2.69361L24.2605 5.88335C24.0779 6.19448 24.1822 6.59464 24.4932 6.77713C24.4938 6.77749 24.4944 6.77785 24.495 6.77821C24.8066 6.95989 25.2065 6.85462 25.3881 6.54295C25.3887 6.54196 25.3893 6.54097 25.3899 6.54007L27.2337 3.35032C27.415 3.03838 27.3092 2.63858 26.9974 2.45727Z" fill="#01AEF2"/>
<path d="M11.5249 29.2237C11.213 29.0424 10.8131 29.1482 10.6318 29.4601L8.78795 32.6498C8.60664 32.9617 8.71245 33.3616 9.0243 33.5429C9.33615 33.7242 9.73604 33.6184 9.91736 33.3065L11.7612 30.1168C11.9425 29.8049 11.8367 29.4051 11.5249 29.2237Z" fill="#01AEF2"/>
<path d="M6.77641 24.4751C6.59509 24.1633 6.1952 24.0574 5.88336 24.2388L2.69361 26.0826C2.38176 26.2639 2.27595 26.6638 2.45727 26.9757C2.63858 27.2875 3.03847 27.3933 3.35032 27.212L6.54007 25.3682C6.85192 25.1868 6.95773 24.787 6.77641 24.4751Z" fill="#01AEF2"/>
</g>
<defs>
<clipPath id="clip0">
<rect width="36" height="36" fill="white"/>
</clipPath>
</defs>
</svg>
