<svg width="38" height="36" viewBox="0 0 38 36" fill="none" xmlns="http://www.w3.org/2000/svg">
<g clip-path="url(#clip0)">
<path d="M28.5971 22.1258C29.1547 21.4911 29.6347 20.7986 30.0279 20.0617L33.472 18.8958C34.5698 18.5226 35.5194 17.8376 36.1912 16.9343C36.8631 16.031 37.2246 14.9533 37.2264 13.8482V12.4411C37.2247 11.02 36.6282 9.65749 35.5676 8.65259C34.507 7.64768 33.069 7.08243 31.5691 7.08083H30.9405V5.88966C30.9405 5.7317 30.8743 5.58021 30.7564 5.46851C30.6385 5.35682 30.4787 5.29407 30.3119 5.29407H6.42555C6.25884 5.29407 6.09896 5.35682 5.98107 5.46851C5.86319 5.58021 5.79696 5.7317 5.79696 5.88966V16.6102C5.79696 19.5393 7.75675 21.8777 9.13705 23.1617H1.39684C1.23013 23.1617 1.07024 23.2245 0.952359 23.3362C0.834476 23.4479 0.76825 23.5993 0.76825 23.7573C0.76825 25.9692 1.99172 27.6022 4.30634 28.4794C5.38494 28.8737 6.52701 29.0896 7.68273 29.1176H8.93991V29.7132C8.94047 30.1869 9.13933 30.6411 9.49286 30.976C9.84639 31.311 10.3257 31.4994 10.8257 31.5H25.9118C26.4118 31.4994 26.8911 31.311 27.2446 30.976C27.5982 30.6411 27.797 30.1869 27.7976 29.7132V29.1176H29.0548C30.2105 29.0896 31.3526 28.8737 32.4312 28.4794C34.7458 27.6022 35.9692 25.9692 35.9692 23.7573C35.9692 23.5993 35.903 23.4479 35.7851 23.3362C35.6673 23.2245 35.5074 23.1617 35.3407 23.1617H27.5951C27.9478 22.8331 28.2823 22.4873 28.5971 22.1258ZM31.5691 8.27201C32.7357 8.27327 33.8541 8.71292 34.679 9.49451C35.5039 10.2761 35.9679 11.3358 35.9692 12.4411V13.8482C35.9679 14.7078 35.6867 15.546 35.1642 16.2487C34.6416 16.9513 33.903 17.4841 33.0491 17.7745L30.6369 18.5908C30.7913 18.0867 30.8878 17.5682 30.9249 17.0445L32.5628 16.5272C33.189 16.33 33.7337 15.951 34.1195 15.4438C34.5053 14.9366 34.7127 14.3272 34.7121 13.702V12.4411C34.7111 11.6516 34.3797 10.8947 33.7905 10.3364C33.2013 9.7781 32.4024 9.46407 31.5691 9.46319H30.9405V8.27201H31.5691ZM30.9405 15.7839V10.6544H31.5691C32.0691 10.6549 32.5484 10.8433 32.9019 11.1783C33.2555 11.5132 33.4543 11.9674 33.4549 12.4411V13.702C33.4552 14.077 33.3307 14.4426 33.0993 14.7468C32.8678 15.0511 32.541 15.2785 32.1654 15.3967L30.9405 15.7839ZM26.5404 29.7132C26.5402 29.8711 26.4739 30.0225 26.3561 30.1341C26.2382 30.2458 26.0785 30.3086 25.9118 30.3088H10.8257C10.659 30.3086 10.4992 30.2458 10.3814 30.1341C10.2636 30.0225 10.1973 29.8711 10.1971 29.7132V29.1176H26.5404V29.7132ZM31.9934 27.3622C30.5518 27.9161 29.0688 27.9264 29.0548 27.9264H7.6836C7.66875 27.9264 6.18567 27.9161 4.74392 27.3622C3.15838 26.7531 2.25989 25.7424 2.06558 24.3529H34.6719C34.4776 25.7424 33.5791 26.7531 31.9934 27.3622ZM25.7002 23.1617H11.0372C10.2871 22.6041 7.05414 20.0029 7.05414 16.6102V6.48524H29.6834V16.6102C29.6834 18.5768 28.576 20.2705 27.647 21.3452C27.0674 22.0139 26.4148 22.6228 25.7002 23.1617Z" fill="#01AEF2"/>
</g>
<defs>
<clipPath id="clip0">
<rect width="37.9947" height="36" fill="white"/>
</clipPath>
</defs>
</svg>
