<svg width="36" height="36" viewBox="0 0 36 36" fill="none" xmlns="http://www.w3.org/2000/svg">
<path d="M18 0C13.0318 0.005625 9.00563 4.03178 9 9V9.3642C8.99948 11.9744 10.1327 14.4561 12.1056 16.1652L17.4672 20.8122C17.0469 21.1505 16.8018 21.6604 16.8 22.2V24H18C18 25.3255 19.0745 26.4 20.4 26.4C21.0628 26.4 21.6 26.9372 21.6 27.6C21.6 28.2628 21.0628 28.8 20.4 28.8H15.6C14.2745 28.8 13.2 29.8745 13.2 31.2C13.2 32.5255 14.2745 33.6 15.6 33.6H16.8C17.4628 33.6 18 34.1372 18 34.8V36H19.2V34.8C19.2 33.4745 18.1255 32.4 16.8 32.4H15.6C14.9372 32.4 14.4 31.8628 14.4 31.2C14.4 30.5372 14.9372 30 15.6 30H20.4C21.7255 30 22.8 28.9255 22.8 27.6C22.8 26.2745 21.7255 25.2 20.4 25.2C19.7372 25.2 19.2 24.6628 19.2 24H20.4V22.2C20.3984 21.6363 20.1316 21.1062 19.68 20.769L24.3642 16.0848C26.0578 14.4005 27.0069 12.1085 27 9.72V9C26.9944 4.03178 22.9682 0.005625 18 0ZM19.2 22.8H18V22.2C18 21.8687 18.2686 21.6 18.6 21.6C18.9313 21.6 19.2 21.8687 19.2 22.2V22.8ZM25.8 9.72C25.8055 11.7898 24.9828 13.7757 23.5152 15.2352L18.5706 20.1798L12.8916 15.2598C11.1811 13.7785 10.1989 11.627 10.2 9.3642V9C10.2 4.69215 13.6921 1.2 18 1.2C22.3078 1.2 25.8 4.69215 25.8 9V9.72Z" fill="#01AEF2"/>
<path d="M18 2.3999V3.5999C20.9809 3.6032 23.3967 6.01895 23.4 8.9999H24.6C24.596 5.35648 21.6434 2.40388 18 2.3999Z" fill="#01AEF2"/>
<path d="M24.6 10.2H23.4V11.4H24.6V10.2Z" fill="#01AEF2"/>
</svg>
