<svg width="38" height="36" viewBox="0 0 38 36" fill="none" xmlns="http://www.w3.org/2000/svg">
<g clip-path="url(#clip0)">
<path d="M37.9947 4.44839C37.9977 3.97103 37.7987 3.51248 37.4421 3.17523L34.7629 0.623514C34.0236 -0.080831 32.8216 -0.0840544 32.0781 0.616318L28.5451 3.94464C28.521 3.95798 28.4978 3.9726 28.4755 3.98842L6.93887 24.2948C6.89907 24.3364 6.86584 24.3833 6.84013 24.4339C6.84013 24.4375 6.8338 24.4393 6.8319 24.4429L6.82494 24.4549C6.81608 24.4717 6.80532 24.4867 6.79773 24.5041L1.94824 33.2225L0.194406 34.8746C-0.0576572 35.1041 -0.065648 35.4837 0.176525 35.7225C0.418699 35.9614 0.819341 35.9689 1.0714 35.7395C1.07663 35.7348 1.08177 35.7299 1.08683 35.7249L2.7894 34.122L12.0738 29.5427C12.1612 29.5144 12.241 29.4681 12.3073 29.4071L33.3939 9.52715L34.2863 10.3775L26.6545 17.5637C26.4067 17.7974 26.4057 18.1771 26.6523 18.412C26.8989 18.6468 27.2997 18.6477 27.5476 18.4141L35.6275 10.8045C35.8746 10.5703 35.8746 10.1907 35.6275 9.95653L34.2901 8.68158L37.4333 5.71907C37.7926 5.38399 37.9949 4.92612 37.9947 4.44839ZM3.94956 32.1976L7.54964 25.7263L10.7978 28.8177L3.94956 32.1976ZM11.8656 28.1316L8.28257 24.72L28.916 5.26397L32.499 8.67625L11.8656 28.1316ZM36.5446 4.86637L36.5434 4.86877L33.4021 7.82828L29.8299 4.4268L32.9705 1.46669C33.2177 1.23258 33.6183 1.23258 33.8655 1.46669L36.5446 4.0184C36.7917 4.25258 36.7917 4.63219 36.5446 4.86637Z" fill="#01AEF2"/>
</g>
<defs>
<clipPath id="clip0">
<rect width="37.9947" height="36" fill="white"/>
</clipPath>
</defs>
</svg>
