<svg width="36" height="36" viewBox="0 0 36 36" fill="none" xmlns="http://www.w3.org/2000/svg">
<path d="M35.25 7.5H0.750023C0.336023 7.5 0 7.83595 0 8.24995V30.75C0 33.645 2.35498 36 5.25002 36H30.75C33.645 36 36 33.645 36 30.75V8.24995C36 7.83595 35.664 7.5 35.25 7.5ZM34.5 30.75C34.5 32.8185 32.8185 34.4999 30.75 34.4999H5.25002C3.1815 34.4999 1.50005 32.8184 1.50005 30.75V8.99998H34.5V30.75Z" fill="#01AEF2"/>
<path d="M18 0C13.8645 0 10.5 3.36452 10.5 7.50002V12.75C10.5 13.164 10.836 13.5001 11.25 13.5001C11.664 13.5001 12 13.164 12 12.75V7.50002C12 4.19105 14.691 1.50005 18 1.50005C21.309 1.50005 24 4.19105 24 7.50002V12.75C24 13.164 24.336 13.5001 24.75 13.5001C25.164 13.5001 25.5 13.164 25.5 12.75V7.50002C25.5 3.36452 22.1355 0 18 0Z" fill="#01AEF2"/>
<path d="M11.25 12C10.0095 12 9 13.0095 9 14.25C9 15.4905 10.0095 16.5 11.25 16.5C12.4905 16.5 13.5 15.4905 13.5 14.25C13.5 13.0095 12.4905 12 11.25 12ZM11.25 15C10.8375 15 10.5 14.6625 10.5 14.2499C10.5 13.8374 10.8375 13.4999 11.25 13.4999C11.6625 13.4999 12 13.8374 12 14.2499C12 14.6625 11.6625 15 11.25 15Z" fill="#01AEF2"/>
<path d="M24.75 12C23.5095 12 22.5 13.0095 22.5 14.25C22.5 15.4905 23.5095 16.5 24.75 16.5C25.9905 16.5 27 15.4905 27 14.25C27 13.0095 25.9905 12 24.75 12ZM24.75 15C24.3375 15 24 14.6625 24 14.2499C24 13.8374 24.3375 13.4999 24.75 13.4999C25.1625 13.4999 25.5 13.8374 25.5 14.2499C25.5 14.6625 25.1625 15 24.75 15Z" fill="#01AEF2"/>
</svg>
