<svg width="73" height="73" viewBox="0 0 73 73" fill="none" xmlns="http://www.w3.org/2000/svg">
<path d="M48.8635 15.3493L60.7973 27.7488H63.509V8.75623H59.7105V21.1454L47.7767 8.75623H45.0649V27.7488H48.8635V15.3493Z" fill="#01AEF2"/>
<path d="M27.1487 51.6579C27.1487 47.9111 24.1058 44.8682 20.359 44.8682H12.5239H8.64258V54.5767V58.458V63.8815H12.5239V58.458H18.8893L22.4601 63.8815H27.1073L23.1432 57.8577C25.5031 56.7812 27.1487 54.4111 27.1487 51.6579ZM20.3487 54.5767H12.5239V48.7495H20.359C21.9633 48.7495 23.2778 50.0536 23.2778 51.6682C23.2674 53.2622 21.9633 54.5767 20.3487 54.5767Z" fill="#01AEF2"/>
<path d="M55.4253 36.6915L55.446 36.6708C39.0306 36.1222 36.8778 33.9694 36.3292 17.5643L36.3085 17.585C35.998 7.82475 28.0077 0 18.175 0C8.13526 0 0 8.13526 0 18.175C0 28.0077 7.82475 35.998 17.585 36.3085L17.5643 36.3292C33.9797 36.8778 36.1222 39.0203 36.6708 55.4357L36.6915 55.415C37.0123 65.1752 44.9923 73 54.8354 72.9896C64.8647 72.9896 73.0103 64.8544 73 54.825C73 44.9923 65.1856 37.002 55.4253 36.6915ZM17.8334 23.9297C19.5515 23.9297 21.1558 23.1638 22.2426 21.8286L23.3087 20.5141L25.9273 22.6359L24.8612 23.9504C23.1327 26.0825 20.5659 27.3038 17.8231 27.3038C12.8343 27.3038 8.77697 23.2466 8.77697 18.2474C8.77697 13.2586 12.8343 9.20133 17.8231 9.20133C20.6176 9.20133 23.2155 10.4641 24.944 12.6687L25.9894 13.9935L23.3294 16.0739L22.284 14.749C21.1972 13.3621 19.5722 12.5755 17.8127 12.5755C14.6869 12.5755 12.1408 15.1216 12.1408 18.2474C12.1511 21.3835 14.6973 23.9297 17.8334 23.9297ZM61.8218 58.5615C61.8218 58.903 61.7183 59.2239 61.532 59.5033C59.8449 62.0081 57.04 63.4985 54.0177 63.4985C48.9668 63.4985 44.8785 59.3481 44.9613 54.2868C45.0441 49.4533 48.9772 45.4891 53.8211 45.3856C56.6984 45.3235 59.3791 46.5966 61.1594 48.853L58.4994 50.9334C57.3194 49.4326 55.5081 48.6253 53.583 48.7702C50.6332 48.9875 48.3355 51.4923 48.3458 54.4421C48.3562 57.5678 50.9023 60.114 54.0281 60.114C55.7566 60.114 57.3712 59.3274 58.4476 58.0025V57.1642H55.3322V53.7797H61.8321V58.5615H61.8218Z" fill="#01AEF2"/>
</svg>
