<svg width="36" height="36" viewBox="0 0 36 36" fill="none" xmlns="http://www.w3.org/2000/svg">
<g clip-path="url(#clip0)">
<path d="M7.74811 19.8559C7.26938 18.4162 7.02631 16.9088 7.02631 15.3765C7.02631 13.5778 7.35837 11.8252 8.01343 10.1679C8.1568 9.80452 7.97883 9.3939 7.61573 9.25053C7.25263 9.10716 6.84201 9.28514 6.69837 9.64824C5.97766 11.472 5.61237 13.3992 5.61237 15.3765C5.61237 17.0607 5.87961 18.718 6.4064 20.3022C6.50528 20.5986 6.78104 20.7865 7.07712 20.7865C7.15128 20.7865 7.22653 20.7746 7.30042 20.7499C7.67093 20.6269 7.87143 20.2264 7.74811 19.8559Z" fill="#01AEF2"/>
<path d="M34.2755 34.7935L29.4689 28.5022C29.3352 28.3269 29.1273 28.2242 28.907 28.2242H26.9871C31.1018 25.329 33.588 20.6126 33.588 15.496C33.588 11.3382 31.9689 7.42897 29.0289 4.48902C26.0887 1.5488 22.1795 -0.0703125 18.0214 -0.0703125C13.8637 -0.0703125 9.95472 1.5488 7.01449 4.48902C4.07427 7.42897 2.45516 11.3382 2.45516 15.496C2.45516 20.6082 4.94274 25.3285 9.05631 28.2242H7.21829C7.00104 28.2242 6.79587 28.3242 6.66183 28.4953L1.73253 34.7866C1.56554 34.9995 1.53505 35.289 1.65343 35.5323C1.77181 35.7754 2.01845 35.9298 2.28899 35.9298H33.7138C33.9827 35.9298 34.2282 35.777 34.3474 35.5362C34.4666 35.295 34.4386 35.0072 34.2755 34.7935ZM11.3761 27.9946C6.7456 25.5271 3.8691 20.7381 3.8691 15.496C3.8691 7.69237 10.2178 1.34363 18.0214 1.34363C25.8253 1.34363 32.1741 7.69237 32.1741 15.496C32.1741 20.7598 29.2803 25.5581 24.6218 28.0188C24.5245 28.0701 24.4449 28.1413 24.3839 28.2242H18.7084V25.2318H23.5962C23.8508 25.2318 24.0859 25.0947 24.2114 24.8728C24.3369 24.6512 24.3334 24.379 24.2018 24.1606L21.7906 20.1492H23.5962C23.8456 20.1492 24.0768 20.0177 24.204 19.8029C24.3315 19.5884 24.3361 19.3225 24.2166 19.1033L21.7324 14.5544H23.5962C23.8659 14.5544 24.1123 14.4009 24.2309 14.1584C24.3496 13.9161 24.3202 13.6272 24.1546 13.4141L18.56 6.20234C18.426 6.02986 18.2197 5.92878 18.0014 5.92878C17.7828 5.92878 17.5768 6.02986 17.4427 6.20234L11.8479 13.4141C11.6826 13.6275 11.6532 13.9161 11.7719 14.1587C11.8905 14.4009 12.1369 14.5544 12.4066 14.5544H14.2704L11.7861 19.1033C11.6664 19.3225 11.6713 19.5884 11.7985 19.8029C11.9259 20.0177 12.1569 20.1492 12.4066 20.1492H14.2122L11.8007 24.1606C11.6694 24.379 11.6658 24.6512 11.7914 24.8728C11.9166 25.0947 12.152 25.2318 12.4066 25.2318H17.2944V28.2245H11.6304C11.5678 28.1311 11.4821 28.0512 11.3761 27.9946ZM16.0774 19.094C15.9519 18.8724 15.7168 18.7353 15.4619 18.7353H13.5983L16.0826 14.1864C16.2021 13.9672 16.1974 13.7014 16.07 13.4868C15.9428 13.2721 15.7116 13.1405 15.4619 13.1405H13.8497L18.0014 7.78905L22.1529 13.1405H20.5406C20.2909 13.1405 20.06 13.2721 19.9325 13.4868C19.8054 13.7014 19.8004 13.9672 19.9202 14.1864L22.4044 18.7353H20.5406C20.2857 18.7353 20.0506 18.8724 19.9254 19.094C19.7999 19.3159 19.8034 19.5881 19.9347 19.8065L22.3462 23.8179H13.6566L16.0678 19.8065C16.1994 19.5881 16.2029 19.3159 16.0774 19.094ZM3.74084 34.5158L7.56244 29.6381H28.5574L32.2839 34.5158H3.74084Z" fill="#01AEF2"/>
<path d="M8.53492 21.3958C8.24076 21.1392 7.79416 21.1697 7.53736 21.4641L7.48764 21.5213C7.23111 21.8154 7.26188 22.262 7.55603 22.5186C7.69007 22.6353 7.85541 22.6927 8.02021 22.6927C8.21741 22.6927 8.41379 22.6106 8.55359 22.4502L8.60331 22.3931C8.85984 22.0989 8.82908 21.6523 8.53492 21.3958Z" fill="#01AEF2"/>
</g>
<defs>
<clipPath id="clip0">
<rect width="35.9298" height="36" fill="white"/>
</clipPath>
</defs>
</svg>
