<svg width="38" height="36" viewBox="0 0 38 36" fill="none" xmlns="http://www.w3.org/2000/svg">
<g clip-path="url(#clip0)">
<path d="M37.7897 10.4213C37.7809 10.4126 37.7719 10.404 37.7627 10.3957L29.9196 3.79084C29.848 3.72903 29.7645 3.68109 29.6735 3.64956L23.9999 1.72815C23.6129 1.59499 23.1853 1.7844 23.0447 2.15111C23.0194 2.21724 23.0046 2.28656 23.0009 2.35685C23.0009 2.51226 22.7549 6.09371 18.975 6.15022C15.1727 6.09371 14.9341 2.51226 14.9267 2.35685C14.9047 1.96727 14.5535 1.66837 14.1424 1.68921C14.0717 1.69283 14.0019 1.7059 13.9351 1.72815L8.26899 3.67075C8.17804 3.70228 8.09453 3.75022 8.02296 3.81203L0.232041 10.3957C-0.0664561 10.6644 -0.0785711 11.1115 0.205015 11.3944C0.213775 11.4031 0.222815 11.4117 0.232041 11.42L6.43496 17.3608V33.6081C6.43496 33.9982 6.76877 34.3145 7.1805 34.3145H30.8142C31.2259 34.3145 31.5597 33.9982 31.5597 33.6081V17.3608L37.7627 11.42C38.0612 11.1513 38.0733 10.7042 37.7897 10.4213ZM31.5374 15.3476V12.0699C31.5374 11.6798 31.2036 11.3635 30.7918 11.3635C30.3801 11.3635 30.0463 11.6798 30.0463 12.0699V32.8663H7.89622V12.0699C7.89622 11.6798 7.5624 11.3635 7.15068 11.3635C6.73895 11.3635 6.40514 11.6798 6.40514 12.0699V15.3546L1.82005 10.9538L8.91761 4.93521L13.5847 3.33875C14.1629 6.16135 17.0465 8.0055 20.0255 7.45769C22.2256 7.05309 23.9457 5.42325 24.3727 3.33875L29.0398 4.93521L36.115 10.9538L31.5374 15.3476Z" fill="#01AEF2"/>
</g>
<defs>
<clipPath id="clip0">
<rect width="37.9947" height="36" fill="white"/>
</clipPath>
</defs>
</svg>
