<svg width="36" height="36" viewBox="0 0 36 36" fill="none" xmlns="http://www.w3.org/2000/svg">
<g clip-path="url(#clip0)">
<path d="M31.8098 9.18844H29.4255C30.4702 6.0963 28.5333 0.867308 25.1839 0.0949149C23.5847 -0.273689 21.5359 0.458964 20.0848 1.9181C19.8559 2.14824 19.857 2.52037 20.0871 2.74919C20.3172 2.978 20.6893 2.97697 20.9181 2.74684C22.0753 1.58314 23.7213 0.96361 24.9197 1.2401C27.6204 1.86286 29.3463 6.8003 28.1577 9.18844H16.4574V5.95636C16.4574 5.63235 16.721 5.36871 17.0451 5.36871H18.9549C19.2789 5.36871 19.5426 5.63235 19.5426 5.95636V7.27858C19.5426 7.60311 19.8057 7.86623 20.1302 7.86623C20.3661 7.86623 20.569 7.72696 20.6625 7.52642C22.0423 7.48969 23.4248 7.68009 24.7947 8.13067C25.1043 8.23248 25.4356 8.06295 25.5366 7.75604C25.638 7.44775 25.4703 7.11558 25.162 7.01421C24.4546 6.78157 23.725 6.60829 22.9912 6.49693C23.6141 5.98582 24.0155 5.32501 24.2228 4.56936C24.3087 4.25636 24.1246 3.93301 23.8116 3.84714C23.4991 3.76134 23.1753 3.94535 23.0894 4.25835C22.7733 5.41044 21.8981 6.03254 20.7179 6.24674V5.95644C20.7179 4.98439 19.927 4.19349 18.9549 4.19349H17.3983C16.2486 1.21512 13.0638 -0.423246 10.8162 0.0949884C8.18748 0.70115 6.45589 4.03173 6.30046 6.90145C6.28224 7.23803 6.54999 7.52091 6.88774 7.52091C7.19772 7.52091 7.4571 7.27828 7.47399 6.96507C7.54143 5.71925 7.95469 4.38712 8.60787 3.31032C9.28983 2.18585 10.1679 1.4507 11.0803 1.24032C12.758 0.853572 15.2219 2.14163 16.2138 4.4024C15.6597 4.69997 15.2821 5.2849 15.2821 5.95651V6.24681C14.1019 6.03261 13.2266 5.41058 12.9106 4.25842C12.8247 3.94535 12.5013 3.76142 12.1884 3.84721C11.8754 3.93308 11.6913 4.25644 11.7771 4.56944C11.9844 5.32515 12.3857 5.98582 13.0088 6.497C12.2752 6.60836 11.5456 6.78165 10.8381 7.01428C10.5298 7.11565 10.3621 7.44782 10.4634 7.75612C10.565 8.06515 10.8978 8.23197 11.2052 8.13082C12.476 7.71293 13.8367 7.49307 15.2821 7.52502V9.18859H4.1902C2.89407 9.18859 1.8396 10.2431 1.8396 11.5392V14.1836C1.8396 15.4552 2.85455 16.4933 4.11675 16.5324V33.6496C4.11675 34.9457 5.17121 36.0002 6.46735 36.0002H29.5326C30.8288 36.0002 31.8832 34.9457 31.8832 33.6496V19.0979C31.8832 18.7734 31.6201 18.5103 31.2956 18.5103C30.9711 18.5103 30.7079 18.7734 30.7079 19.0979V33.6494C30.7079 34.2974 30.1807 34.8247 29.5326 34.8247H21.379V16.5341H31.8098C33.1059 16.5341 34.1604 15.4796 34.1604 14.1835V11.539C34.1604 10.2429 33.1059 9.18844 31.8098 9.18844ZM32.9851 14.1835C32.9851 14.8315 32.4578 15.3588 31.8098 15.3588H23.5092V12.5295C23.5092 12.205 23.2461 11.9419 22.9216 11.9419C22.597 11.9419 22.3339 12.205 22.3339 12.5295V15.3588H18.5521C18.2276 15.3588 17.9644 15.6219 17.9644 15.9464C17.9644 16.271 18.2276 16.5341 18.5521 16.5341H20.2037V34.8247H6.46735C5.81932 34.8247 5.29205 34.2974 5.29205 33.6494V16.5341H14.621V32.6163C14.621 32.9408 14.8841 33.204 15.2087 33.204C15.5332 33.204 15.7963 32.9408 15.7963 32.6163V15.9464C15.7963 15.6219 15.5332 15.3588 15.2087 15.3588H4.1902C3.54217 15.3588 3.0149 14.8315 3.0149 14.1835V11.539C3.0149 10.891 3.54217 10.3637 4.1902 10.3637H12.4908V13.1551C12.4908 13.4796 12.7539 13.7427 13.0784 13.7427C13.4029 13.7427 13.6661 13.4796 13.6661 13.1551V10.3637H31.8098C32.4578 10.3637 32.9851 10.891 32.9851 11.539V14.1835Z" fill="#01AEF2"/>
</g>
<defs>
<clipPath id="clip0">
<rect width="36" height="36" fill="white"/>
</clipPath>
</defs>
</svg>
