<svg width="36" height="36" viewBox="0 0 36 36" fill="none" xmlns="http://www.w3.org/2000/svg">
<g clip-path="url(#clip0)">
<path d="M19.7831 21.3913C19.2736 20.8818 18.4444 20.8818 17.9349 21.3914C17.8237 21.5026 17.6299 21.5026 17.5187 21.3913L15.9418 19.8144C15.8862 19.7589 15.8557 19.685 15.8557 19.6063C15.8557 19.5277 15.8863 19.4538 15.9418 19.3982C16.4512 18.8888 16.4513 18.0596 15.9419 17.5501C15.9418 17.5501 15.9418 17.55 15.9418 17.55L15.543 17.1512C15.0334 16.6416 14.2043 16.6418 13.6948 17.1512L11.0316 19.8144C10.522 20.324 10.522 21.153 11.0316 21.6626L11.4304 22.0613C11.6772 22.3083 12.0054 22.4443 12.3546 22.4443C12.7036 22.4443 13.0318 22.3083 13.2787 22.0614C13.3899 21.9502 13.5837 21.9502 13.6949 22.0614L15.2718 23.6384C15.3274 23.6939 15.3579 23.7678 15.3579 23.8464C15.3579 23.925 15.3273 23.9989 15.2718 24.0545C15.0249 24.3014 14.889 24.6295 14.889 24.9786C14.889 25.3277 15.0249 25.6559 15.2718 25.9027L15.6706 26.3017C15.9254 26.5565 16.26 26.6838 16.5947 26.6838C16.9294 26.6838 17.2641 26.5564 17.5189 26.3017L20.1821 23.6385C20.6916 23.1288 20.6916 22.2998 20.1821 21.7904L19.7831 21.3913ZM19.3858 22.8424L16.7226 25.5055C16.6521 25.5762 16.5371 25.5761 16.4665 25.5056L16.0677 25.1067C16.0215 25.0607 16.0146 25.0067 16.0146 24.9787C16.0146 24.9507 16.0215 24.8968 16.0677 24.8506C16.336 24.5824 16.4836 24.2258 16.4836 23.8465C16.4836 23.4671 16.3358 23.1105 16.0677 22.8423L14.4907 21.2654C14.2225 20.9972 13.8659 20.8496 13.4866 20.8496C13.1073 20.8496 12.7507 20.9973 12.4825 21.2655C12.4363 21.3116 12.3824 21.3186 12.3544 21.3186C12.3264 21.3186 12.2726 21.3117 12.2264 21.2654L11.8276 20.8667C11.757 20.7961 11.757 20.6811 11.8276 20.6106L14.4907 17.9474C14.5613 17.8768 14.6764 17.8768 14.747 17.9474L15.1458 18.3461C15.2163 18.4167 15.2163 18.5317 15.1458 18.6023C14.8775 18.8705 14.7299 19.2271 14.7299 19.6064C14.7299 19.9858 14.8776 20.3424 15.1458 20.6106L16.7227 22.1875C16.9909 22.4557 17.3475 22.6035 17.7269 22.6035C18.1062 22.6035 18.4629 22.4557 18.731 22.1876C18.8016 22.1171 18.9167 22.1171 18.9872 22.1875L19.3861 22.5864C19.4565 22.6568 19.4565 22.7718 19.3858 22.8424Z" fill="#01AEF2"/>
<path d="M22.1314 10.093C21.2666 10.0784 20.4526 10.4041 19.8369 11.0095C19.347 11.4913 19.0321 12.102 18.924 12.7666C18.2594 12.8746 17.6488 13.1895 17.1669 13.6795C16.5615 14.2951 16.236 15.1099 16.2505 15.9739C16.2794 17.7056 17.7319 19.1145 19.4882 19.1145H24.3058C24.8385 19.1145 25.2719 18.6811 25.2719 18.1485V13.3308C25.2719 11.5744 23.863 10.122 22.1314 10.093ZM24.1462 17.9886H19.4883C18.3423 17.9886 17.3948 17.0764 17.3762 15.955C17.3668 15.3952 17.5776 14.8674 17.9696 14.4688C18.3618 14.07 18.8859 13.8504 19.4451 13.8504C19.7559 13.8504 20.0079 13.5984 20.0079 13.2875C20.0079 12.7283 20.2275 12.2042 20.6263 11.8121C21.0165 11.4285 21.5304 11.2184 22.0769 11.2184C22.0887 11.2184 22.1006 11.2184 22.1126 11.2186C23.2339 11.2374 24.1462 12.1849 24.1462 13.3308V17.9886Z" fill="#01AEF2"/>
<path d="M35.3129 16.6987L20.5531 1.93901C19.6383 1.02431 18.1494 1.02417 17.2343 1.93901L3.26972 15.9036C2.82647 16.3469 2.58241 16.9362 2.58241 17.563C2.58241 18.1898 2.82647 18.7791 3.26972 19.2224L3.40177 19.3543L1.76798 20.9881C-0.589327 23.3455 -0.589327 27.1811 1.76798 29.5384L5.20824 32.9787C6.34851 34.1189 7.86677 34.747 9.48333 34.747C11.0999 34.747 12.6182 34.119 13.7584 32.9787L15.3921 31.3449L18.0294 33.9821C18.487 34.4396 19.0877 34.6683 19.6887 34.6683C20.2896 34.6683 20.8907 34.4395 21.3481 33.9821L35.3127 20.0176C35.7559 19.5744 36 18.985 36 18.3582C36.0002 17.7313 35.7561 17.142 35.3129 16.6987ZM12.9624 32.1826C12.0348 33.1102 10.7992 33.6212 9.48333 33.6212C8.1675 33.6212 6.93189 33.1102 6.00426 32.1826L2.56399 28.7423C0.645647 26.824 0.645647 23.7026 2.56399 21.7842L4.19778 20.1504L5.58611 21.5387L3.95232 23.1724C3.39453 23.7302 3.0874 24.4726 3.0874 25.2632C3.0874 26.0538 3.3946 26.7963 3.95232 27.354L7.39251 30.7942C7.9503 31.3521 8.69273 31.6592 9.48326 31.6592C10.2739 31.6592 11.0163 31.352 11.574 30.7943L13.2078 29.1605L14.596 30.5487L12.9624 32.1826ZM6.38212 22.3348L12.4119 28.3645L10.778 29.9984C10.4329 30.3435 9.97306 30.5336 9.48333 30.5336C8.99353 30.5336 8.53369 30.3435 8.18852 29.9983L4.74833 26.558C4.40316 26.2129 4.21311 25.7531 4.21311 25.2634C4.21311 24.7735 4.40316 24.3137 4.74833 23.9686L6.38212 22.3348ZM34.5168 19.2215L20.5523 33.186C20.0763 33.6621 19.3016 33.6621 18.8256 33.186L4.0658 18.4263C3.83518 18.1957 3.70819 17.8892 3.70819 17.563C3.70819 17.2368 3.83518 16.9303 4.0658 16.6997L18.0303 2.73516C18.5063 2.25914 19.2809 2.25893 19.757 2.73516L34.5167 17.4949C34.9929 17.9709 34.9929 18.7455 34.5168 19.2215Z" fill="#01AEF2"/>
</g>
<defs>
<clipPath id="clip0">
<rect width="36" height="36" fill="white"/>
</clipPath>
</defs>
</svg>
