<svg width="36" height="36" viewBox="0 0 36 36" fill="none" xmlns="http://www.w3.org/2000/svg">
<path d="M32.8996 7.26989C32.8883 6.98709 32.6557 6.76364 32.3727 6.76364H26.7001V5.03641C26.7001 2.25935 24.4408 0 21.6637 0C18.8866 0 16.6273 2.25935 16.6273 5.03641V6.76357H10.9547C10.6717 6.76357 10.4391 6.98702 10.4278 7.26982L10.1121 15.1604C10.1005 15.4515 10.327 15.6968 10.618 15.7084C10.6252 15.7087 10.6323 15.7089 10.6394 15.7089C10.9209 15.7089 11.1546 15.4864 11.166 15.2026L11.4614 7.81833H16.6273V9.01821H16.0274C15.7361 9.01821 15.5 9.25432 15.5 9.54556C15.5 9.83679 15.7361 10.0729 16.0274 10.0729H18.2819C18.5732 10.0729 18.8093 9.83679 18.8093 9.54556C18.8093 9.25432 18.5732 9.01821 18.2819 9.01821H17.682V7.81833H23.9183C24.2096 7.81833 24.4457 7.58222 24.4457 7.29098C24.4457 6.99975 24.2096 6.76364 23.9183 6.76364H17.682V5.03641C17.682 2.84091 19.4682 1.05469 21.6637 1.05469C23.8592 1.05469 25.6454 2.84091 25.6454 5.03641V9.01814H25.0455C24.7543 9.01814 24.5182 9.25425 24.5182 9.54548C24.5182 9.83672 24.7543 10.0728 25.0455 10.0728H27.3C27.5913 10.0728 27.8274 9.83672 27.8274 9.54548C27.8274 9.25425 27.5913 9.01814 27.3 9.01814H26.7001V7.81826H31.866L32.9511 34.9453H20.5366C20.2454 34.9453 20.0092 35.1814 20.0092 35.4727C20.0092 35.764 20.2454 36 20.5366 36H33.5C33.6435 36 33.7808 35.9415 33.8802 35.838C33.9796 35.7345 34.0326 35.595 34.0269 35.4516L32.8996 7.26989Z" fill="#01AEF2"/>
<path d="M18.8455 19.1635H17.0784C17.4557 18.6886 17.6819 18.0886 17.6819 17.4364V14.6182C17.6819 14.3269 17.4458 14.0908 17.1546 14.0908C15.5645 14.0908 14.0699 14.7925 13.0541 16.0158L12.14 17.1167C11.9634 16.9937 11.7493 16.9211 11.5183 16.9211H10.3911C10.1601 16.9211 9.946 16.9937 9.76944 17.1167L8.85531 16.0158C7.8395 14.7925 6.34487 14.0908 4.75482 14.0908C4.46359 14.0908 4.22748 14.3269 4.22748 14.6182V17.4364C4.22748 18.0886 4.45375 18.6887 4.83104 19.1635H3.06381C2.46221 19.1635 1.97284 19.6529 1.97284 20.2545V23.0727C1.97284 23.3639 2.20895 23.6 2.50018 23.6H3.10009V34.3454C3.10009 35.2578 3.84238 36 4.75468 36H17.1546C18.0669 36 18.8092 35.2577 18.8092 34.3454V23.6H19.4091C19.7004 23.6 19.9365 23.3639 19.9365 23.0727V20.2545C19.9365 19.653 19.4471 19.1635 18.8455 19.1635ZM13.8655 16.6896C14.5669 15.8449 15.5529 15.3103 16.6272 15.1779V17.4364C16.6272 18.3887 15.8524 19.1635 14.9001 19.1635H13.0464L15.1714 17.8885C15.4212 17.7387 15.5022 17.4148 15.3523 17.165C15.2024 16.9153 14.8785 16.8342 14.6287 16.9842L12.6202 18.1893L13.8655 16.6896ZM11.5546 34.9453H10.3548V20.2182H11.5546V34.9453ZM10.391 17.9758H11.5183C11.5383 17.9758 11.5545 17.992 11.5545 18.0121V19.1635H10.3547V18.0121C10.3547 17.992 10.371 17.9758 10.391 17.9758ZM5.28203 17.4364V15.1779C6.3564 15.3103 7.34239 15.8449 8.04376 16.6896L9.28907 18.1893L7.28052 16.9842C7.0307 16.8343 6.70684 16.9153 6.557 17.165C6.40717 17.4148 6.48817 17.7387 6.73785 17.8885L8.86283 19.1635H7.00918C6.05687 19.1635 5.28203 18.3887 5.28203 17.4364ZM4.15478 34.3454V23.6H7.57288C7.86411 23.6 8.10022 23.3639 8.10022 23.0727C8.10022 22.7814 7.86411 22.5453 7.57288 22.5453H3.02753V20.2545C3.02753 20.2344 3.04377 20.2182 3.06381 20.2182H9.30003V34.9453H4.75468C4.42386 34.9453 4.15478 34.6762 4.15478 34.3454ZM17.7545 34.3454C17.7545 34.6762 17.4854 34.9453 17.1546 34.9453H12.6092V23.6H17.7545V34.3454ZM18.8818 22.5453H12.6092V20.2182H18.8455C18.8656 20.2182 18.8818 20.2344 18.8818 20.2545V22.5453Z" fill="#01AEF2"/>
</svg>
