<svg width="38" height="36" viewBox="0 0 38 36" fill="none" xmlns="http://www.w3.org/2000/svg">
<g clip-path="url(#clip0)">
<path d="M37.5034 18.473C36.9598 9.67168 29.2522 2.6699 19.711 2.33578V0.635272C19.711 0.284132 19.4106 0 19.0405 0C18.6703 0 18.37 0.284203 18.37 0.635272V2.33367C8.78823 2.62842 1.03643 9.64503 0.491075 18.473C0.473636 18.7644 0.668062 19.0304 0.961778 19.1168C1.25594 19.2032 1.57548 19.088 1.73458 18.8386C2.65224 17.4012 4.34234 16.4283 6.29082 16.4287C8.45607 16.4282 10.3067 17.6285 11.1242 19.3315C11.2333 19.5581 11.4724 19.7038 11.7353 19.7038C11.9983 19.7038 12.2374 19.5577 12.3456 19.3307C13.3897 17.1474 15.6649 15.5676 18.3707 15.3546V18.1693V31.5529C18.3707 32.4321 17.9961 33.222 17.3886 33.7988C16.7802 34.3744 15.9461 34.7288 15.0182 34.7293C14.0903 34.7288 13.2566 34.3748 12.6479 33.7988C12.0404 33.222 11.6658 32.4316 11.6658 31.5529C11.6658 31.2017 11.3654 30.9176 10.9953 30.9176C10.6253 30.9176 10.3249 31.2018 10.3249 31.5529C10.3258 34.009 12.4262 35.9995 15.0183 35.9999C17.6105 35.9994 19.7109 34.0089 19.7118 31.5529V18.1694V15.3635C22.379 15.6037 24.6166 17.1711 25.6501 19.3307C25.7583 19.5577 25.9965 19.7034 26.2604 19.7038C26.5231 19.7038 26.7615 19.5582 26.8706 19.3315C27.6877 17.6285 29.5387 16.4282 31.704 16.4287C33.6525 16.4287 35.3429 17.4011 36.2602 18.8386C36.4189 19.088 36.7385 19.2033 37.033 19.1168C37.326 19.0304 37.5209 18.7639 37.5034 18.473ZM12.1765 10.4549C11.6231 12.4387 11.2543 14.6902 11.1167 17.0992C9.90751 15.9044 8.19286 15.1586 6.29038 15.1581C4.69735 15.1581 3.23745 15.6832 2.09353 16.5549C3.36568 10.2142 8.72256 5.18526 15.5683 3.90705C15.301 4.1722 15.0444 4.46315 14.7998 4.78124C13.707 6.20851 12.8206 8.15251 12.1765 10.4549ZM18.9968 14.0573C16.3917 14.0578 14.0561 15.1319 12.476 16.8306C12.717 13.2234 13.5001 10.0178 14.6073 7.67263C15.2331 6.34316 15.9639 5.29445 16.7225 4.60581C17.1016 4.26058 17.4855 4.0057 17.8646 3.83842C18.2436 3.6715 18.6165 3.59022 18.9968 3.5898C19.3778 3.59029 19.7505 3.6715 20.1291 3.83842C20.7916 4.12937 21.4728 4.69778 22.1093 5.52831C23.0654 6.77178 23.9102 8.58704 24.5208 10.7788C25.0229 12.5759 25.367 14.6274 25.5145 16.8272C23.9347 15.131 21.601 14.0578 18.9968 14.0573ZM31.7031 15.1581C29.7997 15.1585 28.0842 15.9047 26.8751 17.1C26.6534 13.2264 25.839 9.76357 24.6106 7.15471C23.988 5.8367 23.2602 4.73638 22.4225 3.90663C29.2696 5.18399 34.6277 10.2134 35.8994 16.5545C34.756 15.6833 33.2961 15.1586 31.7031 15.1581Z" fill="#01AEF2"/>
</g>
<defs>
<clipPath id="clip0">
<rect width="37.9947" height="36" fill="white"/>
</clipPath>
</defs>
</svg>
