<svg width="24" height="24" viewBox="0 0 24 24" fill="none" xmlns="http://www.w3.org/2000/svg">
<path d="M11.9999 0C7.11121 0 3.13416 3.97705 3.13416 8.86571C3.13416 10.4751 3.85593 12.206 3.88618 12.279C4.11929 12.8323 4.57927 13.6918 4.91095 14.1956L10.9897 23.406C11.2385 23.7836 11.6066 24 11.9999 24C12.3931 24 12.7613 23.7836 13.01 23.4065L19.0893 14.1956C19.4215 13.6918 19.881 12.8323 20.1141 12.279C20.1443 12.2065 20.8656 10.4756 20.8656 8.86571C20.8656 3.97705 16.8885 0 11.9999 0ZM19.1524 11.8743C18.9443 12.3703 18.5162 13.1698 18.2184 13.6214L12.1391 22.8323C12.0192 23.0143 11.9811 23.0143 11.8611 22.8323L5.78187 13.6214C5.48409 13.1698 5.05593 12.3698 4.84784 11.8738C4.83898 11.8524 4.17718 10.2592 4.17718 8.86571C4.17718 4.55228 7.68644 1.04302 11.9999 1.04302C16.3133 1.04302 19.8226 4.55228 19.8226 8.86571C19.8226 10.2613 19.1592 11.8587 19.1524 11.8743Z" fill="#255FAF"/>
<path d="M11.9999 4.17285C9.41162 4.17285 7.30627 6.27872 7.30627 8.86646C7.30627 11.4542 9.41162 13.5601 11.9999 13.5601C14.5882 13.5601 16.6935 11.4542 16.6935 8.86646C16.6935 6.27872 14.5882 4.17285 11.9999 4.17285ZM11.9999 12.517C9.98737 12.517 8.3493 10.8795 8.3493 8.86646C8.3493 6.85342 9.98737 5.21588 11.9999 5.21588C14.0124 5.21588 15.6505 6.85342 15.6505 8.86646C15.6505 10.8795 14.0124 12.517 11.9999 12.517Z" fill="#255FAF"/>
</svg>
