<svg width="22" height="22" viewBox="0 0 22 22" fill="none" xmlns="http://www.w3.org/2000/svg">
<g clip-path="url(#clip0)">
<path d="M7.01795 17.112C5.74946 17.112 4.72119 18.1403 4.72119 19.4088C4.72119 20.6773 5.74951 21.7055 7.01795 21.7055C8.28645 21.7055 9.31471 20.6772 9.31471 19.4088C9.31476 18.1403 8.28645 17.112 7.01795 17.112ZM7.01795 20.6848C6.31324 20.6848 5.74198 20.1135 5.74198 19.4088C5.74198 18.7041 6.31324 18.1328 7.01795 18.1328C7.72266 18.1328 8.29392 18.7041 8.29392 19.4088C8.29397 20.1135 7.72266 20.6848 7.01795 20.6848Z" fill="#013F88"/>
<path d="M16.7152 17.112C15.4467 17.112 14.4185 18.1403 14.4185 19.4088C14.4185 20.6773 15.4468 21.7055 16.7152 21.7055C17.9837 21.7055 19.012 20.6772 19.012 19.4088C19.012 18.1403 17.9837 17.112 16.7152 17.112ZM16.7152 20.6848C16.0105 20.6848 15.4393 20.1135 15.4393 19.4088C15.4393 18.7041 16.0105 18.1328 16.7152 18.1328C17.4199 18.1328 17.9912 18.7041 17.9912 19.4088C17.9912 20.1135 17.4199 20.6848 16.7152 20.6848Z" fill="#013F88"/>
<path d="M21.896 3.71412C21.7897 3.59802 21.6443 3.52533 21.4877 3.50995L4.8743 3.28027L4.41494 1.87667C4.09134 0.938376 3.21268 0.304936 2.22022 0.294434H0.510397C0.228504 0.294434 0 0.522937 0 0.80483C0 1.08672 0.228504 1.31523 0.510397 1.31523H2.22022C2.77517 1.32749 3.26383 1.68382 3.44519 2.20843L6.68621 11.9825L6.43103 12.5694C6.14641 13.3034 6.23189 14.1295 6.66071 14.7897C7.08543 15.4381 7.79996 15.8382 8.57471 15.8615H18.5019C18.7838 15.8615 19.0123 15.633 19.0123 15.3511C19.0123 15.0692 18.7838 14.8407 18.5019 14.8407H8.57466C8.13715 14.8298 7.73441 14.5996 7.50282 14.2282C7.27383 13.8614 7.22679 13.4095 7.37524 13.0033L7.57942 12.5439L18.3233 11.421C19.5034 11.291 20.4742 10.4327 20.7477 9.27734L21.9726 4.14788C22.0278 4.00017 21.9985 3.83404 21.896 3.71412ZM19.7524 9.04772C19.5867 9.79145 18.9552 10.34 18.1957 10.4003L7.57942 11.4976L5.20606 4.30106L20.8497 4.53074L19.7524 9.04772Z" fill="#013F88"/>
</g>
<defs>
<clipPath id="clip0">
<rect width="22" height="22" fill="white"/>
</clipPath>
</defs>
</svg>
