<svg width="24" height="16" viewBox="0 0 24 16" fill="none" xmlns="http://www.w3.org/2000/svg">
<g clip-path="url(#clip0)">
<path d="M4.83834 12.4453C3.9158 12.4453 3.16797 13.1932 3.16797 14.1157C3.16797 15.0382 3.91583 15.7861 4.83834 15.7861C5.76088 15.7861 6.50871 15.0382 6.50871 14.1157C6.50875 13.1932 5.76088 12.4453 4.83834 12.4453ZM4.83834 15.0437C4.32582 15.0437 3.91036 14.6282 3.91036 14.1157C3.91036 13.6032 4.32582 13.1877 4.83834 13.1877C5.35085 13.1877 5.76632 13.6032 5.76632 14.1157C5.76635 14.6282 5.35085 15.0437 4.83834 15.0437Z" fill="#255FAF"/>
<path d="M11.8911 12.4453C10.9685 12.4453 10.2207 13.1932 10.2207 14.1157C10.2207 15.0382 10.9686 15.7861 11.8911 15.7861C12.8136 15.7861 13.5614 15.0382 13.5614 14.1157C13.5614 13.1932 12.8136 12.4453 11.8911 12.4453ZM11.8911 15.0437C11.3786 15.0437 10.9631 14.6282 10.9631 14.1157C10.9631 13.6032 11.3786 13.1877 11.8911 13.1877C12.4036 13.1877 12.819 13.6032 12.819 14.1157C12.8191 14.6282 12.4036 15.0437 11.8911 15.0437Z" fill="#255FAF"/>
<path d="M15.6587 2.70092C15.5814 2.61647 15.4757 2.56361 15.3618 2.55242L3.27932 2.38538L2.94524 1.36458C2.70989 0.682189 2.07087 0.221505 1.34908 0.213867H0.105573C-0.0994403 0.213867 -0.265625 0.380052 -0.265625 0.585065C-0.265625 0.790078 -0.0994403 0.956262 0.105573 0.956262H1.34908C1.75268 0.965179 2.10807 1.22433 2.23997 1.60587L4.59707 8.71429L4.41149 9.14115C4.20449 9.67494 4.26666 10.2757 4.57853 10.7559C4.88742 11.2274 5.40707 11.5184 5.97053 11.5354H13.1903C13.3953 11.5354 13.5615 11.3692 13.5615 11.1642C13.5615 10.9592 13.3953 10.793 13.1903 10.793H5.97049C5.6523 10.785 5.3594 10.6176 5.19097 10.3475C5.02444 10.0807 4.99022 9.75207 5.09818 9.45665L5.24668 9.12257L13.0604 8.30593C13.9187 8.2114 14.6247 7.58716 14.8236 6.74689L15.7145 3.01637C15.7546 2.90895 15.7333 2.78813 15.6587 2.70092ZM14.0997 6.57989C13.9792 7.12079 13.52 7.51977 12.9676 7.56357L5.24668 8.36163L3.5206 3.12778L14.8978 3.29482L14.0997 6.57989Z" fill="#255FAF"/>
</g>
<defs>
<clipPath id="clip0">
<rect width="23.8447" height="16" fill="white"/>
</clipPath>
</defs>
</svg>
