<svg width="24" height="24" viewBox="0 0 24 24" fill="none" xmlns="http://www.w3.org/2000/svg">
<path d="M6 0C5.175 0 4.5 0.675 4.5 1.5V22.5C4.5 23.325 5.175 24 6 24H21C21.825 24 22.5 23.325 22.5 22.5V6L16.5 0H6Z" fill="#E2E5E7"/>
<path d="M18 6H22.5L16.5 0V4.5C16.5 5.325 17.175 6 18 6Z" fill="#B0B7BD"/>
<path d="M22.5 10.5L18 6H22.5V10.5Z" fill="#CAD1D8"/>
<path d="M19.5 19.5C19.5 19.9125 19.1625 20.25 18.75 20.25H2.25C1.8375 20.25 1.5 19.9125 1.5 19.5V12C1.5 11.5875 1.8375 11.25 2.25 11.25H18.75C19.1625 11.25 19.5 11.5875 19.5 12V19.5Z" fill="#84BD5A"/>
<path d="M4.24658 15.8949C4.24658 14.7377 4.97183 13.7432 6.35183 13.7432C6.87308 13.7432 7.28708 13.8984 7.72508 14.2764C7.88708 14.4257 7.90433 14.6904 7.74233 14.8577C7.58033 15.0009 7.33433 14.9837 7.19108 14.8404C6.94508 14.5824 6.69308 14.5112 6.35183 14.5112C5.42858 14.5112 4.98458 15.1644 4.98458 15.8957C4.98458 16.6397 5.42183 17.3237 6.35183 17.3237C6.69308 17.3237 7.01108 17.1849 7.28708 16.9397C7.47308 16.7957 7.73108 16.8669 7.83833 17.0117C7.93433 17.1437 7.98233 17.3649 7.77233 17.5749C7.35233 17.9657 6.84908 18.0429 6.35108 18.0429C4.90058 18.0429 4.24658 17.0529 4.24658 15.8949Z" fill="white"/>
<path d="M9.14349 18.0003C8.94549 18.0003 8.72949 17.8923 8.72949 17.6291V14.2226C8.72949 14.0073 8.94549 13.8506 9.14349 13.8506H10.5167C13.2572 13.8506 13.1972 18.0003 10.5707 18.0003H9.14349ZM9.52149 14.5826V17.2691H10.5167C12.136 17.2691 12.208 14.5826 10.5167 14.5826H9.52149Z" fill="white"/>
<path d="M14.184 17.6103C14.184 18.1316 13.3867 18.1503 13.3867 17.6223V14.2166C13.3867 14.0073 13.5487 13.8506 13.746 13.8506H15.3412C16.8645 13.8506 17.1765 15.8898 15.9052 16.3991L16.7025 17.3711C17.0145 17.8331 16.3905 18.2763 16.0305 17.8211L15.1252 16.5251H14.1832V17.6103H14.184ZM14.184 15.8358H15.3412C16.1212 15.8358 16.1692 14.5766 15.3412 14.5766H14.184V15.8358Z" fill="white"/>
<path d="M18.75 20.25H4.5V21H18.75C19.1625 21 19.5 20.6625 19.5 20.25V19.5C19.5 19.9125 19.1625 20.25 18.75 20.25Z" fill="#CAD1D8"/>
</svg>
