<svg width="21" height="21" viewBox="0 0 21 21" fill="none" xmlns="http://www.w3.org/2000/svg">
<path d="M18.0962 5.64605L12.5717 0.12157C12.4939 0.0437227 12.3884 0 12.2782 0H4.49375C3.54838 0 2.7793 0.769084 2.7793 1.71445V19.2855C2.7793 20.2309 3.54838 21 4.49375 21H16.5033C17.4487 21 18.2177 20.2309 18.2177 19.2855V5.93951C18.2177 5.82947 18.174 5.72385 18.0962 5.64605ZM12.6933 1.41705L16.8007 5.52439H13.5776C13.09 5.52439 12.6933 5.12769 12.6933 4.64002V1.41705H12.6933ZM17.3877 19.2855C17.3877 19.7732 16.991 20.1699 16.5033 20.1699H4.49375C4.00612 20.1699 3.60937 19.7732 3.60937 19.2855V1.71445C3.60937 1.22682 4.00612 0.830074 4.49375 0.830074H11.8632V4.6401C11.8632 5.58547 12.6322 6.35455 13.5776 6.35455H17.3877V19.2855Z" fill="#01AEF2"/>
<path d="M13.821 10.5415H7.18066C6.95147 10.5415 6.76562 10.7273 6.76562 10.9565C6.76562 11.1857 6.95147 11.3716 7.18066 11.3716H13.821C14.0503 11.3716 14.236 11.1857 14.236 10.9565C14.236 10.7273 14.0503 10.5415 13.821 10.5415Z" fill="#01AEF2"/>
<path d="M13.821 12.395H7.18066C6.95147 12.395 6.76562 12.5809 6.76562 12.8101C6.76562 13.0393 6.95147 13.2251 7.18066 13.2251H13.821C14.0503 13.2251 14.236 13.0393 14.236 12.8101C14.236 12.5809 14.0503 12.395 13.821 12.395Z" fill="#01AEF2"/>
<path d="M13.821 14.249H7.18066C6.95147 14.249 6.76562 14.4349 6.76562 14.6641C6.76562 14.8933 6.95147 15.0791 7.18066 15.0791H13.821C14.0503 15.0791 14.236 14.8933 14.236 14.6641C14.236 14.4349 14.0503 14.249 13.821 14.249Z" fill="#01AEF2"/>
<path d="M11.6629 16.1025H7.18066C6.95147 16.1025 6.76562 16.2884 6.76562 16.5176C6.76562 16.7468 6.95147 16.9326 7.18066 16.9326H11.6629C11.8922 16.9326 12.0779 16.7468 12.0779 16.5176C12.0779 16.2884 11.8922 16.1025 11.6629 16.1025Z" fill="#01AEF2"/>
</svg>
