<svg width="22" height="22" viewBox="0 0 22 22" fill="none" xmlns="http://www.w3.org/2000/svg">
<path d="M10.9998 5C7.68648 5 5 7.68648 5 10.9998C5 14.313 7.68648 17 10.9998 17C14.313 17 17 14.313 17 10.9998C17 7.68648 14.313 5 10.9998 5ZM12.2488 14.2988C11.94 14.4207 11.6941 14.5132 11.5097 14.5772C11.3259 14.6412 11.112 14.6732 10.8687 14.6732C10.4949 14.6732 10.2038 14.5817 9.99658 14.3994C9.78934 14.217 9.68623 13.9859 9.68623 13.705C9.68623 13.5958 9.69385 13.4841 9.70909 13.3703C9.72484 13.2565 9.74972 13.1285 9.78376 12.9848L10.1703 11.6194C10.2043 11.4884 10.2338 11.364 10.2572 11.2481C10.2805 11.1313 10.2917 11.0241 10.2917 10.9266C10.2917 10.7529 10.2556 10.631 10.184 10.5624C10.1114 10.4939 9.97474 10.4603 9.77106 10.4603C9.6715 10.4603 9.5689 10.4751 9.46376 10.506C9.35963 10.538 9.26922 10.567 9.19506 10.5954L9.29715 10.1749C9.55011 10.0718 9.79239 9.98338 10.0235 9.91023C10.2546 9.83607 10.473 9.7995 10.6787 9.7995C11.05 9.7995 11.3365 9.88992 11.5382 10.0687C11.7388 10.248 11.8399 10.4812 11.8399 10.7676C11.8399 10.8271 11.8328 10.9317 11.8191 11.081C11.8053 11.2309 11.7794 11.3675 11.7419 11.493L11.3573 12.8542C11.3259 12.9634 11.2979 13.0884 11.2725 13.2281C11.2476 13.3678 11.2354 13.4744 11.2354 13.5461C11.2354 13.7269 11.2756 13.8503 11.3568 13.9158C11.4371 13.9814 11.5778 14.0144 11.7769 14.0144C11.8709 14.0144 11.976 13.9976 12.0949 13.9651C12.2127 13.9326 12.298 13.9036 12.3519 13.8787L12.2488 14.2988ZM12.1807 8.77347C12.0014 8.94007 11.7855 9.02337 11.5331 9.02337C11.2812 9.02337 11.0638 8.94007 10.8829 8.77347C10.7031 8.60686 10.6122 8.4042 10.6122 8.1675C10.6122 7.93131 10.7036 7.72813 10.8829 7.56001C11.0638 7.39137 11.2812 7.30756 11.5331 7.30756C11.7855 7.30756 12.0019 7.39137 12.1807 7.56001C12.36 7.72813 12.4499 7.93131 12.4499 8.1675C12.4499 8.40471 12.36 8.60686 12.1807 8.77347Z" fill="#EF4800"/>
</svg>
