<svg width="28" height="16" viewBox="0 0 28 16" fill="none" xmlns="http://www.w3.org/2000/svg">
<path d="M13.375 15.5522H14.987C14.987 15.5522 15.4731 15.4983 15.7212 15.2279C15.95 14.9795 15.9434 14.5147 15.9434 14.5147C15.9434 14.5147 15.9116 12.3346 16.9156 12.0137C17.9053 11.6963 19.174 14.1198 20.522 15.0511C21.5402 15.7576 22.3144 15.6027 22.3144 15.6027L25.9134 15.5522C25.9134 15.5522 27.7969 15.4351 26.9032 13.9421C26.8297 13.8192 26.3828 12.8373 24.2263 10.8188C21.9695 8.70772 22.271 9.04792 24.9905 5.39414C26.6476 3.16937 27.3091 1.81108 27.1028 1.22836C26.9048 0.673433 25.6879 0.821643 25.6879 0.821643L21.6329 0.846909C21.6329 0.846909 21.3331 0.805644 21.1092 0.938693C20.8912 1.07006 20.7526 1.37826 20.7526 1.37826C20.7526 1.37826 20.1103 3.10116 19.2542 4.56301C17.4501 7.65513 16.7276 7.81765 16.4328 7.62649C15.7462 7.17767 15.9183 5.82865 15.9183 4.87036C15.9183 1.87508 16.3685 0.627121 15.0405 0.304604C14.6012 0.196818 14.2754 0.126083 13.1495 0.115136C11.7021 0.0991367 10.4785 0.119345 9.78526 0.46123C9.32421 0.687749 8.96841 1.19637 9.18474 1.225C9.45284 1.26121 10.0609 1.39089 10.3825 1.83214C10.7967 2.40138 10.7825 3.6805 10.7825 3.6805C10.7825 3.6805 11.0214 7.20714 10.2246 7.64418C9.67835 7.94564 8.92915 7.33092 7.31884 4.52764C6.49531 3.09189 5.87309 1.50457 5.87309 1.50457C5.87309 1.50457 5.75365 1.209 5.539 1.04984C5.27841 0.857007 4.91509 0.796376 4.91509 0.796376L1.06387 0.821643C1.06387 0.821643 0.485896 0.837639 0.272914 1.09195C0.0849892 1.31678 0.258722 1.7833 0.258722 1.7833C0.258722 1.7833 3.27387 8.89634 6.68826 12.4802C9.81868 15.7686 13.375 15.5522 13.375 15.5522Z" fill="white"/>
</svg>
