<svg width="39" height="39" viewBox="0 0 39 39" fill="none" xmlns="http://www.w3.org/2000/svg">
<path d="M19.7371 26.8696H21.2011C21.2011 26.8696 21.6426 26.8185 21.8678 26.5625C22.0757 26.3271 22.0696 25.8868 22.0696 25.8868C22.0696 25.8868 22.0408 23.8214 22.9525 23.5174C23.8514 23.2167 25.0036 25.5126 26.2279 26.3949C27.1525 27.0643 27.8557 26.9175 27.8557 26.9175L31.1242 26.8696C31.1242 26.8696 32.8346 26.7587 32.023 25.3443C31.9563 25.2278 31.5505 24.2976 29.5919 22.3854C27.5424 20.3854 27.8162 20.7077 30.286 17.2462C31.7909 15.1385 32.3917 13.8517 32.2043 13.2997C32.0245 12.774 30.9194 12.9144 30.9194 12.9144L27.2367 12.9383C27.2367 12.9383 26.9644 12.8992 26.7611 13.0253C26.5631 13.1497 26.4372 13.4417 26.4372 13.4417C26.4372 13.4417 25.8539 15.0739 25.0764 16.4588C23.438 19.3882 22.7819 19.5422 22.5141 19.3611C21.8906 18.9359 22.0469 17.6579 22.0469 16.75C22.0469 13.9124 22.4557 12.7301 21.2497 12.4246C20.8507 12.3224 20.5548 12.2554 19.5323 12.2451C18.2178 12.2299 17.1066 12.2491 16.477 12.5729C16.0583 12.7875 15.7352 13.2694 15.9316 13.2965C16.1751 13.3308 16.7273 13.4537 17.0193 13.8717C17.3956 14.411 17.3827 15.6228 17.3827 15.6228C17.3827 15.6228 17.5996 18.9638 16.876 19.3778C16.3799 19.6634 15.6995 19.0811 14.2371 16.4253C13.4892 15.0651 12.9241 13.5614 12.9241 13.5614C12.9241 13.5614 12.8156 13.2814 12.6207 13.1306C12.384 12.9479 12.054 12.8904 12.054 12.8904L8.55646 12.9144C8.55646 12.9144 8.03156 12.9295 7.83813 13.1705C7.66747 13.3835 7.82524 13.8254 7.82524 13.8254C7.82524 13.8254 10.5635 20.5641 13.6644 23.9594C16.5073 27.0746 19.7371 26.8696 19.7371 26.8696Z" fill="#3095F2"/>
</svg>
